SplineFontDB: 3.2
FontName: PixelarRegularW01-Regular
FullName: Pixelar Regular W01 Regular
FamilyName: PixelarRegularW01-Regular
Weight: Book
Version: 1.00
ItalicAngle: 0
UnderlinePosition: -125
UnderlineWidth: 50
Ascent: 800
Descent: 200
InvalidEm: 0
sfntRevision: 0x00010000
LayerCount: 2
Layer: 0 1 "Back" 1
Layer: 1 1 "Fore" 0
XUID: [1021 833 690807294 2846]
StyleMap: 0x0040
FSType: 0
OS2Version: 4
OS2_WeightWidthSlopeOnly: 1
OS2_UseTypoMetrics: 0
CreationTime: 1331312729
ModificationTime: 1644372568
PfmFamily: 81
TTFWeight: 400
TTFWidth: 5
LineGap: 0
VLineGap: 0
Panose: 1 0 0 0 0 0 0 0 0 0
OS2TypoAscent: 786
OS2TypoAOffset: 0
OS2TypoDescent: -143
OS2TypoDOffset: 0
OS2TypoLinegap: 0
OS2WinAscent: 786
OS2WinAOffset: 0
OS2WinDescent: 143
OS2WinDOffset: 0
HheadAscent: 786
HheadAOffset: 0
HheadDescent: -143
HheadDOffset: 0
OS2SubXSize: 700
OS2SubYSize: 650
OS2SubXOff: 0
OS2SubYOff: 140
OS2SupXSize: 700
OS2SupYSize: 650
OS2SupXOff: 0
OS2SupYOff: 477
OS2StrikeYSize: 50
OS2StrikeYPos: 250
OS2CapHeight: 500
OS2XHeight: 357
OS2Vendor: 'pyrs'
OS2CodePages: 00000001.00000000
OS2UnicodeRanges: 80000027.00000040.00000000.00000000
DEI: 91125
TtTable: prep
PUSHB_1
 0
CALL
SVTCA[y-axis]
PUSHB_3
 1
 4
 7
CALL
PUSHB_1
 0
DUP
RCVT
RDTG
ROUND[Black]
RTG
WCVTP
EndTTInstrs
TtTable: fpgm
NPUSHB
 10
 9
 8
 7
 6
 5
 4
 3
 2
 1
 0
FDEF
MPPEM
PUSHB_1
 9
LT
IF
PUSHB_2
 1
 1
INSTCTRL
EIF
PUSHW_1
 511
SCANCTRL
PUSHB_1
 68
SCVTCI
PUSHB_2
 9
 3
SDS
SDB
ENDF
FDEF
DUP
DUP
RCVT
ROUND[Black]
WCVTP
PUSHB_1
 1
ADD
ENDF
FDEF
PUSHB_1
 1
LOOPCALL
POP
ENDF
FDEF
DUP
GC[cur]
PUSHB_1
 3
CINDEX
GC[cur]
GT
IF
SWAP
EIF
DUP
ROLL
DUP
ROLL
MD[grid]
ABS
ROLL
DUP
GC[cur]
DUP
ROUND[Grey]
SUB
ABS
PUSHB_1
 4
CINDEX
GC[cur]
DUP
ROUND[Grey]
SUB
ABS
GT
IF
SWAP
NEG
ROLL
EIF
MDAP[rnd]
DUP
PUSHB_1
 0
GTEQ
IF
ROUND[Black]
DUP
PUSHB_1
 0
EQ
IF
POP
PUSHB_1
 64
EIF
ELSE
ROUND[Black]
DUP
PUSHB_1
 0
EQ
IF
POP
PUSHB_1
 64
NEG
EIF
EIF
MSIRP[no-rp0]
ENDF
FDEF
DUP
GC[cur]
PUSHB_1
 4
CINDEX
GC[cur]
GT
IF
SWAP
ROLL
EIF
DUP
GC[cur]
DUP

StartChar: dollar
Encoding: 36 36 3
Width: 428
Flags: W
LayerCount: 2
Fore
SplineSet
286 214 m 1,0,-1
 71 214 l 1,1,-1
 71 286 l 1,2,-1
 286 286 l 1,3,-1
 286 214 l 1,0,-1
0 0 m 1,4,-1
 0 71 l 1,5,-1
 286 71 l 1,6,-1
 286 0 l 1,7,-1
 214 0 l 1,8,-1
 214 -71 l 1,9,-1
 143 -71 l 1,10,-1
 143 0 l 1,11,-1
 0 0 l 1,4,-1
357 71 m 1,12,-1
 286 71 l 1,13,-1
 286 214 l 1,14,-1
 357 214 l 1,15,-1
 357 71 l 1,12,-1
0 429 m 1,16,-1
 71 429 l 1,17,-1
 71 286 l 1,18,-1
 0 286 l 1,19,-1
 0 429 l 1,16,-1
357 429 m 1,20,-1
 71 429 l 1,21,-1
 71 500 l 1,22,-1
 143 500 l 1,23,-1
 143 571 l 1,24,-1
 214 571 l 1,25,-1
 214 500 l 1,26,-1
 357 500 l 1,27,-1
 357 429 l 1,20,-1
EndSplineSet
EndChar

StartChar: percent
Encoding: 37 37 4
Width: 785
Flags: W
LayerCount: 2
Fore
SplineSet
214 143 m 1,0,-1
 214 214 l 1,1,-1
 286 214 l 1,2,-1
 286 143 l 1,3,-1
 214 143 l 1,0,-1
643 571 m 1,4,-1
 643 500 l 1,5,-1
 571 500 l 1,6,-1
 571 571 l 1,7,-1
 643 571 l 1,4,-1
286 214 m 1,8,-1
 286 286 l 1,9,-1
 357 286 l 1,10,-1
 357 214 l 1,11,-1
 286 214 l 1,8,-1
143 71 m 1,12,-1
 143 143 l 1,13,-1
 214 143 l 1,14,-1
 214 71 l 1,15,-1
 143 71 l 1,12,-1
71 0 m 1,16,-1
 71 71 l 1,17,-1
 143 71 l 1,18,-1
 143 0 l 1,19,-1
 71 0 l 1,16,-1
357 286 m 1,20,-1
 357 357 l 1,21,-1
 429 357 l 1,22,-1
 429 286 l 1,23,-1
 357 286 l 1,20,-1
500 429 m 1,24,-1
 500 357 l 1,25,-1
 429 357 l 1,26,-1
 429 429 l 1,27,-1
 500 429 l 1,24,-1
571 500 m 1,28,-1
 571 429 l 1,29,-1
 500 429 l 1,30,-1
 500 500 l 1,31,-1
 571 500 l 1,28,-1
429 214 m 1,32,-1
 500 214 l 1,33,-1
 500 71 l 1,34,-1
 429 71 l 1,35,-1
 429 214 l 1,32,-1
500 0 m 1,36,-1
 500 71 l 1,37,-1
 643 71 l 1,38,-1
 643 0 l 1,39,-1
 500 0 l 1,36,-1
643 214 m 1,40,-1
 714 214 l 1,41,-1
 714 71 l 1,42,-1
 643 71 l 1,43,-1
 643 214 l 1,40,-1
643 286 m 1,44,-1
 643 214 l 1,45,-1
 500 214 l 1,46,-1
 500 286 l 1,47,-1
 643 286 l 1,44,-1
71 286 m 1,48,-1
 71 357 l 1,49,-1
 214 357 l 1,50,-1
 214 286 l 1,51,-1
 71 286 l 1,48,-1
71 500 m 1,52,-1
 71 357 l 1,53,-1
 0 357 l 1,54,-1
 0 500 l 1,55,-1
 71 500 l 1,52,-1
286 357 m 1,56,-1
 214 357 l 1,57,-1
 214 500 l 1,58,-1
 286 500 l 1,59,-1
 286 357 l 1,56,-1
214 571 m 1,60,-1
 214 500 l 1,61,-1
 71 500 l 1,62,-1
 71 571 l 1,63,-1
 214 571 l 1,60,-1
EndSplineSet
EndChar

StartChar: ampersand
Encoding: 38 38 5
Width: 571
Flags: W
LayerCount: 2
Fore
SplineSet
0 214 m 1,0,-1
 71 214 l 1,1,-1
 71 71 l 1,2,-1
 0 71 l 1,3,-1
 0 214 l 1,0,-1
500 214 m 1,4,-1
 357 214 l 1,5,-1
 357 71 l 1,6,-1
 286 71 l 1,7,-1
 286 214 l 1,8,-1
 71 214 l 1,9,-1
 71 286 l 1,10,-1
 286 286 l 1,11,-1
 286 429 l 1,12,-1
 357 429 l 1,13,-1
 357 286 l 1,14,-1
 500 286 l 1,15,-1
 500 214 l 1,4,-1
0 429 m 1,16,-1
 71 429 l 1,17,-1
 71 286 l 1,18,-1
 0 286 l 1,19,-1
 0 429 l 1,16,-1
286 500 m 1,20,-1
 286 429 l 1,21,-1
 71 429 l 1,22,-1
 71 500 l 1,23,-1
 286 500 l 1,20,-1
71 0 m 1,24,-1
 71 71 l 1,25,-1
 286 71 l 1,26,-1
 286 0 l 1,27,-1
 71 0 l 1,24,-1
500 0 m 1,28,-1
 357 0 l 1,29,-1
 357 71 l 1,30,-1
 500 71 l 1,31,-1
 500 0 l 1,28,-1
EndSplineSet
EndChar

StartChar: quotesingle
Encoding: 39 39 6
Width: 142
Flags: W
LayerCount: 2
Fore
SplineSet
71 357 m 1,0,-1
 0 357 l 1,1,-1
 0 500 l 1,2,-1
 71 500 l 1,3,-1
 71 357 l 1,4,-1
 71 357 l 1,0,-1
EndSplineSet
EndChar

StartChar: parenleft
Encoding: 40 40 7
Width: 214
Flags: W
LayerCount: 2
Fore
SplineSet
143 -71 m 1,0,-1
 71 -71 l 1,1,-1
 71 0 l 1,2,-1
 143 0 l 1,3,-1
 143 -71 l 1,0,-1
0 500 m 1,4,-1
 71 500 l 1,5,-1
 71 0 l 1,6,-1
 0 0 l 1,7,-1
 0 500 l 1,4,-1
143 571 m 1,8,-1
 143 500 l 1,9,-1
 71 500 l 1,10,-1
 71 571 l 1,11,-1
 143 571 l 1,8,-1
EndSplineSet
EndChar

StartChar: parenright
Encoding: 41 41 8
Width: 214
Flags: W
LayerCount: 2
Fore
SplineSet
0 -71 m 1,0,-1
 0 0 l 1,1,-1
 72 0 l 1,2,-1
 72 -71 l 1,3,-1
 0 -71 l 1,4,-1
 0 -71 l 1,0,-1
143 500 m 1,5,-1
 143 0 l 1,6,-1
 72 0 l 1,7,-1
 72 500 l 1,8,-1
 143 500 l 1,9,-1
 143 500 l 1,5,-1
0 571 m 1,10,-1
 72 571 l 1,11,-1
 72 500 l 1,12,-1
 0 500 l 1,13,-1
 0 571 l 1,14,-1
 0 571 l 1,10,-1
EndSplineSet
EndChar

StartChar: asterisk
Encoding: 42 42 9
Width: 428
Flags: W
LayerCount: 2
Fore
SplineSet
71 500 m 1,0,-1
 143 500 l 1,1,-1
 143 429 l 1,2,-1
 71 429 l 1,3,-1
 71 500 l 1,0,-1
286 500 m 1,4,-1
 286 429 l 1,5,-1
 214 429 l 1,6,-1
 214 500 l 1,7,-1
 286 500 l 1,4,-1
71 143 m 1,8,-1
 71 214 l 1,9,-1
 143 214 l 1,10,-1
 143 143 l 1,11,-1
 71 143 l 1,8,-1
286 143 m 1,12,-1
 214 143 l 1,13,-1
 214 214 l 1,14,-1
 286 214 l 1,15,-1
 286 143 l 1,12,-1
357 286 m 1,16,-1
 214 286 l 1,17,-1
 214 214 l 1,18,-1
 143 214 l 1,19,-1
 143 286 l 1,20,-1
 0 286 l 1,21,-1
 0 357 l 1,22,-1
 143 357 l 1,23,-1
 143 429 l 1,24,-1
 214 429 l 1,25,-1
 214 357 l 1,26,-1
 357 357 l 1,27,-1
 357 286 l 1,16,-1
EndSplineSet
EndChar

StartChar: plus
Encoding: 43 43 10
Width: 428
Flags: W
LayerCount: 2
Fore
SplineSet
357 214 m 1,0,-1
 357 143 l 1,1,-1
 214 143 l 1,2,-1
 214 0 l 1,3,-1
 143 0 l 1,4,-1
 143 143 l 1,5,-1
 0 143 l 1,6,-1
 0 214 l 1,7,-1
 143 214 l 1,8,-1
 143 357 l 1,9,-1
 214 357 l 1,10,-1
 214 214 l 1,11,-1
 357 214 l 1,12,-1
 357 214 l 1,0,-1
EndSplineSet
EndChar

StartChar: comma
Encoding: 44 44 11
Width: 214
Flags: W
LayerCount: 2
Fore
SplineSet
0 -71 m 1,0,-1
 0 0 l 1,1,-1
 71 0 l 1,2,-1
 71 -71 l 1,3,-1
 0 -71 l 1,0,-1
71 71 m 1,4,-1
 143 71 l 1,5,-1
 143 0 l 1,6,-1
 71 0 l 1,7,-1
 71 71 l 1,4,-1
EndSplineSet
EndChar

StartChar: hyphen
Encoding: 45 45 12
Width: 357
Flags: W
LayerCount: 2
Fore
SplineSet
286 143 m 1,0,-1
 0 143 l 1,1,-1
 0 214 l 1,2,-1
 286 214 l 1,3,-1
 286 143 l 1,0,-1
EndSplineSet
EndChar

StartChar: period
Encoding: 46 46 13
Width: 142
Flags: W
LayerCount: 2
Fore
SplineSet
71 0 m 1,0,-1
 0 0 l 1,1,-1
 0 71 l 1,2,-1
 71 71 l 1,3,-1
 71 0 l 1,4,-1
 71 0 l 1,0,-1
EndSplineSet
EndChar

StartChar: slash
Encoding: 47 47 14
Width: 642
Flags: W
LayerCount: 2
Fore
SplineSet
0 -71 m 1,0,-1
 0 0 l 1,1,-1
 71 0 l 1,2,-1
 71 -71 l 1,3,-1
 0 -71 l 1,0,-1
71 0 m 1,4,-1
 71 71 l 1,5,-1
 143 71 l 1,6,-1
 143 0 l 1,7,-1
 71 0 l 1,4,-1
143 71 m 1,8,-1
 143 143 l 1,9,-1
 214 143 l 1,10,-1
 214 71 l 1,11,-1
 143 71 l 1,8,-1
214 143 m 1,12,-1
 214 214 l 1,13,-1
 286 214 l 1,14,-1
 286 143 l 1,15,-1
 214 143 l 1,12,-1
286 214 m 1,16,-1
 286 286 l 1,17,-1
 357 286 l 1,18,-1
 357 214 l 1,19,-1
 286 214 l 1,16,-1
357 286 m 1,20,-1
 357 357 l 1,21,-1
 429 357 l 1,22,-1
 429 286 l 1,23,-1
 357 286 l 1,20,-1
429 357 m 1,24,-1
 429 429 l 1,25,-1
 500 429 l 1,26,-1
 500 357 l 1,27,-1
 429 357 l 1,24,-1
500 500 m 1,28,-1
 571 500 l 1,29,-1
 571 429 l 1,30,-1
 500 429 l 1,31,-1
 500 500 l 1,28,-1
EndSplineSet
EndChar

StartChar: zero
Encoding: 48 48 15
Width: 428
Flags: W
LayerCount: 2
Fore
SplineSet
71 0 m 1,0,-1
 71 71 l 1,1,-1
 286 71 l 1,2,-1
 286 0 l 1,3,-1
 71 0 l 1,0,-1
0 429 m 1,4,-1
 71 429 l 1,5,-1
 71 71 l 1,6,-1
 0 71 l 1,7,-1
 0 429 l 1,4,-1
286 500 m 1,8,-1
 286 429 l 1,9,-1
 71 429 l 1,10,-1
 71 500 l 1,11,-1
 286 500 l 1,8,-1
286 429 m 1,12,-1
 357 429 l 1,13,-1
 357 71 l 1,14,-1
 286 71 l 1,15,-1
 286 429 l 1,12,-1
EndSplineSet
EndChar

StartChar: one
Encoding: 49 49 16
Width: 214
Flags: W
LayerCount: 2
Fore
SplineSet
0 500 m 1,0,-1
 143 500 l 1,1,-1
 143 0 l 1,2,-1
 71 0 l 1,3,-1
 71 429 l 1,4,-1
 0 429 l 1,5,-1
 0 500 l 1,6,-1
 0 500 l 1,0,-1
EndSplineSet
EndChar

StartChar: two
Encoding: 50 50 17
Width: 428
Flags: W
LayerCount: 2
Fore
SplineSet
0 500 m 1,0,-1
 286 500 l 1,1,-1
 286 429 l 1,2,-1
 0 429 l 1,3,-1
 0 500 l 1,0,-1
357 429 m 1,4,-1
 357 286 l 1,5,-1
 286 286 l 1,6,-1
 286 429 l 1,7,-1
 357 429 l 1,4,-1
286 286 m 1,8,-1
 286 214 l 1,9,-1
 71 214 l 1,10,-1
 71 286 l 1,11,-1
 286 286 l 1,8,-1
0 214 m 1,12,-1
 71 214 l 1,13,-1
 71 71 l 1,14,-1
 357 71 l 1,15,-1
 357 0 l 1,16,-1
 0 0 l 1,17,-1
 0 214 l 1,12,-1
EndSplineSet
EndChar

StartChar: three
Encoding: 51 51 18
Width: 428
Flags: W
LayerCount: 2
Fore
SplineSet
0 500 m 1,0,-1
 286 500 l 1,1,-1
 286 429 l 1,2,-1
 0 429 l 1,3,-1
 0 500 l 1,0,-1
357 429 m 1,4,-1
 357 286 l 1,5,-1
 286 286 l 1,6,-1
 286 429 l 1,7,-1
 357 429 l 1,4,-1
0 286 m 1,8,-1
 286 286 l 1,9,-1
 286 214 l 1,10,-1
 0 214 l 1,11,-1
 0 286 l 1,8,-1
357 71 m 1,12,-1
 286 71 l 1,13,-1
 286 214 l 1,14,-1
 357 214 l 1,15,-1
 357 71 l 1,12,-1
0 0 m 1,16,-1
 0 71 l 1,17,-1
 286 71 l 1,18,-1
 286 0 l 1,19,-1
 0 0 l 1,16,-1
EndSplineSet
EndChar

StartChar: four
Encoding: 52 52 19
Width: 428
Flags: W
LayerCount: 2
Fore
SplineSet
0 500 m 1,0,-1
 71 500 l 1,1,-1
 71 214 l 1,2,-1
 0 214 l 1,3,-1
 0 500 l 1,0,-1
286 500 m 1,4,-1
 357 500 l 1,5,-1
 357 0 l 1,6,-1
 286 0 l 1,7,-1
 286 143 l 1,8,-1
 71 143 l 1,9,-1
 71 214 l 1,10,-1
 286 214 l 1,11,-1
 286 500 l 1,4,-1
EndSplineSet
EndChar

StartChar: five
Encoding: 53 53 20
Width: 428
Flags: W
LayerCount: 2
Fore
SplineSet
0 0 m 1,0,-1
 0 71 l 1,1,-1
 286 71 l 1,2,-1
 286 0 l 1,3,-1
 0 0 l 1,0,-1
357 71 m 1,4,-1
 286 71 l 1,5,-1
 286 214 l 1,6,-1
 357 214 l 1,7,-1
 357 71 l 1,4,-1
357 429 m 1,8,-1
 71 429 l 1,9,-1
 71 286 l 1,10,-1
 286 286 l 1,11,-1
 286 214 l 1,12,-1
 0 214 l 1,13,-1
 0 500 l 1,14,-1
 357 500 l 1,15,-1
 357 429 l 1,8,-1
EndSplineSet
EndChar

StartChar: six
Encoding: 54 54 21
Width: 428
Flags: W
LayerCount: 2
Fore
SplineSet
0 429 m 1,0,-1
 71 429 l 1,1,-1
 71 286 l 1,2,-1
 286 286 l 1,3,-1
 286 214 l 1,4,-1
 71 214 l 1,5,-1
 71 71 l 1,6,-1
 0 71 l 1,7,-1
 0 429 l 1,0,-1
71 0 m 1,8,-1
 71 71 l 1,9,-1
 286 71 l 1,10,-1
 286 0 l 1,11,-1
 71 0 l 1,8,-1
357 71 m 1,12,-1
 286 71 l 1,13,-1
 286 214 l 1,14,-1
 357 214 l 1,15,-1
 357 71 l 1,12,-1
286 500 m 1,16,-1
 286 429 l 1,17,-1
 71 429 l 1,18,-1
 71 500 l 1,19,-1
 286 500 l 1,16,-1
EndSplineSet
EndChar

StartChar: seven
Encoding: 55 55 22
Width: 428
Flags: W
LayerCount: 2
Fore
SplineSet
0 500 m 1,0,-1
 357 500 l 1,1,-1
 357 286 l 1,2,-1
 286 286 l 1,3,-1
 286 429 l 1,4,-1
 0 429 l 1,5,-1
 0 500 l 1,0,-1
214 214 m 1,6,-1
 214 286 l 1,7,-1
 286 286 l 1,8,-1
 286 214 l 1,9,-1
 214 214 l 1,6,-1
143 0 m 1,10,-1
 143 214 l 1,11,-1
 214 214 l 1,12,-1
 214 0 l 1,13,-1
 143 0 l 1,10,-1
EndSplineSet
EndChar

StartChar: eight
Encoding: 56 56 23
Width: 428
Flags: W
LayerCount: 2
Fore
SplineSet
71 0 m 1,0,-1
 71 71 l 1,1,-1
 286 71 l 1,2,-1
 286 0 l 1,3,-1
 71 0 l 1,0,-1
0 214 m 1,4,-1
 71 214 l 1,5,-1
 71 71 l 1,6,-1
 0 71 l 1,7,-1
 0 214 l 1,4,-1
71 286 m 1,8,-1
 286 286 l 1,9,-1
 286 214 l 1,10,-1
 71 214 l 1,11,-1
 71 286 l 1,8,-1
357 71 m 1,12,-1
 286 71 l 1,13,-1
 286 214 l 1,14,-1
 357 214 l 1,15,-1
 357 71 l 1,12,-1
286 500 m 1,16,-1
 286 429 l 1,17,-1
 71 429 l 1,18,-1
 71 500 l 1,19,-1
 286 500 l 1,16,-1
0 429 m 1,20,-1
 71 429 l 1,21,-1
 71 286 l 1,22,-1
 0 286 l 1,23,-1
 0 429 l 1,20,-1
357 286 m 1,24,-1
 286 286 l 1,25,-1
 286 429 l 1,26,-1
 357 429 l 1,27,-1
 357 286 l 1,24,-1
EndSplineSet
EndChar

StartChar: nine
Encoding: 57 57 24
Width: 428
Flags: W
LayerCount: 2
Fore
SplineSet
357 71 m 1,0,-1
 286 71 l 1,1,-1
 286 214 l 1,2,-1
 71 214 l 1,3,-1
 71 286 l 1,4,-1
 286 286 l 1,5,-1
 286 429 l 1,6,-1
 357 429 l 1,7,-1
 357 71 l 1,0,-1
286 500 m 1,8,-1
 286 429 l 1,9,-1
 71 429 l 1,10,-1
 71 500 l 1,11,-1
 286 500 l 1,8,-1
0 429 m 1,12,-1
 71 429 l 1,13,-1
 71 286 l 1,14,-1
 0 286 l 1,15,-1
 0 429 l 1,12,-1
71 0 m 1,16,-1
 71 71 l 1,17,-1
 286 71 l 1,18,-1
 286 0 l 1,19,-1
 71 0 l 1,16,-1
EndSplineSet
EndChar

StartChar: colon
Encoding: 58 58 25
Width: 142
Flags: W
LayerCount: 2
Fore
SplineSet
0 0 m 1,0,-1
 0 71 l 1,1,-1
 71 71 l 1,2,-1
 71 0 l 1,3,-1
 0 0 l 1,0,-1
0 357 m 1,4,-1
 71 357 l 1,5,-1
 71 286 l 1,6,-1
 0 286 l 1,7,-1
 0 357 l 1,4,-1
EndSplineSet
EndChar

StartChar: semicolon
Encoding: 59 59 26
Width: 214
Flags: W
LayerCount: 2
Fore
SplineSet
71 0 m 1,0,-1
 71 71 l 1,1,-1
 143 71 l 1,2,-1
 143 0 l 1,3,-1
 71 0 l 1,0,-1
0 -71 m 1,4,-1
 0 0 l 1,5,-1
 71 0 l 1,6,-1
 71 -71 l 1,7,-1
 0 -71 l 1,4,-1
71 357 m 1,8,-1
 143 357 l 1,9,-1
 143 286 l 1,10,-1
 71 286 l 1,11,-1
 71 357 l 1,8,-1
EndSplineSet
EndChar

StartChar: less
Encoding: 60 60 27
Width: 357
Flags: W
LayerCount: 2
Fore
SplineSet
0 286 m 1,0,-1
 71 286 l 1,1,-1
 71 214 l 1,2,-1
 0 214 l 1,3,-1
 0 286 l 1,4,-1
 0 286 l 1,0,-1
143 357 m 1,5,-1
 143 286 l 1,6,-1
 71 286 l 1,7,-1
 71 357 l 1,8,-1
 143 357 l 1,9,-1
 143 357 l 1,5,-1
214 429 m 1,10,-1
 214 500 l 1,11,-1
 286 500 l 1,12,-1
 286 429 l 1,13,-1
 214 429 l 1,14,-1
 214 357 l 1,15,-1
 143 357 l 1,16,-1
 143 429 l 1,17,-1
 214 429 l 1,18,-1
 214 429 l 1,10,-1
71 214 m 1,19,-1
 143 214 l 1,20,-1
 143 143 l 1,21,-1
 71 143 l 1,22,-1
 71 214 l 1,23,-1
 71 214 l 1,19,-1
214 71 m 1,24,-1
 143 71 l 1,25,-1
 143 143 l 1,26,-1
 214 143 l 1,27,-1
 214 71 l 1,28,-1
 286 71 l 1,29,-1
 286 0 l 1,30,-1
 214 0 l 1,31,-1
 214 71 l 1,32,-1
 214 71 l 1,24,-1
EndSplineSet
EndChar

StartChar: equal
Encoding: 61 61 28
Width: 357
Flags: W
LayerCount: 2
Fore
SplineSet
0 71 m 1,0,-1
 0 143 l 1,1,-1
 286 143 l 1,2,-1
 286 71 l 1,3,-1
 0 71 l 1,0,-1
0 286 m 1,4,-1
 286 286 l 1,5,-1
 286 214 l 1,6,-1
 0 214 l 1,7,-1
 0 286 l 1,4,-1
EndSplineSet
EndChar

StartChar: greater
Encoding: 62 62 29
Width: 357
Flags: W
LayerCount: 2
Fore
SplineSet
286 286 m 1,0,-1
 286 214 l 1,1,-1
 214 214 l 1,2,-1
 214 286 l 1,3,-1
 286 286 l 1,0,-1
143 357 m 1,4,-1
 214 357 l 1,5,-1
 214 286 l 1,6,-1
 143 286 l 1,7,-1
 143 357 l 1,4,-1
71 429 m 1,8,-1
 143 429 l 1,9,-1
 143 357 l 1,10,-1
 71 357 l 1,11,-1
 71 429 l 1,12,-1
 0 429 l 1,13,-1
 0 500 l 1,14,-1
 71 500 l 1,15,-1
 71 429 l 1,8,-1
214 214 m 1,16,-1
 214 143 l 1,17,-1
 143 143 l 1,18,-1
 143 214 l 1,19,-1
 214 214 l 1,16,-1
71 71 m 1,20,-1
 71 0 l 1,21,-1
 0 0 l 1,22,-1
 0 71 l 1,23,-1
 71 71 l 1,24,-1
 71 143 l 1,25,-1
 143 143 l 1,26,-1
 143 71 l 1,27,-1
 71 71 l 1,20,-1
EndSplineSet
EndChar

StartChar: question
Encoding: 63 63 30
Width: 428
Flags: W
LayerCount: 2
Fore
SplineSet
143 -1 m 1,0,-1
 143 71 l 1,1,-1
 214 71 l 1,2,-1
 214 -1 l 1,3,-1
 143 -1 l 1,0,-1
143 142 m 1,4,-1
 143 213 l 1,5,-1
 214 213 l 1,6,-1
 214 142 l 1,7,-1
 143 142 l 1,4,-1
214 213 m 1,8,-1
 214 285 l 1,9,-1
 286 285 l 1,10,-1
 286 213 l 1,11,-1
 214 213 l 1,8,-1
286 428 m 1,12,-1
 357 428 l 1,13,-1
 357 285 l 1,14,-1
 286 285 l 1,15,-1
 286 428 l 1,12,-1
71 499 m 1,16,-1
 286 499 l 1,17,-1
 286 428 l 1,18,-1
 71 428 l 1,19,-1
 71 499 l 1,16,-1
0 356 m 1,20,-1
 0 428 l 1,21,-1
 71 428 l 1,22,-1
 71 356 l 1,23,-1
 0 356 l 1,20,-1
EndSplineSet
EndChar

StartChar: at
Encoding: 64 64 31
Width: 571
Flags: W
LayerCount: 2
Fore
SplineSet
143 143 m 1,0,-1
 214 143 l 1,1,-1
 214 71 l 1,2,-1
 143 71 l 1,3,-1
 143 143 l 1,0,-1
429 286 m 1,4,-1
 500 286 l 1,5,-1
 500 0 l 1,6,-1
 214 0 l 1,7,-1
 214 71 l 1,8,-1
 429 71 l 1,9,-1
 429 143 l 1,10,-1
 214 143 l 1,11,-1
 214 214 l 1,12,-1
 429 214 l 1,13,-1
 429 286 l 1,4,-1
71 357 m 1,14,-1
 429 357 l 1,15,-1
 429 286 l 1,16,-1
 71 286 l 1,17,-1
 71 357 l 1,14,-1
0 -71 m 1,18,-1
 0 286 l 1,19,-1
 71 286 l 1,20,-1
 71 -71 l 1,21,-1
 0 -71 l 1,18,-1
429 -143 m 1,22,-1
 71 -143 l 1,23,-1
 71 -71 l 1,24,-1
 429 -71 l 1,25,-1
 429 -143 l 1,22,-1
EndSplineSet
EndChar

StartChar: A
Encoding: 65 65 32
Width: 428
Flags: W
LayerCount: 2
Fore
SplineSet
286 500 m 1,0,-1
 286 429 l 1,1,-1
 71 429 l 1,2,-1
 71 500 l 1,3,-1
 286 500 l 1,0,-1
286 429 m 1,4,-1
 357 429 l 1,5,-1
 357 0 l 1,6,-1
 286 0 l 1,7,-1
 286 214 l 1,8,-1
 71 214 l 1,9,-1
 71 0 l 1,10,-1
 0 0 l 1,11,-1
 0 429 l 1,12,-1
 71 429 l 1,13,-1
 71 286 l 1,14,-1
 286 286 l 1,15,-1
 286 429 l 1,4,-1
EndSplineSet
EndChar

StartChar: B
Encoding: 66 66 33
Width: 428
Flags: W
LayerCount: 2
Fore
SplineSet
357 286 m 1,0,-1
 286 286 l 1,1,-1
 286 429 l 1,2,-1
 357 429 l 1,3,-1
 357 286 l 1,0,-1
71 286 m 1,4,-1
 286 286 l 1,5,-1
 286 214 l 1,6,-1
 71 214 l 1,7,-1
 71 71 l 1,8,-1
 286 71 l 1,9,-1
 286 0 l 1,10,-1
 0 0 l 1,11,-1
 0 500 l 1,12,-1
 286 500 l 1,13,-1
 286 429 l 1,14,-1
 71 429 l 1,15,-1
 71 286 l 1,4,-1
357 71 m 1,16,-1
 286 71 l 1,17,-1
 286 214 l 1,18,-1
 357 214 l 1,19,-1
 357 71 l 1,16,-1
EndSplineSet
EndChar

StartChar: C
Encoding: 67 67 34
Width: 428
Flags: W
LayerCount: 2
Fore
SplineSet
357 0 m 1,0,-1
 71 0 l 1,1,-1
 71 71 l 1,2,-1
 357 71 l 1,3,-1
 357 0 l 1,0,-1
0 429 m 1,4,-1
 71 429 l 1,5,-1
 71 71 l 1,6,-1
 0 71 l 1,7,-1
 0 429 l 1,4,-1
357 500 m 1,8,-1
 357 429 l 1,9,-1
 71 429 l 1,10,-1
 71 500 l 1,11,-1
 357 500 l 1,8,-1
EndSplineSet
EndChar

StartChar: D
Encoding: 68 68 35
Width: 428
Flags: W
LayerCount: 2
Fore
SplineSet
71 429 m 1,0,-1
 71 71 l 1,1,-1
 286 71 l 1,2,-1
 286 0 l 1,3,-1
 0 0 l 1,4,-1
 0 500 l 1,5,-1
 286 500 l 1,6,-1
 286 429 l 1,7,-1
 71 429 l 1,0,-1
286 429 m 1,8,-1
 357 429 l 1,9,-1
 357 71 l 1,10,-1
 286 71 l 1,11,-1
 286 429 l 1,8,-1
EndSplineSet
EndChar

StartChar: E
Encoding: 69 69 36
Width: 428
Flags: W
LayerCount: 2
Fore
SplineSet
357 429 m 1,0,-1
 71 429 l 1,1,-1
 71 286 l 1,2,-1
 357 286 l 1,3,-1
 357 214 l 1,4,-1
 71 214 l 1,5,-1
 71 71 l 1,6,-1
 357 71 l 1,7,-1
 357 0 l 1,8,-1
 0 0 l 1,9,-1
 0 500 l 1,10,-1
 357 500 l 1,11,-1
 357 429 l 1,12,-1
 357 429 l 1,0,-1
EndSplineSet
EndChar

StartChar: F
Encoding: 70 70 37
Width: 428
Flags: W
LayerCount: 2
Fore
SplineSet
357 429 m 1,0,-1
 71 429 l 1,1,-1
 71 286 l 1,2,-1
 357 286 l 1,3,-1
 357 214 l 1,4,-1
 71 214 l 1,5,-1
 71 0 l 1,6,-1
 0 0 l 1,7,-1
 0 500 l 1,8,-1
 357 500 l 1,9,-1
 357 429 l 1,10,-1
 357 429 l 1,0,-1
EndSplineSet
EndChar

StartChar: G
Encoding: 71 71 38
Width: 428
Flags: W
LayerCount: 2
Fore
SplineSet
357 0 m 1,0,-1
 71 0 l 1,1,-1
 71 71 l 1,2,-1
 286 71 l 1,3,-1
 286 286 l 1,4,-1
 357 286 l 1,5,-1
 357 0 l 1,0,-1
0 429 m 1,6,-1
 71 429 l 1,7,-1
 71 71 l 1,8,-1
 0 71 l 1,9,-1
 0 429 l 1,6,-1
357 500 m 1,10,-1
 357 429 l 1,11,-1
 71 429 l 1,12,-1
 71 500 l 1,13,-1
 357 500 l 1,10,-1
EndSplineSet
EndChar

StartChar: H
Encoding: 72 72 39
Width: 428
Flags: W
LayerCount: 2
Fore
SplineSet
286 500 m 1,0,-1
 357 500 l 1,1,-1
 357 0 l 1,2,-1
 286 0 l 1,3,-1
 286 214 l 1,4,-1
 71 214 l 1,5,-1
 71 0 l 1,6,-1
 0 0 l 1,7,-1
 0 500 l 1,8,-1
 71 500 l 1,9,-1
 71 286 l 1,10,-1
 286 286 l 1,11,-1
 286 500 l 1,12,-1
 286 500 l 1,0,-1
EndSplineSet
EndChar

StartChar: I
Encoding: 73 73 40
Width: 285
Flags: W
LayerCount: 2
Fore
SplineSet
214 429 m 1,0,-1
 143 429 l 1,1,-1
 143 71 l 1,2,-1
 214 71 l 1,3,-1
 214 0 l 1,4,-1
 0 0 l 1,5,-1
 0 71 l 1,6,-1
 71 71 l 1,7,-1
 71 429 l 1,8,-1
 0 429 l 1,9,-1
 0 500 l 1,10,-1
 214 500 l 1,11,-1
 214 429 l 1,12,-1
 214 429 l 1,0,-1
EndSplineSet
EndChar

StartChar: J
Encoding: 74 74 41
Width: 428
Flags: W
LayerCount: 2
Fore
SplineSet
0 214 m 1,0,-1
 71 214 l 1,1,-1
 71 71 l 1,2,-1
 0 71 l 1,3,-1
 0 214 l 1,0,-1
71 0 m 1,4,-1
 71 71 l 1,5,-1
 286 71 l 1,6,-1
 286 0 l 1,7,-1
 71 0 l 1,4,-1
143 500 m 1,8,-1
 357 500 l 1,9,-1
 357 71 l 1,10,-1
 286 71 l 1,11,-1
 286 429 l 1,12,-1
 143 429 l 1,13,-1
 143 500 l 1,8,-1
EndSplineSet
EndChar

StartChar: K
Encoding: 75 75 42
Width: 428
Flags: W
LayerCount: 2
Fore
SplineSet
71 286 m 1,0,-1
 143 286 l 1,1,-1
 143 214 l 1,2,-1
 71 214 l 1,3,-1
 71 0 l 1,4,-1
 0 0 l 1,5,-1
 0 500 l 1,6,-1
 71 500 l 1,7,-1
 71 286 l 1,0,-1
214 357 m 1,8,-1
 214 286 l 1,9,-1
 143 286 l 1,10,-1
 143 357 l 1,11,-1
 214 357 l 1,8,-1
286 429 m 1,12,-1
 286 357 l 1,13,-1
 214 357 l 1,14,-1
 214 429 l 1,15,-1
 286 429 l 1,12,-1
357 500 m 1,16,-1
 357 429 l 1,17,-1
 286 429 l 1,18,-1
 286 500 l 1,19,-1
 357 500 l 1,16,-1
214 143 m 1,20,-1
 143 143 l 1,21,-1
 143 214 l 1,22,-1
 214 214 l 1,23,-1
 214 143 l 1,20,-1
286 71 m 1,24,-1
 214 71 l 1,25,-1
 214 143 l 1,26,-1
 286 143 l 1,27,-1
 286 71 l 1,24,-1
357 0 m 1,28,-1
 286 0 l 1,29,-1
 286 71 l 1,30,-1
 357 71 l 1,31,-1
 357 0 l 1,28,-1
EndSplineSet
EndChar

StartChar: L
Encoding: 76 76 43
Width: 428
Flags: W
LayerCount: 2
Fore
SplineSet
71 71 m 1,0,-1
 357 71 l 1,1,-1
 357 0 l 1,2,-1
 0 0 l 1,3,-1
 0 500 l 1,4,-1
 71 500 l 1,5,-1
 71 71 l 1,6,-1
 71 71 l 1,0,-1
EndSplineSet
EndChar

StartChar: M
Encoding: 77 77 44
Width: 571
Flags: W
LayerCount: 2
Fore
SplineSet
71 429 m 1,0,-1
 143 429 l 1,1,-1
 143 357 l 1,2,-1
 71 357 l 1,3,-1
 71 0 l 1,4,-1
 0 0 l 1,5,-1
 0 500 l 1,6,-1
 71 500 l 1,7,-1
 71 429 l 1,0,-1
143 357 m 1,8,-1
 214 357 l 1,9,-1
 214 286 l 1,10,-1
 143 286 l 1,11,-1
 143 357 l 1,8,-1
214 214 m 1,12,-1
 214 286 l 1,13,-1
 286 286 l 1,14,-1
 286 214 l 1,15,-1
 214 214 l 1,12,-1
286 286 m 1,16,-1
 286 357 l 1,17,-1
 357 357 l 1,18,-1
 357 286 l 1,19,-1
 286 286 l 1,16,-1
429 500 m 1,20,-1
 500 500 l 1,21,-1
 500 0 l 1,22,-1
 429 0 l 1,23,-1
 429 357 l 1,24,-1
 357 357 l 1,25,-1
 357 429 l 1,26,-1
 429 429 l 1,27,-1
 429 500 l 1,20,-1
EndSplineSet
EndChar

StartChar: N
Encoding: 78 78 45
Width: 428
Flags: W
LayerCount: 2
Fore
SplineSet
71 357 m 1,0,-1
 143 357 l 1,1,-1
 143 286 l 1,2,-1
 71 286 l 1,3,-1
 71 0 l 1,4,-1
 0 0 l 1,5,-1
 0 500 l 1,6,-1
 71 500 l 1,7,-1
 71 357 l 1,0,-1
143 286 m 1,8,-1
 214 286 l 1,9,-1
 214 214 l 1,10,-1
 143 214 l 1,11,-1
 143 286 l 1,8,-1
286 500 m 1,12,-1
 357 500 l 1,13,-1
 357 0 l 1,14,-1
 286 0 l 1,15,-1
 286 143 l 1,16,-1
 214 143 l 1,17,-1
 214 214 l 1,18,-1
 286 214 l 1,19,-1
 286 500 l 1,12,-1
EndSplineSet
EndChar

StartChar: O
Encoding: 79 79 46
Width: 428
Flags: W
LayerCount: 2
Fore
SplineSet
71 0 m 1,0,-1
 71 71 l 1,1,-1
 286 71 l 1,2,-1
 286 0 l 1,3,-1
 71 0 l 1,0,-1
0 429 m 1,4,-1
 71 429 l 1,5,-1
 71 71 l 1,6,-1
 0 71 l 1,7,-1
 0 429 l 1,4,-1
286 500 m 1,8,-1
 286 429 l 1,9,-1
 71 429 l 1,10,-1
 71 500 l 1,11,-1
 286 500 l 1,8,-1
286 429 m 1,12,-1
 357 429 l 1,13,-1
 357 71 l 1,14,-1
 286 71 l 1,15,-1
 286 429 l 1,12,-1
EndSplineSet
EndChar

StartChar: P
Encoding: 80 80 47
Width: 428
Flags: W
LayerCount: 2
Fore
SplineSet
71 429 m 1,0,-1
 71 286 l 1,1,-1
 286 286 l 1,2,-1
 286 214 l 1,3,-1
 71 214 l 1,4,-1
 71 0 l 1,5,-1
 0 0 l 1,6,-1
 0 500 l 1,7,-1
 286 500 l 1,8,-1
 286 429 l 1,9,-1
 71 429 l 1,0,-1
286 429 m 1,10,-1
 357 429 l 1,11,-1
 357 286 l 1,12,-1
 286 286 l 1,13,-1
 286 429 l 1,10,-1
EndSplineSet
EndChar

StartChar: Q
Encoding: 81 81 48
Width: 428
Flags: W
LayerCount: 2
Fore
SplineSet
286 500 m 1,0,-1
 286 429 l 1,1,-1
 71 429 l 1,2,-1
 71 500 l 1,3,-1
 286 500 l 1,0,-1
0 429 m 1,4,-1
 71 429 l 1,5,-1
 71 71 l 1,6,-1
 0 71 l 1,7,-1
 0 429 l 1,4,-1
71 71 m 1,8,-1
 286 71 l 1,9,-1
 286 0 l 1,10,-1
 357 0 l 1,11,-1
 357 -71 l 1,12,-1
 286 -71 l 1,13,-1
 286 0 l 1,14,-1
 71 0 l 1,15,-1
 71 71 l 1,8,-1
357 71 m 1,16,-1
 286 71 l 1,17,-1
 286 429 l 1,18,-1
 357 429 l 1,19,-1
 357 71 l 1,16,-1
EndSplineSet
EndChar

StartChar: R
Encoding: 82 82 49
Width: 428
Flags: W
LayerCount: 2
Fore
SplineSet
357 286 m 1,0,-1
 286 286 l 1,1,-1
 286 429 l 1,2,-1
 357 429 l 1,3,-1
 357 286 l 1,0,-1
71 286 m 1,4,-1
 286 286 l 1,5,-1
 286 214 l 1,6,-1
 357 214 l 1,7,-1
 357 0 l 1,8,-1
 286 0 l 1,9,-1
 286 214 l 1,10,-1
 71 214 l 1,11,-1
 71 0 l 1,12,-1
 0 0 l 1,13,-1
 0 500 l 1,14,-1
 286 500 l 1,15,-1
 286 429 l 1,16,-1
 71 429 l 1,17,-1
 71 286 l 1,4,-1
EndSplineSet
EndChar

StartChar: S
Encoding: 83 83 50
Width: 428
Flags: W
LayerCount: 2
Fore
SplineSet
0 0 m 1,0,-1
 0 71 l 1,1,-1
 286 71 l 1,2,-1
 286 0 l 1,3,-1
 0 0 l 1,0,-1
357 71 m 1,4,-1
 286 71 l 1,5,-1
 286 214 l 1,6,-1
 357 214 l 1,7,-1
 357 71 l 1,4,-1
286 214 m 1,8,-1
 71 214 l 1,9,-1
 71 286 l 1,10,-1
 286 286 l 1,11,-1
 286 214 l 1,8,-1
0 429 m 1,12,-1
 71 429 l 1,13,-1
 71 286 l 1,14,-1
 0 286 l 1,15,-1
 0 429 l 1,12,-1
357 500 m 1,16,-1
 357 429 l 1,17,-1
 71 429 l 1,18,-1
 71 500 l 1,19,-1
 357 500 l 1,16,-1
EndSplineSet
EndChar

StartChar: T
Encoding: 84 84 51
Width: 428
Flags: W
LayerCount: 2
Fore
SplineSet
357 500 m 1,0,-1
 357 429 l 1,1,-1
 214 429 l 1,2,-1
 214 0 l 1,3,-1
 143 0 l 1,4,-1
 143 429 l 1,5,-1
 0 429 l 1,6,-1
 0 500 l 1,7,-1
 357 500 l 1,8,-1
 357 500 l 1,0,-1
EndSplineSet
EndChar

StartChar: U
Encoding: 85 85 52
Width: 428
Flags: W
LayerCount: 2
Fore
SplineSet
71 0 m 1,0,-1
 71 71 l 1,1,-1
 286 71 l 1,2,-1
 286 0 l 1,3,-1
 71 0 l 1,0,-1
0 500 m 1,4,-1
 71 500 l 1,5,-1
 71 71 l 1,6,-1
 0 71 l 1,7,-1
 0 500 l 1,4,-1
286 500 m 1,8,-1
 357 500 l 1,9,-1
 357 71 l 1,10,-1
 286 71 l 1,11,-1
 286 500 l 1,8,-1
EndSplineSet
EndChar

StartChar: V
Encoding: 86 86 53
Width: 428
Flags: W
LayerCount: 2
Fore
SplineSet
143 143 m 1,0,-1
 143 71 l 1,1,-1
 214 71 l 1,2,-1
 214 0 l 1,3,-1
 143 0 l 1,4,-1
 143 71 l 1,5,-1
 71 71 l 1,6,-1
 71 143 l 1,7,-1
 143 143 l 1,0,-1
214 71 m 1,8,-1
 214 143 l 1,9,-1
 286 143 l 1,10,-1
 286 71 l 1,11,-1
 214 71 l 1,8,-1
0 500 m 1,12,-1
 71 500 l 1,13,-1
 71 143 l 1,14,-1
 0 143 l 1,15,-1
 0 500 l 1,12,-1
286 500 m 1,16,-1
 357 500 l 1,17,-1
 357 143 l 1,18,-1
 286 143 l 1,19,-1
 286 500 l 1,16,-1
EndSplineSet
EndChar

StartChar: W
Encoding: 87 87 54
Width: 571
Flags: W
LayerCount: 2
Fore
SplineSet
0 500 m 1,0,-1
 71 500 l 1,1,-1
 71 71 l 1,2,-1
 0 71 l 1,3,-1
 0 500 l 1,0,-1
71 0 m 1,4,-1
 71 71 l 1,5,-1
 143 71 l 1,6,-1
 143 0 l 1,7,-1
 71 0 l 1,4,-1
143 71 m 1,8,-1
 143 143 l 1,9,-1
 214 143 l 1,10,-1
 214 71 l 1,11,-1
 143 71 l 1,8,-1
214 214 m 1,12,-1
 286 214 l 1,13,-1
 286 143 l 1,14,-1
 214 143 l 1,15,-1
 214 214 l 1,12,-1
286 143 m 1,16,-1
 357 143 l 1,17,-1
 357 71 l 1,18,-1
 286 71 l 1,19,-1
 286 143 l 1,16,-1
357 0 m 1,20,-1
 357 71 l 1,21,-1
 429 71 l 1,22,-1
 429 0 l 1,23,-1
 357 0 l 1,20,-1
429 500 m 1,24,-1
 500 500 l 1,25,-1
 500 71 l 1,26,-1
 429 71 l 1,27,-1
 429 500 l 1,24,-1
EndSplineSet
EndChar

StartChar: X
Encoding: 88 88 55
Width: 428
Flags: W
LayerCount: 2
Fore
SplineSet
0 0 m 1,0,-1
 0 143 l 1,1,-1
 71 143 l 1,2,-1
 71 0 l 1,3,-1
 0 0 l 1,0,-1
71 143 m 1,4,-1
 71 214 l 1,5,-1
 143 214 l 1,6,-1
 143 143 l 1,7,-1
 71 143 l 1,4,-1
143 286 m 1,8,-1
 214 286 l 1,9,-1
 214 214 l 1,10,-1
 143 214 l 1,11,-1
 143 286 l 1,8,-1
286 143 m 1,12,-1
 214 143 l 1,13,-1
 214 214 l 1,14,-1
 286 214 l 1,15,-1
 286 143 l 1,12,-1
357 0 m 1,16,-1
 286 0 l 1,17,-1
 286 143 l 1,18,-1
 357 143 l 1,19,-1
 357 0 l 1,16,-1
71 357 m 1,20,-1
 143 357 l 1,21,-1
 143 286 l 1,22,-1
 71 286 l 1,23,-1
 71 357 l 1,20,-1
0 500 m 1,24,-1
 71 500 l 1,25,-1
 71 357 l 1,26,-1
 0 357 l 1,27,-1
 0 500 l 1,24,-1
286 357 m 1,28,-1
 286 286 l 1,29,-1
 214 286 l 1,30,-1
 214 357 l 1,31,-1
 286 357 l 1,28,-1
357 500 m 1,32,-1
 357 357 l 1,33,-1
 286 357 l 1,34,-1
 286 500 l 1,35,-1
 357 500 l 1,32,-1
EndSplineSet
EndChar

StartChar: Y
Encoding: 89 89 56
Width: 428
Flags: W
LayerCount: 2
Fore
SplineSet
143 0 m 1,0,-1
 143 214 l 1,1,-1
 214 214 l 1,2,-1
 214 0 l 1,3,-1
 143 0 l 1,0,-1
71 286 m 1,4,-1
 143 286 l 1,5,-1
 143 214 l 1,6,-1
 71 214 l 1,7,-1
 71 286 l 1,4,-1
0 500 m 1,8,-1
 71 500 l 1,9,-1
 71 286 l 1,10,-1
 0 286 l 1,11,-1
 0 500 l 1,8,-1
214 214 m 1,12,-1
 214 286 l 1,13,-1
 286 286 l 1,14,-1
 286 214 l 1,15,-1
 214 214 l 1,12,-1
286 500 m 1,16,-1
 357 500 l 1,17,-1
 357 286 l 1,18,-1
 286 286 l 1,19,-1
 286 500 l 1,16,-1
EndSplineSet
EndChar

StartChar: Z
Encoding: 90 90 57
Width: 428
Flags: W
LayerCount: 2
Fore
SplineSet
0 0 m 1,0,-1
 0 143 l 1,1,-1
 71 143 l 1,2,-1
 71 71 l 1,3,-1
 357 71 l 1,4,-1
 357 0 l 1,5,-1
 0 0 l 1,0,-1
71 143 m 1,6,-1
 71 214 l 1,7,-1
 143 214 l 1,8,-1
 143 143 l 1,9,-1
 71 143 l 1,6,-1
143 214 m 1,10,-1
 143 286 l 1,11,-1
 214 286 l 1,12,-1
 214 214 l 1,13,-1
 143 214 l 1,10,-1
214 286 m 1,14,-1
 214 357 l 1,15,-1
 286 357 l 1,16,-1
 286 286 l 1,17,-1
 214 286 l 1,14,-1
0 500 m 1,18,-1
 357 500 l 1,19,-1
 357 357 l 1,20,-1
 286 357 l 1,21,-1
 286 429 l 1,22,-1
 0 429 l 1,23,-1
 0 500 l 1,18,-1
EndSplineSet
EndChar

StartChar: bracketleft
Encoding: 91 91 58
Width: 214
Flags: W
LayerCount: 2
Fore
SplineSet
143 -71 m 1,0,-1
 0 -71 l 1,1,-1
 0 571 l 1,2,-1
 143 571 l 1,3,-1
 143 500 l 1,4,-1
 71 500 l 1,5,-1
 71 0 l 1,6,-1
 143 0 l 1,7,-1
 143 -71 l 1,8,-1
 143 -71 l 1,0,-1
EndSplineSet
EndChar

StartChar: backslash
Encoding: 92 92 59
Width: 642
Flags: W
LayerCount: 2
Fore
SplineSet
571 -71 m 1,0,-1
 500 -71 l 1,1,-1
 500 0 l 1,2,-1
 571 0 l 1,3,-1
 571 -71 l 1,4,-1
 571 -71 l 1,0,-1
500 0 m 1,5,-1
 429 0 l 1,6,-1
 429 71 l 1,7,-1
 500 71 l 1,8,-1
 500 0 l 1,9,-1
 500 0 l 1,5,-1
429 71 m 1,10,-1
 357 71 l 1,11,-1
 357 143 l 1,12,-1
 429 143 l 1,13,-1
 429 71 l 1,14,-1
 429 71 l 1,10,-1
357 143 m 1,15,-1
 286 143 l 1,16,-1
 286 214 l 1,17,-1
 357 214 l 1,18,-1
 357 143 l 1,19,-1
 357 143 l 1,15,-1
286 214 m 1,20,-1
 214 214 l 1,21,-1
 214 286 l 1,22,-1
 286 286 l 1,23,-1
 286 214 l 1,24,-1
 286 214 l 1,20,-1
214 286 m 1,25,-1
 143 286 l 1,26,-1
 143 357 l 1,27,-1
 214 357 l 1,28,-1
 214 286 l 1,29,-1
 214 286 l 1,25,-1
143 357 m 1,30,-1
 71 357 l 1,31,-1
 71 429 l 1,32,-1
 143 429 l 1,33,-1
 143 357 l 1,34,-1
 143 357 l 1,30,-1
71 500 m 1,35,-1
 71 429 l 1,36,-1
 0 429 l 1,37,-1
 0 500 l 1,38,-1
 71 500 l 1,39,-1
 71 500 l 1,35,-1
EndSplineSet
EndChar

StartChar: bracketright
Encoding: 93 93 60
Width: 214
Flags: W
LayerCount: 2
Fore
SplineSet
0 -71 m 1,0,-1
 0 0 l 1,1,-1
 72 0 l 1,2,-1
 72 500 l 1,3,-1
 0 500 l 1,4,-1
 0 571 l 1,5,-1
 143 571 l 1,6,-1
 143 -71 l 1,7,-1
 0 -71 l 1,8,-1
 0 -71 l 1,0,-1
EndSplineSet
EndChar

StartChar: asciicircum
Encoding: 94 94 61
Width: 428
Flags: W
LayerCount: 2
Fore
SplineSet
143 500 m 1,0,-1
 214 500 l 1,1,-1
 214 429 l 1,2,-1
 143 429 l 1,3,-1
 143 500 l 1,0,-1
71 357 m 1,4,-1
 71 429 l 1,5,-1
 143 429 l 1,6,-1
 143 357 l 1,7,-1
 71 357 l 1,4,-1
214 429 m 1,8,-1
 286 429 l 1,9,-1
 286 357 l 1,10,-1
 214 357 l 1,11,-1
 214 429 l 1,8,-1
0 286 m 1,12,-1
 0 357 l 1,13,-1
 71 357 l 1,14,-1
 71 286 l 1,15,-1
 0 286 l 1,12,-1
286 357 m 1,16,-1
 357 357 l 1,17,-1
 357 286 l 1,18,-1
 286 286 l 1,19,-1
 286 357 l 1,16,-1
EndSplineSet
EndChar

StartChar: underscore
Encoding: 95 95 62
Width: 571
Flags: W
LayerCount: 2
Fore
SplineSet
500 0 m 1,0,-1
 0 0 l 1,1,-1
 0 71 l 1,2,-1
 500 71 l 1,3,-1
 500 0 l 1,4,-1
 500 0 l 1,0,-1
EndSplineSet
EndChar

StartChar: grave
Encoding: 96 96 63
Width: 214
Flags: W
LayerCount: 2
Fore
SplineSet
71 643 m 1,0,-1
 143 643 l 1,1,-1
 143 571 l 1,2,-1
 71 571 l 1,3,-1
 71 643 l 1,0,-1
0 714 m 1,4,-1
 71 714 l 1,5,-1
 71 643 l 1,6,-1
 0 643 l 1,7,-1
 0 714 l 1,4,-1
EndSplineSet
EndChar

StartChar: a
Encoding: 97 97 64
Width: 428
Flags: W
LayerCount: 2
Fore
SplineSet
0 143 m 1,0,-1
 71 143 l 1,1,-1
 71 71 l 1,2,-1
 0 71 l 1,3,-1
 0 143 l 1,0,-1
286 286 m 1,4,-1
 357 286 l 1,5,-1
 357 0 l 1,6,-1
 71 0 l 1,7,-1
 71 71 l 1,8,-1
 286 71 l 1,9,-1
 286 143 l 1,10,-1
 71 143 l 1,11,-1
 71 214 l 1,12,-1
 286 214 l 1,13,-1
 286 286 l 1,4,-1
71 357 m 1,14,-1
 286 357 l 1,15,-1
 286 286 l 1,16,-1
 71 286 l 1,17,-1
 71 357 l 1,14,-1
EndSplineSet
EndChar

StartChar: b
Encoding: 98 98 65
Width: 428
Flags: W
LayerCount: 2
Fore
SplineSet
71 286 m 1,0,-1
 71 71 l 1,1,-1
 286 71 l 1,2,-1
 286 0 l 1,3,-1
 0 0 l 1,4,-1
 0 500 l 1,5,-1
 71 500 l 1,6,-1
 71 357 l 1,7,-1
 286 357 l 1,8,-1
 286 286 l 1,9,-1
 71 286 l 1,0,-1
286 286 m 1,10,-1
 357 286 l 1,11,-1
 357 71 l 1,12,-1
 286 71 l 1,13,-1
 286 286 l 1,10,-1
EndSplineSet
EndChar

StartChar: c
Encoding: 99 99 66
Width: 428
Flags: W
LayerCount: 2
Fore
SplineSet
0 286 m 1,0,-1
 71 286 l 1,1,-1
 71 71 l 1,2,-1
 0 71 l 1,3,-1
 0 286 l 1,0,-1
357 357 m 1,4,-1
 357 286 l 1,5,-1
 71 286 l 1,6,-1
 71 357 l 1,7,-1
 357 357 l 1,4,-1
357 0 m 1,8,-1
 71 0 l 1,9,-1
 71 71 l 1,10,-1
 357 71 l 1,11,-1
 357 0 l 1,8,-1
EndSplineSet
EndChar

StartChar: d
Encoding: 100 100 67
Width: 428
Flags: W
LayerCount: 2
Fore
SplineSet
286 286 m 1,0,-1
 71 286 l 1,1,-1
 71 357 l 1,2,-1
 286 357 l 1,3,-1
 286 500 l 1,4,-1
 357 500 l 1,5,-1
 357 0 l 1,6,-1
 71 0 l 1,7,-1
 71 71 l 1,8,-1
 286 71 l 1,9,-1
 286 286 l 1,10,-1
 286 286 l 1,0,-1
71 286 m 1,11,-1
 71 71 l 1,12,-1
 0 71 l 1,13,-1
 0 286 l 1,14,-1
 71 286 l 1,15,-1
 71 286 l 1,11,-1
EndSplineSet
EndChar

StartChar: e
Encoding: 101 101 68
Width: 428
Flags: W
LayerCount: 2
Fore
SplineSet
286 286 m 1,0,-1
 71 286 l 1,1,-1
 71 357 l 1,2,-1
 286 357 l 1,3,-1
 286 286 l 1,0,-1
357 286 m 1,4,-1
 357 143 l 1,5,-1
 71 143 l 1,6,-1
 71 71 l 1,7,-1
 0 71 l 1,8,-1
 0 286 l 1,9,-1
 71 286 l 1,10,-1
 71 214 l 1,11,-1
 286 214 l 1,12,-1
 286 286 l 1,13,-1
 357 286 l 1,4,-1
71 0 m 1,14,-1
 71 71 l 1,15,-1
 357 71 l 1,16,-1
 357 0 l 1,17,-1
 71 0 l 1,14,-1
EndSplineSet
EndChar

StartChar: f
Encoding: 102 102 69
Width: 357
Flags: W
LayerCount: 2
Fore
SplineSet
0 0 m 1,0,-1
 0 429 l 1,1,-1
 71 429 l 1,2,-1
 71 286 l 1,3,-1
 214 286 l 1,4,-1
 214 214 l 1,5,-1
 71 214 l 1,6,-1
 71 0 l 1,7,-1
 0 0 l 1,0,-1
71 500 m 1,8,-1
 214 500 l 1,9,-1
 214 429 l 1,10,-1
 71 429 l 1,11,-1
 71 500 l 1,8,-1
214 429 m 1,12,-1
 286 429 l 1,13,-1
 286 357 l 1,14,-1
 214 357 l 1,15,-1
 214 429 l 1,12,-1
EndSplineSet
EndChar

StartChar: g
Encoding: 103 103 70
Width: 428
Flags: W
LayerCount: 2
Fore
SplineSet
0 286 m 1,0,-1
 71 286 l 1,1,-1
 71 71 l 1,2,-1
 0 71 l 1,3,-1
 0 286 l 1,0,-1
71 357 m 1,4,-1
 357 357 l 1,5,-1
 357 -71 l 1,6,-1
 286 -71 l 1,7,-1
 286 0 l 1,8,-1
 71 0 l 1,9,-1
 71 71 l 1,10,-1
 286 71 l 1,11,-1
 286 286 l 1,12,-1
 71 286 l 1,13,-1
 71 357 l 1,4,-1
71 -143 m 1,14,-1
 71 -71 l 1,15,-1
 286 -71 l 1,16,-1
 286 -143 l 1,17,-1
 71 -143 l 1,14,-1
EndSplineSet
EndChar

StartChar: h
Encoding: 104 104 71
Width: 428
Flags: W
LayerCount: 2
Fore
SplineSet
71 286 m 1,0,-1
 71 0 l 1,1,-1
 0 0 l 1,2,-1
 0 500 l 1,3,-1
 71 500 l 1,4,-1
 71 357 l 1,5,-1
 286 357 l 1,6,-1
 286 286 l 1,7,-1
 71 286 l 1,0,-1
286 286 m 1,8,-1
 357 286 l 1,9,-1
 357 0 l 1,10,-1
 286 0 l 1,11,-1
 286 286 l 1,8,-1
EndSplineSet
EndChar

StartChar: i
Encoding: 105 105 72
Width: 142
Flags: W
LayerCount: 2
Fore
SplineSet
0 0 m 1,0,-1
 0 357 l 1,1,-1
 71 357 l 1,2,-1
 71 0 l 1,3,-1
 0 0 l 1,0,-1
0 500 m 1,4,-1
 71 500 l 1,5,-1
 71 429 l 1,6,-1
 0 429 l 1,7,-1
 0 500 l 1,4,-1
EndSplineSet
EndChar

StartChar: j
Encoding: 106 106 73
Width: 214
Flags: W
LayerCount: 2
Fore
SplineSet
71 0 m 1,0,-1
 71 357 l 1,1,-1
 143 357 l 1,2,-1
 143 0 l 1,3,-1
 71 0 l 1,4,-1
 71 -71 l 1,5,-1
 0 -71 l 1,6,-1
 0 0 l 1,7,-1
 71 0 l 1,0,-1
71 500 m 1,8,-1
 143 500 l 1,9,-1
 143 429 l 1,10,-1
 71 429 l 1,11,-1
 71 500 l 1,8,-1
EndSplineSet
EndChar

StartChar: k
Encoding: 107 107 74
Width: 357
Flags: W
LayerCount: 2
Fore
SplineSet
71 214 m 1,0,-1
 143 214 l 1,1,-1
 143 143 l 1,2,-1
 71 143 l 1,3,-1
 71 0 l 1,4,-1
 0 0 l 1,5,-1
 0 500 l 1,6,-1
 71 500 l 1,7,-1
 71 214 l 1,0,-1
214 71 m 1,8,-1
 143 71 l 1,9,-1
 143 143 l 1,10,-1
 214 143 l 1,11,-1
 214 71 l 1,8,-1
286 0 m 1,12,-1
 214 0 l 1,13,-1
 214 71 l 1,14,-1
 286 71 l 1,15,-1
 286 0 l 1,12,-1
214 286 m 1,16,-1
 214 214 l 1,17,-1
 143 214 l 1,18,-1
 143 286 l 1,19,-1
 214 286 l 1,16,-1
286 357 m 1,20,-1
 286 286 l 1,21,-1
 214 286 l 1,22,-1
 214 357 l 1,23,-1
 286 357 l 1,20,-1
EndSplineSet
EndChar

StartChar: l
Encoding: 108 108 75
Width: 214
Flags: W
LayerCount: 2
Fore
SplineSet
71 71 m 1,0,-1
 143 71 l 1,1,-1
 143 0 l 1,2,-1
 71 0 l 1,3,-1
 71 71 l 1,0,-1
0 500 m 1,4,-1
 71 500 l 1,5,-1
 71 71 l 1,6,-1
 0 71 l 1,7,-1
 0 500 l 1,4,-1
EndSplineSet
EndChar

StartChar: m
Encoding: 109 109 76
Width: 571
Flags: W
LayerCount: 2
Fore
SplineSet
429 286 m 1,0,-1
 500 286 l 1,1,-1
 500 0 l 1,2,-1
 429 0 l 1,3,-1
 429 286 l 1,0,-1
0 357 m 1,4,-1
 429 357 l 1,5,-1
 429 286 l 1,6,-1
 286 286 l 1,7,-1
 286 0 l 1,8,-1
 214 0 l 1,9,-1
 214 286 l 1,10,-1
 71 286 l 1,11,-1
 71 0 l 1,12,-1
 0 0 l 1,13,-1
 0 357 l 1,4,-1
EndSplineSet
EndChar

StartChar: n
Encoding: 110 110 77
Width: 428
Flags: W
LayerCount: 2
Fore
SplineSet
286 286 m 1,0,-1
 357 286 l 1,1,-1
 357 0 l 1,2,-1
 286 0 l 1,3,-1
 286 286 l 1,0,-1
286 286 m 1,4,-1
 71 286 l 1,5,-1
 71 0 l 1,6,-1
 0 0 l 1,7,-1
 0 357 l 1,8,-1
 286 357 l 1,9,-1
 286 286 l 1,4,-1
EndSplineSet
EndChar

StartChar: o
Encoding: 111 111 78
Width: 428
Flags: W
LayerCount: 2
Fore
SplineSet
0 286 m 1,0,-1
 71 286 l 1,1,-1
 71 71 l 1,2,-1
 0 71 l 1,3,-1
 0 286 l 1,0,-1
71 0 m 1,4,-1
 71 71 l 1,5,-1
 286 71 l 1,6,-1
 286 0 l 1,7,-1
 71 0 l 1,4,-1
286 286 m 1,8,-1
 357 286 l 1,9,-1
 357 71 l 1,10,-1
 286 71 l 1,11,-1
 286 286 l 1,8,-1
286 357 m 1,12,-1
 286 286 l 1,13,-1
 71 286 l 1,14,-1
 71 357 l 1,15,-1
 286 357 l 1,12,-1
EndSplineSet
EndChar

StartChar: p
Encoding: 112 112 79
Width: 428
Flags: W
LayerCount: 2
Fore
SplineSet
71 286 m 1,0,-1
 71 71 l 1,1,-1
 286 71 l 1,2,-1
 286 0 l 1,3,-1
 71 0 l 1,4,-1
 71 -143 l 1,5,-1
 0 -143 l 1,6,-1
 0 357 l 1,7,-1
 286 357 l 1,8,-1
 286 286 l 1,9,-1
 71 286 l 1,0,-1
286 286 m 1,10,-1
 357 286 l 1,11,-1
 357 71 l 1,12,-1
 286 71 l 1,13,-1
 286 286 l 1,10,-1
EndSplineSet
EndChar

StartChar: q
Encoding: 113 113 80
Width: 428
Flags: W
LayerCount: 2
Fore
SplineSet
286 286 m 1,0,-1
 71 286 l 1,1,-1
 71 357 l 1,2,-1
 357 357 l 1,3,-1
 357 -143 l 1,4,-1
 286 -143 l 1,5,-1
 286 0 l 1,6,-1
 71 0 l 1,7,-1
 71 71 l 1,8,-1
 286 71 l 1,9,-1
 286 286 l 1,10,-1
 286 286 l 1,0,-1
71 286 m 1,11,-1
 71 71 l 1,12,-1
 0 71 l 1,13,-1
 0 286 l 1,14,-1
 71 286 l 1,15,-1
 71 286 l 1,11,-1
EndSplineSet
EndChar

StartChar: r
Encoding: 114 114 81
Width: 285
Flags: W
LayerCount: 2
Fore
SplineSet
0 0 m 1,0,-1
 0 286 l 1,1,-1
 71 286 l 1,2,-1
 71 0 l 1,3,-1
 0 0 l 1,0,-1
71 357 m 1,4,-1
 214 357 l 1,5,-1
 214 286 l 1,6,-1
 71 286 l 1,7,-1
 71 357 l 1,4,-1
EndSplineSet
EndChar

StartChar: s
Encoding: 115 115 82
Width: 428
Flags: W
LayerCount: 2
Fore
SplineSet
0 71 m 1,0,-1
 286 71 l 1,1,-1
 286 0 l 1,2,-1
 0 0 l 1,3,-1
 0 71 l 1,0,-1
286 71 m 1,4,-1
 286 143 l 1,5,-1
 357 143 l 1,6,-1
 357 71 l 1,7,-1
 286 71 l 1,4,-1
71 143 m 1,8,-1
 71 214 l 1,9,-1
 286 214 l 1,10,-1
 286 143 l 1,11,-1
 71 143 l 1,8,-1
71 286 m 1,12,-1
 71 214 l 1,13,-1
 0 214 l 1,14,-1
 0 286 l 1,15,-1
 71 286 l 1,12,-1
357 286 m 1,16,-1
 71 286 l 1,17,-1
 71 357 l 1,18,-1
 357 357 l 1,19,-1
 357 286 l 1,16,-1
EndSplineSet
EndChar

StartChar: t
Encoding: 116 116 83
Width: 285
Flags: W
LayerCount: 2
Fore
SplineSet
214 0 m 1,0,-1
 71 0 l 1,1,-1
 71 71 l 1,2,-1
 214 71 l 1,3,-1
 214 0 l 1,0,-1
214 286 m 1,4,-1
 71 286 l 1,5,-1
 71 71 l 1,6,-1
 0 71 l 1,7,-1
 0 429 l 1,8,-1
 71 429 l 1,9,-1
 71 357 l 1,10,-1
 214 357 l 1,11,-1
 214 286 l 1,4,-1
EndSplineSet
EndChar

StartChar: u
Encoding: 117 117 84
Width: 428
Flags: W
LayerCount: 2
Fore
SplineSet
0 357 m 1,0,-1
 71 357 l 1,1,-1
 71 71 l 1,2,-1
 0 71 l 1,3,-1
 0 357 l 1,0,-1
71 0 m 1,4,-1
 71 71 l 1,5,-1
 286 71 l 1,6,-1
 286 0 l 1,7,-1
 71 0 l 1,4,-1
286 357 m 1,8,-1
 357 357 l 1,9,-1
 357 71 l 1,10,-1
 286 71 l 1,11,-1
 286 357 l 1,8,-1
EndSplineSet
EndChar

StartChar: v
Encoding: 118 118 85
Width: 428
Flags: W
LayerCount: 2
Fore
SplineSet
143 0 m 1,0,-1
 143 71 l 1,1,-1
 214 71 l 1,2,-1
 214 0 l 1,3,-1
 143 0 l 1,0,-1
71 143 m 1,4,-1
 143 143 l 1,5,-1
 143 71 l 1,6,-1
 71 71 l 1,7,-1
 71 143 l 1,4,-1
214 71 m 1,8,-1
 214 143 l 1,9,-1
 286 143 l 1,10,-1
 286 71 l 1,11,-1
 214 71 l 1,8,-1
286 357 m 1,12,-1
 357 357 l 1,13,-1
 357 143 l 1,14,-1
 286 143 l 1,15,-1
 286 357 l 1,12,-1
0 357 m 1,16,-1
 71 357 l 1,17,-1
 71 143 l 1,18,-1
 0 143 l 1,19,-1
 0 357 l 1,16,-1
EndSplineSet
EndChar

StartChar: w
Encoding: 119 119 86
Width: 571
Flags: W
LayerCount: 2
Fore
SplineSet
0 357 m 1,0,-1
 71 357 l 1,1,-1
 71 71 l 1,2,-1
 0 71 l 1,3,-1
 0 357 l 1,0,-1
71 0 m 1,4,-1
 71 71 l 1,5,-1
 143 71 l 1,6,-1
 143 0 l 1,7,-1
 71 0 l 1,4,-1
143 71 m 1,8,-1
 143 143 l 1,9,-1
 214 143 l 1,10,-1
 214 71 l 1,11,-1
 143 71 l 1,8,-1
214 214 m 1,12,-1
 286 214 l 1,13,-1
 286 143 l 1,14,-1
 214 143 l 1,15,-1
 214 214 l 1,12,-1
286 143 m 1,16,-1
 357 143 l 1,17,-1
 357 71 l 1,18,-1
 286 71 l 1,19,-1
 286 143 l 1,16,-1
357 0 m 1,20,-1
 357 71 l 1,21,-1
 429 71 l 1,22,-1
 429 0 l 1,23,-1
 357 0 l 1,20,-1
429 357 m 1,24,-1
 500 357 l 1,25,-1
 500 71 l 1,26,-1
 429 71 l 1,27,-1
 429 357 l 1,24,-1
EndSplineSet
EndChar

StartChar: x
Encoding: 120 120 87
Width: 428
Flags: W
LayerCount: 2
Fore
SplineSet
0 0 m 1,0,-1
 0 71 l 1,1,-1
 71 71 l 1,2,-1
 71 0 l 1,3,-1
 0 0 l 1,0,-1
71 71 m 1,4,-1
 71 143 l 1,5,-1
 143 143 l 1,6,-1
 143 71 l 1,7,-1
 71 71 l 1,4,-1
143 214 m 1,8,-1
 214 214 l 1,9,-1
 214 143 l 1,10,-1
 143 143 l 1,11,-1
 143 214 l 1,8,-1
286 71 m 1,12,-1
 214 71 l 1,13,-1
 214 143 l 1,14,-1
 286 143 l 1,15,-1
 286 71 l 1,12,-1
357 0 m 1,16,-1
 286 0 l 1,17,-1
 286 71 l 1,18,-1
 357 71 l 1,19,-1
 357 0 l 1,16,-1
71 286 m 1,20,-1
 143 286 l 1,21,-1
 143 214 l 1,22,-1
 71 214 l 1,23,-1
 71 286 l 1,20,-1
0 357 m 1,24,-1
 71 357 l 1,25,-1
 71 286 l 1,26,-1
 0 286 l 1,27,-1
 0 357 l 1,24,-1
286 286 m 1,28,-1
 286 214 l 1,29,-1
 214 214 l 1,30,-1
 214 286 l 1,31,-1
 286 286 l 1,28,-1
357 357 m 1,32,-1
 357 286 l 1,33,-1
 286 286 l 1,34,-1
 286 357 l 1,35,-1
 357 357 l 1,32,-1
EndSplineSet
EndChar

StartChar: y
Encoding: 121 121 88
Width: 428
Flags: W
LayerCount: 2
Fore
SplineSet
0 357 m 1,0,-1
 71 357 l 1,1,-1
 71 71 l 1,2,-1
 0 71 l 1,3,-1
 0 357 l 1,0,-1
286 357 m 1,4,-1
 357 357 l 1,5,-1
 357 -71 l 1,6,-1
 286 -71 l 1,7,-1
 286 0 l 1,8,-1
 71 0 l 1,9,-1
 71 71 l 1,10,-1
 286 71 l 1,11,-1
 286 357 l 1,4,-1
71 -143 m 1,12,-1
 71 -71 l 1,13,-1
 286 -71 l 1,14,-1
 286 -143 l 1,15,-1
 71 -143 l 1,12,-1
EndSplineSet
EndChar

StartChar: z
Encoding: 122 122 89
Width: 428
Flags: W
LayerCount: 2
Fore
SplineSet
143 143 m 1,0,-1
 143 71 l 1,1,-1
 357 71 l 1,2,-1
 357 0 l 1,3,-1
 0 0 l 1,4,-1
 0 71 l 1,5,-1
 71 71 l 1,6,-1
 71 143 l 1,7,-1
 143 143 l 1,0,-1
214 143 m 1,8,-1
 143 143 l 1,9,-1
 143 214 l 1,10,-1
 214 214 l 1,11,-1
 214 143 l 1,8,-1
286 214 m 1,12,-1
 214 214 l 1,13,-1
 214 286 l 1,14,-1
 0 286 l 1,15,-1
 0 357 l 1,16,-1
 357 357 l 1,17,-1
 357 286 l 1,18,-1
 286 286 l 1,19,-1
 286 214 l 1,12,-1
EndSplineSet
EndChar

StartChar: braceleft
Encoding: 123 123 90
Width: 285
Flags: W
LayerCount: 2
Fore
SplineSet
214 -71 m 1,0,-1
 143 -71 l 1,1,-1
 143 0 l 1,2,-1
 214 0 l 1,3,-1
 214 -71 l 1,0,-1
214 571 m 1,4,-1
 214 500 l 1,5,-1
 143 500 l 1,6,-1
 143 571 l 1,7,-1
 214 571 l 1,4,-1
0 214 m 1,8,-1
 0 286 l 1,9,-1
 71 286 l 1,10,-1
 71 500 l 1,11,-1
 143 500 l 1,12,-1
 143 0 l 1,13,-1
 71 0 l 1,14,-1
 71 214 l 1,15,-1
 0 214 l 1,8,-1
EndSplineSet
EndChar

StartChar: bar
Encoding: 124 124 91
Width: 142
Flags: W
LayerCount: 2
Fore
SplineSet
71 500 m 1,0,-1
 71 -143 l 1,1,-1
 0 -143 l 1,2,-1
 0 500 l 1,3,-1
 71 500 l 1,4,-1
 71 500 l 1,0,-1
EndSplineSet
EndChar

StartChar: braceright
Encoding: 125 125 92
Width: 285
Flags: W
LayerCount: 2
Fore
SplineSet
0 -71 m 1,0,-1
 0 0 l 1,1,-1
 71 0 l 1,2,-1
 71 -71 l 1,3,-1
 0 -71 l 1,4,-1
 0 -71 l 1,0,-1
0 571 m 1,5,-1
 71 571 l 1,6,-1
 71 500 l 1,7,-1
 0 500 l 1,8,-1
 0 571 l 1,9,-1
 0 571 l 1,5,-1
214 214 m 1,10,-1
 143 214 l 1,11,-1
 143 0 l 1,12,-1
 71 0 l 1,13,-1
 71 500 l 1,14,-1
 143 500 l 1,15,-1
 143 286 l 1,16,-1
 214 286 l 1,17,-1
 214 214 l 1,18,-1
 214 214 l 1,10,-1
EndSplineSet
EndChar

StartChar: asciitilde
Encoding: 126 126 93
Width: 500
Flags: W
LayerCount: 2
Fore
SplineSet
357 286 m 1,0,-1
 429 286 l 1,1,-1
 429 214 l 1,2,-1
 357 214 l 1,3,-1
 357 286 l 1,0,-1
0 143 m 1,4,-1
 0 214 l 1,5,-1
 71 214 l 1,6,-1
 71 143 l 1,7,-1
 0 143 l 1,4,-1
214 286 m 1,8,-1
 214 214 l 1,9,-1
 357 214 l 1,10,-1
 357 143 l 1,11,-1
 214 143 l 1,12,-1
 214 214 l 1,13,-1
 71 214 l 1,14,-1
 71 286 l 1,15,-1
 214 286 l 1,8,-1
EndSplineSet
EndChar

StartChar: exclamdown
Encoding: 161 161 95
Width: 142
Flags: W
LayerCount: 2
Fore
SplineSet
0 -143 m 1,0,-1
 0 214 l 1,1,-1
 71 214 l 1,2,-1
 71 -143 l 1,3,-1
 0 -143 l 1,0,-1
0 357 m 1,4,-1
 71 357 l 1,5,-1
 71 286 l 1,6,-1
 0 286 l 1,7,-1
 0 357 l 1,4,-1
EndSplineSet
EndChar

StartChar: cent
Encoding: 162 162 96
Width: 428
Flags: W
LayerCount: 2
Fore
SplineSet
357 358 m 1,0,-1
 357 286 l 1,1,-1
 71 286 l 1,2,-1
 71 358 l 1,3,-1
 143 358 l 1,4,-1
 143 429 l 1,5,-1
 214 429 l 1,6,-1
 214 358 l 1,7,-1
 357 358 l 1,0,-1
0 286 m 1,8,-1
 71 286 l 1,9,-1
 71 72 l 1,10,-1
 0 72 l 1,11,-1
 0 286 l 1,8,-1
143 0 m 1,12,-1
 71 0 l 1,13,-1
 71 72 l 1,14,-1
 357 72 l 1,15,-1
 357 0 l 1,16,-1
 214 0 l 1,17,-1
 214 -71 l 1,18,-1
 143 -71 l 1,19,-1
 143 0 l 1,12,-1
EndSplineSet
EndChar

StartChar: sterling
Encoding: 163 163 97
Width: 428
Flags: W
LayerCount: 2
Fore
SplineSet
143 500 m 1,0,-1
 286 500 l 1,1,-1
 286 429 l 1,2,-1
 143 429 l 1,3,-1
 143 500 l 1,0,-1
357 357 m 1,4,-1
 286 357 l 1,5,-1
 286 429 l 1,6,-1
 357 429 l 1,7,-1
 357 357 l 1,4,-1
71 286 m 1,8,-1
 71 429 l 1,9,-1
 143 429 l 1,10,-1
 143 286 l 1,11,-1
 214 286 l 1,12,-1
 214 214 l 1,13,-1
 143 214 l 1,14,-1
 143 71 l 1,15,-1
 357 71 l 1,16,-1
 357 0 l 1,17,-1
 71 0 l 1,18,-1
 71 214 l 1,19,-1
 0 214 l 1,20,-1
 0 286 l 1,21,-1
 71 286 l 1,8,-1
EndSplineSet
EndChar

StartChar: currency
Encoding: 164 164 98
Width: 357
Flags: W
LayerCount: 2
Fore
SplineSet
0 357 m 1,0,-1
 71 357 l 1,1,-1
 71 214 l 1,2,-1
 0 214 l 1,3,-1
 0 357 l 1,0,-1
71 143 m 1,4,-1
 71 214 l 1,5,-1
 214 214 l 1,6,-1
 214 143 l 1,7,-1
 71 143 l 1,4,-1
286 214 m 1,8,-1
 214 214 l 1,9,-1
 214 357 l 1,10,-1
 286 357 l 1,11,-1
 286 214 l 1,8,-1
71 429 m 1,12,-1
 214 429 l 1,13,-1
 214 357 l 1,14,-1
 71 357 l 1,15,-1
 71 429 l 1,12,-1
0 500 m 1,16,-1
 71 500 l 1,17,-1
 71 429 l 1,18,-1
 0 429 l 1,19,-1
 0 500 l 1,16,-1
286 500 m 1,20,-1
 286 429 l 1,21,-1
 214 429 l 1,22,-1
 214 500 l 1,23,-1
 286 500 l 1,20,-1
0 71 m 1,24,-1
 0 143 l 1,25,-1
 71 143 l 1,26,-1
 71 71 l 1,27,-1
 0 71 l 1,24,-1
286 71 m 1,28,-1
 214 71 l 1,29,-1
 214 143 l 1,30,-1
 286 143 l 1,31,-1
 286 71 l 1,28,-1
EndSplineSet
EndChar

StartChar: yen
Encoding: 165 165 99
Width: 428
Flags: W
LayerCount: 2
Fore
SplineSet
143 143 m 1,0,-1
 143 214 l 1,1,-1
 214 214 l 1,2,-1
 214 143 l 1,3,-1
 286 143 l 1,4,-1
 286 71 l 1,5,-1
 214 71 l 1,6,-1
 214 0 l 1,7,-1
 143 0 l 1,8,-1
 143 71 l 1,9,-1
 71 71 l 1,10,-1
 71 143 l 1,11,-1
 143 143 l 1,0,-1
0 500 m 1,12,-1
 71 500 l 1,13,-1
 71 286 l 1,14,-1
 0 286 l 1,15,-1
 0 500 l 1,12,-1
286 500 m 1,16,-1
 357 500 l 1,17,-1
 357 286 l 1,18,-1
 286 286 l 1,19,-1
 286 500 l 1,16,-1
71 286 m 1,20,-1
 143 286 l 1,21,-1
 143 214 l 1,22,-1
 71 214 l 1,23,-1
 71 286 l 1,20,-1
214 214 m 1,24,-1
 214 286 l 1,25,-1
 286 286 l 1,26,-1
 286 214 l 1,27,-1
 214 214 l 1,24,-1
EndSplineSet
EndChar

StartChar: brokenbar
Encoding: 166 166 100
Width: 142
Flags: W
LayerCount: 2
Fore
SplineSet
0 500 m 1,0,-1
 71 500 l 1,1,-1
 71 214 l 1,2,-1
 0 214 l 1,3,-1
 0 500 l 1,0,-1
0 -143 m 1,4,-1
 0 143 l 1,5,-1
 71 143 l 1,6,-1
 71 -143 l 1,7,-1
 0 -143 l 1,4,-1
EndSplineSet
EndChar

StartChar: section
Encoding: 167 167 101
Width: 428
Flags: W
LayerCount: 2
Fore
SplineSet
286 286 m 1,0,-1
 71 286 l 1,1,-1
 71 357 l 1,2,-1
 286 357 l 1,3,-1
 286 286 l 1,0,-1
357 143 m 1,4,-1
 286 143 l 1,5,-1
 286 286 l 1,6,-1
 357 286 l 1,7,-1
 357 143 l 1,4,-1
0 429 m 1,8,-1
 71 429 l 1,9,-1
 71 357 l 1,10,-1
 0 357 l 1,11,-1
 0 429 l 1,8,-1
357 500 m 1,12,-1
 357 429 l 1,13,-1
 71 429 l 1,14,-1
 71 500 l 1,15,-1
 357 500 l 1,12,-1
0 -71 m 1,16,-1
 0 0 l 1,17,-1
 286 0 l 1,18,-1
 286 -71 l 1,19,-1
 0 -71 l 1,16,-1
286 0 m 1,20,-1
 286 71 l 1,21,-1
 357 71 l 1,22,-1
 357 0 l 1,23,-1
 286 0 l 1,20,-1
71 143 m 1,24,-1
 286 143 l 1,25,-1
 286 71 l 1,26,-1
 71 71 l 1,27,-1
 71 143 l 1,24,-1
0 286 m 1,28,-1
 71 286 l 1,29,-1
 71 143 l 1,30,-1
 0 143 l 1,31,-1
 0 286 l 1,28,-1
EndSplineSet
EndChar

StartChar: dieresis
Encoding: 168 168 102
Width: 285
Flags: W
LayerCount: 2
Fore
SplineSet
0 571 m 1,0,-1
 0 643 l 1,1,-1
 71 643 l 1,2,-1
 71 571 l 1,3,-1
 0 571 l 1,0,-1
143 643 m 1,4,-1
 214 643 l 1,5,-1
 214 571 l 1,6,-1
 143 571 l 1,7,-1
 143 643 l 1,4,-1
EndSplineSet
EndChar

StartChar: copyright
Encoding: 169 169 103
Width: 428
Flags: W
LayerCount: 2
Fore
SplineSet
89 232 m 1,0,-1
 143 232 l 1,1,-1
 143 125 l 1,2,-1
 89 125 l 1,3,-1
 89 232 l 1,0,-1
143 71 m 1,4,-1
 143 125 l 1,5,-1
 250 125 l 1,6,-1
 250 71 l 1,7,-1
 143 71 l 1,4,-1
143 286 m 1,8,-1
 250 286 l 1,9,-1
 250 232 l 1,10,-1
 143 232 l 1,11,-1
 143 286 l 1,8,-1
179 357 m 256,12,13
 216 357 216 357 248.5 343 c 128,-1,14
 281 329 281 329 305 305 c 128,-1,15
 329 281 329 281 343 248.5 c 128,-1,16
 357 216 357 216 357 179 c 256,17,18
 357 142 357 142 343 109.5 c 128,-1,19
 329 77 329 77 305 52.5 c 128,-1,20
 281 28 281 28 248.5 14 c 128,-1,21
 216 0 216 0 179 0 c 256,22,23
 142 0 142 0 109.5 14 c 128,-1,24
 77 28 77 28 52.5 52.5 c 128,-1,25
 28 77 28 77 14 109.5 c 128,-1,26
 0 142 0 142 0 179 c 256,27,28
 0 216 0 216 14 248.5 c 128,-1,29
 28 281 28 281 52.5 305 c 128,-1,30
 77 329 77 329 109.5 343 c 128,-1,31
 142 357 142 357 179 357 c 256,12,13
291 66 m 0,32,33
 337 112 337 112 337 179 c 0,34,35
 337 211 337 211 325.5 239.5 c 128,-1,36
 314 268 314 268 291 291 c 256,37,38
 268 314 268 314 239.5 325.5 c 128,-1,39
 211 337 211 337 179 337 c 0,40,41
 112 337 112 337 66 291 c 0,42,43
 43 268 43 268 31.5 239.5 c 128,-1,44
 20 211 20 211 20 179 c 0,45,46
 20 112 20 112 66 66 c 256,47,48
 112 20 112 20 179 20 c 0,49,50
 211 20 211 20 239.5 31.5 c 128,-1,51
 268 43 268 43 291 66 c 0,32,33
EndSplineSet
EndChar

StartChar: ordfeminine
Encoding: 170 170 104
Width: 357
Flags: W
LayerCount: 2
Fore
SplineSet
71 500 m 1,0,-1
 214 500 l 1,1,-1
 214 429 l 1,2,-1
 71 429 l 1,3,-1
 71 500 l 1,0,-1
214 429 m 1,4,-1
 286 429 l 1,5,-1
 286 143 l 1,6,-1
 71 143 l 1,7,-1
 71 214 l 1,8,-1
 214 214 l 1,9,-1
 214 286 l 1,10,-1
 71 286 l 1,11,-1
 71 357 l 1,12,-1
 214 357 l 1,13,-1
 214 429 l 1,4,-1
0 286 m 1,14,-1
 71 286 l 1,15,-1
 71 214 l 1,16,-1
 0 214 l 1,17,-1
 0 286 l 1,14,-1
EndSplineSet
EndChar

StartChar: guillemotleft
Encoding: 171 171 105
Width: 500
Flags: W
LayerCount: 2
Fore
SplineSet
214 429 m 1,0,-1
 214 357 l 1,1,-1
 143 357 l 1,2,-1
 143 429 l 1,3,-1
 214 429 l 1,0,-1
143 357 m 1,4,-1
 143 286 l 1,5,-1
 71 286 l 1,6,-1
 71 357 l 1,7,-1
 143 357 l 1,4,-1
71 214 m 1,8,-1
 143 214 l 1,9,-1
 143 143 l 1,10,-1
 71 143 l 1,11,-1
 71 214 l 1,8,-1
0 286 m 1,12,-1
 71 286 l 1,13,-1
 71 214 l 1,14,-1
 0 214 l 1,15,-1
 0 286 l 1,12,-1
143 71 m 1,16,-1
 143 143 l 1,17,-1
 214 143 l 1,18,-1
 214 71 l 1,19,-1
 143 71 l 1,16,-1
429 429 m 1,20,-1
 429 357 l 1,21,-1
 357 357 l 1,22,-1
 357 429 l 1,23,-1
 429 429 l 1,20,-1
429 71 m 1,24,-1
 357 71 l 1,25,-1
 357 143 l 1,26,-1
 429 143 l 1,27,-1
 429 71 l 1,24,-1
214 286 m 1,28,-1
 286 286 l 1,29,-1
 286 214 l 1,30,-1
 214 214 l 1,31,-1
 214 286 l 1,28,-1
357 357 m 1,32,-1
 357 286 l 1,33,-1
 286 286 l 1,34,-1
 286 357 l 1,35,-1
 357 357 l 1,32,-1
357 143 m 1,36,-1
 286 143 l 1,37,-1
 286 214 l 1,38,-1
 357 214 l 1,39,-1
 357 143 l 1,36,-1
EndSplineSet
EndChar

StartChar: logicalnot
Encoding: 172 172 106
Width: 429
Flags: W
LayerCount: 2
Fore
SplineSet
0 286 m 1,0,-1
 358 286 l 1,1,-1
 358 71 l 1,2,-1
 286 71 l 1,3,-1
 286 214 l 1,4,-1
 0 214 l 1,5,-1
 0 286 l 1,6,-1
 0 286 l 1,0,-1
EndSplineSet
EndChar

StartChar: registered
Encoding: 174 174 107
Width: 285
Flags: W
LayerCount: 2
Fore
SplineSet
71 268 m 1,0,-1
 107 268 l 1,1,-1
 107 196 l 1,2,-1
 71 196 l 1,3,-1
 71 268 l 1,0,-1
143 304 m 1,4,-1
 143 268 l 1,5,-1
 107 268 l 1,6,-1
 107 304 l 1,7,-1
 143 304 l 1,4,-1
107 357 m 256,8,9
 129 357 129 357 148.5 348.5 c 128,-1,10
 168 340 168 340 182.5 325.5 c 128,-1,11
 197 311 197 311 205.5 291.5 c 128,-1,12
 214 272 214 272 214 250 c 256,13,14
 214 228 214 228 205.5 208.5 c 128,-1,15
 197 189 197 189 182.5 174.5 c 128,-1,16
 168 160 168 160 148.5 151.5 c 128,-1,17
 129 143 129 143 107 143 c 256,18,19
 85 143 85 143 65.5 151.5 c 128,-1,20
 46 160 46 160 31.5 174.5 c 128,-1,21
 17 189 17 189 8.5 208.5 c 128,-1,22
 0 228 0 228 0 250 c 256,23,24
 0 272 0 272 8.5 291.5 c 128,-1,25
 17 311 17 311 31.5 325.5 c 128,-1,26
 46 340 46 340 65.5 348.5 c 128,-1,27
 85 357 85 357 107 357 c 256,8,9
107 163 m 256,28,29
 143 163 143 163 168.5 188.5 c 128,-1,30
 194 214 194 214 194 250 c 256,31,32
 194 286 194 286 168.5 311.5 c 128,-1,33
 143 337 143 337 107 337 c 256,34,35
 71 337 71 337 45.5 311.5 c 128,-1,36
 20 286 20 286 20 250 c 256,37,38
 20 214 20 214 45.5 188.5 c 128,-1,39
 71 163 71 163 107 163 c 256,28,29
EndSplineSet
EndChar

StartChar: macron
Encoding: 175 175 108
Width: 285
Flags: W
LayerCount: 2
Fore
SplineSet
0 571 m 1,0,-1
 0 643 l 1,1,-1
 214 643 l 1,2,-1
 214 571 l 1,3,-1
 0 571 l 1,4,-1
 0 571 l 1,0,-1
EndSplineSet
EndChar

StartChar: degree
Encoding: 176 176 109
Width: 357
Flags: W
LayerCount: 2
Fore
SplineSet
0 429 m 1,0,-1
 71 429 l 1,1,-1
 71 286 l 1,2,-1
 0 286 l 1,3,-1
 0 429 l 1,0,-1
214 500 m 1,4,-1
 214 429 l 1,5,-1
 71 429 l 1,6,-1
 71 500 l 1,7,-1
 214 500 l 1,4,-1
214 429 m 1,8,-1
 286 429 l 1,9,-1
 286 286 l 1,10,-1
 214 286 l 1,11,-1
 214 429 l 1,8,-1
71 214 m 1,12,-1
 71 286 l 1,13,-1
 214 286 l 1,14,-1
 214 214 l 1,15,-1
 71 214 l 1,12,-1
EndSplineSet
EndChar

StartChar: plusminus
Encoding: 177 177 110
Width: 428
Flags: W
LayerCount: 2
Fore
SplineSet
214 357 m 1,0,-1
 357 357 l 1,1,-1
 357 286 l 1,2,-1
 214 286 l 1,3,-1
 214 143 l 1,4,-1
 143 143 l 1,5,-1
 143 286 l 1,6,-1
 0 286 l 1,7,-1
 0 357 l 1,8,-1
 143 357 l 1,9,-1
 143 500 l 1,10,-1
 214 500 l 1,11,-1
 214 357 l 1,0,-1
0 0 m 1,12,-1
 0 71 l 1,13,-1
 357 71 l 1,14,-1
 357 0 l 1,15,-1
 0 0 l 1,12,-1
EndSplineSet
EndChar

StartChar: uni00B2
Encoding: 178 178 111
Width: 285
Flags: W
LayerCount: 2
Fore
SplineSet
0 500 m 1,0,-1
 143 500 l 1,1,-1
 143 429 l 1,2,-1
 0 429 l 1,3,-1
 0 500 l 1,0,-1
214 429 m 1,4,-1
 214 357 l 1,5,-1
 143 357 l 1,6,-1
 143 429 l 1,7,-1
 214 429 l 1,4,-1
143 357 m 1,8,-1
 143 286 l 1,9,-1
 71 286 l 1,10,-1
 71 357 l 1,11,-1
 143 357 l 1,8,-1
0 286 m 1,12,-1
 71 286 l 1,13,-1
 71 214 l 1,14,-1
 214 214 l 1,15,-1
 214 143 l 1,16,-1
 0 143 l 1,17,-1
 0 286 l 1,12,-1
EndSplineSet
EndChar

StartChar: uni00B3
Encoding: 179 179 112
Width: 285
Flags: W
LayerCount: 2
Fore
SplineSet
0 500 m 1,0,-1
 143 500 l 1,1,-1
 143 429 l 1,2,-1
 0 429 l 1,3,-1
 0 500 l 1,0,-1
214 429 m 1,4,-1
 214 357 l 1,5,-1
 143 357 l 1,6,-1
 143 429 l 1,7,-1
 214 429 l 1,4,-1
0 357 m 1,8,-1
 143 357 l 1,9,-1
 143 286 l 1,10,-1
 0 286 l 1,11,-1
 0 357 l 1,8,-1
214 214 m 1,12,-1
 143 214 l 1,13,-1
 143 286 l 1,14,-1
 214 286 l 1,15,-1
 214 214 l 1,12,-1
0 143 m 1,16,-1
 0 214 l 1,17,-1
 143 214 l 1,18,-1
 143 143 l 1,19,-1
 0 143 l 1,16,-1
EndSplineSet
EndChar

StartChar: acute
Encoding: 180 180 113
Width: 214
Flags: W
LayerCount: 2
Fore
SplineSet
71 643 m 1,0,-1
 71 571 l 1,1,-1
 0 571 l 1,2,-1
 0 643 l 1,3,-1
 71 643 l 1,4,-1
 71 643 l 1,0,-1
143 714 m 1,5,-1
 143 643 l 1,6,-1
 71 643 l 1,7,-1
 71 714 l 1,8,-1
 143 714 l 1,9,-1
 143 714 l 1,5,-1
EndSplineSet
EndChar

StartChar: mu
Encoding: 181 181 114
Width: 428
Flags: W
LayerCount: 2
Fore
SplineSet
71 357 m 1,0,-1
 71 71 l 1,1,-1
 286 71 l 1,2,-1
 286 0 l 1,3,-1
 71 0 l 1,4,-1
 71 -71 l 1,5,-1
 0 -71 l 1,6,-1
 0 357 l 1,7,-1
 71 357 l 1,0,-1
286 357 m 1,8,-1
 357 357 l 1,9,-1
 357 71 l 1,10,-1
 286 71 l 1,11,-1
 286 357 l 1,8,-1
EndSplineSet
EndChar

StartChar: paragraph
Encoding: 182 182 115
Width: 428
Flags: W
LayerCount: 2
Fore
SplineSet
286 500 m 1,0,-1
 357 500 l 1,1,-1
 357 -143 l 1,2,-1
 286 -143 l 1,3,-1
 286 500 l 1,0,-1
71 429 m 1,4,-1
 71 500 l 1,5,-1
 214 500 l 1,6,-1
 214 -143 l 1,7,-1
 143 -143 l 1,8,-1
 143 143 l 1,9,-1
 71 143 l 1,10,-1
 71 214 l 1,11,-1
 0 214 l 1,12,-1
 0 429 l 1,13,-1
 71 429 l 1,4,-1
EndSplineSet
EndChar

StartChar: periodcentered
Encoding: 183 183 116
Width: 142
Flags: W
LayerCount: 2
Fore
SplineSet
71 143 m 1,0,-1
 0 143 l 1,1,-1
 0 214 l 1,2,-1
 71 214 l 1,3,-1
 71 143 l 1,4,-1
 71 143 l 1,0,-1
EndSplineSet
EndChar

StartChar: cedilla
Encoding: 184 184 117
Width: 214
Flags: W
LayerCount: 2
Fore
SplineSet
71 0 m 1,0,-1
 143 0 l 1,1,-1
 143 -71 l 1,2,-1
 71 -71 l 1,3,-1
 71 0 l 1,0,-1
0 -143 m 1,4,-1
 0 -71 l 1,5,-1
 71 -71 l 1,6,-1
 71 -143 l 1,7,-1
 0 -143 l 1,4,-1
EndSplineSet
EndChar

StartChar: uni00B9
Encoding: 185 185 118
Width: 214
Flags: W
LayerCount: 2
Fore
SplineSet
0 500 m 1,0,-1
 143 500 l 1,1,-1
 143 143 l 1,2,-1
 71 143 l 1,3,-1
 71 429 l 1,4,-1
 0 429 l 1,5,-1
 0 500 l 1,6,-1
 0 500 l 1,0,-1
EndSplineSet
EndChar

StartChar: ordmasculine
Encoding: 186 186 119
Width: 357
Flags: W
LayerCount: 2
Fore
SplineSet
0 429 m 1,0,-1
 71 429 l 1,1,-1
 71 214 l 1,2,-1
 0 214 l 1,3,-1
 0 429 l 1,0,-1
71 143 m 1,4,-1
 71 214 l 1,5,-1
 214 214 l 1,6,-1
 214 143 l 1,7,-1
 71 143 l 1,4,-1
214 429 m 1,8,-1
 286 429 l 1,9,-1
 286 214 l 1,10,-1
 214 214 l 1,11,-1
 214 429 l 1,8,-1
214 500 m 1,12,-1
 214 429 l 1,13,-1
 71 429 l 1,14,-1
 71 500 l 1,15,-1
 214 500 l 1,12,-1
EndSplineSet
EndChar

StartChar: guillemotright
Encoding: 187 187 120
Width: 500
Flags: W
LayerCount: 2
Fore
SplineSet
214 429 m 1,0,-1
 286 429 l 1,1,-1
 286 357 l 1,2,-1
 214 357 l 1,3,-1
 214 429 l 1,4,-1
 214 429 l 1,0,-1
286 357 m 1,5,-1
 357 357 l 1,6,-1
 357 286 l 1,7,-1
 286 286 l 1,8,-1
 286 357 l 1,9,-1
 286 357 l 1,5,-1
357 214 m 1,10,-1
 357 143 l 1,11,-1
 286 143 l 1,12,-1
 286 214 l 1,13,-1
 357 214 l 1,14,-1
 357 214 l 1,10,-1
429 286 m 1,15,-1
 429 214 l 1,16,-1
 357 214 l 1,17,-1
 357 286 l 1,18,-1
 429 286 l 1,19,-1
 429 286 l 1,15,-1
286 71 m 1,20,-1
 214 71 l 1,21,-1
 214 143 l 1,22,-1
 286 143 l 1,23,-1
 286 71 l 1,24,-1
 286 71 l 1,20,-1
0 429 m 1,25,-1
 71 429 l 1,26,-1
 71 357 l 1,27,-1
 0 357 l 1,28,-1
 0 429 l 1,29,-1
 0 429 l 1,25,-1
0 71 m 1,30,-1
 0 143 l 1,31,-1
 71 143 l 1,32,-1
 71 71 l 1,33,-1
 0 71 l 1,34,-1
 0 71 l 1,30,-1
214 286 m 1,35,-1
 214 214 l 1,36,-1
 143 214 l 1,37,-1
 143 286 l 1,38,-1
 214 286 l 1,39,-1
 214 286 l 1,35,-1
71 357 m 1,40,-1
 143 357 l 1,41,-1
 143 286 l 1,42,-1
 71 286 l 1,43,-1
 71 357 l 1,44,-1
 71 357 l 1,40,-1
71 143 m 1,45,-1
 71 214 l 1,46,-1
 143 214 l 1,47,-1
 143 143 l 1,48,-1
 71 143 l 1,49,-1
 71 143 l 1,45,-1
EndSplineSet
EndChar

StartChar: onequarter
Encoding: 188 188 121
Width: 857
Flags: W
LayerCount: 2
Fore
SplineSet
286 214 m 1,0,-1
 286 285 l 1,1,-1
 357 285 l 1,2,-1
 357 214 l 1,3,-1
 286 214 l 1,0,-1
214 142 m 1,4,-1
 214 214 l 1,5,-1
 286 214 l 1,6,-1
 286 142 l 1,7,-1
 214 142 l 1,4,-1
143 71 m 1,8,-1
 143 142 l 1,9,-1
 214 142 l 1,10,-1
 214 71 l 1,11,-1
 143 71 l 1,8,-1
71 0 m 1,12,-1
 71 71 l 1,13,-1
 143 71 l 1,14,-1
 143 0 l 1,15,-1
 71 0 l 1,12,-1
429 357 m 1,16,-1
 429 428 l 1,17,-1
 500 428 l 1,18,-1
 500 357 l 1,19,-1
 429 357 l 1,16,-1
357 285 m 1,20,-1
 357 357 l 1,21,-1
 429 357 l 1,22,-1
 429 285 l 1,23,-1
 357 285 l 1,20,-1
571 500 m 1,24,-1
 571 428 l 1,25,-1
 500 428 l 1,26,-1
 500 500 l 1,27,-1
 571 500 l 1,24,-1
643 571 m 1,28,-1
 643 500 l 1,29,-1
 571 500 l 1,30,-1
 571 571 l 1,31,-1
 643 571 l 1,28,-1
71 214 m 1,32,-1
 71 500 l 1,33,-1
 0 500 l 1,34,-1
 0 571 l 1,35,-1
 143 571 l 1,36,-1
 143 214 l 1,37,-1
 71 214 l 1,32,-1
714 357 m 1,38,-1
 786 357 l 1,39,-1
 786 0 l 1,40,-1
 714 0 l 1,41,-1
 714 142 l 1,42,-1
 571 142 l 1,43,-1
 571 357 l 1,44,-1
 643 357 l 1,45,-1
 643 214 l 1,46,-1
 714 214 l 1,47,-1
 714 357 l 1,38,-1
EndSplineSet
EndChar

StartChar: onehalf
Encoding: 189 189 122
Width: 857
Flags: W
LayerCount: 2
Fore
SplineSet
357 285 m 1,0,-1
 357 357 l 1,1,-1
 429 357 l 1,2,-1
 429 285 l 1,3,-1
 357 285 l 1,0,-1
429 357 m 1,4,-1
 429 428 l 1,5,-1
 500 428 l 1,6,-1
 500 357 l 1,7,-1
 429 357 l 1,4,-1
214 142 m 1,8,-1
 214 214 l 1,9,-1
 286 214 l 1,10,-1
 286 142 l 1,11,-1
 214 142 l 1,8,-1
286 214 m 1,12,-1
 286 285 l 1,13,-1
 357 285 l 1,14,-1
 357 214 l 1,15,-1
 286 214 l 1,12,-1
643 571 m 1,16,-1
 643 500 l 1,17,-1
 571 500 l 1,18,-1
 571 571 l 1,19,-1
 643 571 l 1,16,-1
571 500 m 1,20,-1
 571 428 l 1,21,-1
 500 428 l 1,22,-1
 500 500 l 1,23,-1
 571 500 l 1,20,-1
71 0 m 1,24,-1
 71 71 l 1,25,-1
 143 71 l 1,26,-1
 143 0 l 1,27,-1
 71 0 l 1,24,-1
143 71 m 1,28,-1
 143 142 l 1,29,-1
 214 142 l 1,30,-1
 214 71 l 1,31,-1
 143 71 l 1,28,-1
71 214 m 1,32,-1
 71 500 l 1,33,-1
 0 500 l 1,34,-1
 0 571 l 1,35,-1
 143 571 l 1,36,-1
 143 214 l 1,37,-1
 71 214 l 1,32,-1
786 285 m 1,38,-1
 786 214 l 1,39,-1
 714 214 l 1,40,-1
 714 285 l 1,41,-1
 786 285 l 1,38,-1
714 214 m 1,42,-1
 714 142 l 1,43,-1
 643 142 l 1,44,-1
 643 214 l 1,45,-1
 714 214 l 1,42,-1
571 142 m 1,46,-1
 643 142 l 1,47,-1
 643 71 l 1,48,-1
 786 71 l 1,49,-1
 786 0 l 1,50,-1
 571 0 l 1,51,-1
 571 142 l 1,46,-1
571 357 m 1,52,-1
 714 357 l 1,53,-1
 714 285 l 1,54,-1
 571 285 l 1,55,-1
 571 357 l 1,52,-1
EndSplineSet
EndChar

StartChar: threequarters
Encoding: 190 190 123
Width: 857
Flags: W
LayerCount: 2
Fore
SplineSet
357 285 m 1,0,-1
 357 357 l 1,1,-1
 429 357 l 1,2,-1
 429 285 l 1,3,-1
 357 285 l 1,0,-1
286 214 m 1,4,-1
 286 285 l 1,5,-1
 357 285 l 1,6,-1
 357 214 l 1,7,-1
 286 214 l 1,4,-1
143 71 m 1,8,-1
 143 142 l 1,9,-1
 214 142 l 1,10,-1
 214 71 l 1,11,-1
 143 71 l 1,8,-1
71 0 m 1,12,-1
 71 71 l 1,13,-1
 143 71 l 1,14,-1
 143 0 l 1,15,-1
 71 0 l 1,12,-1
214 142 m 1,16,-1
 214 214 l 1,17,-1
 286 214 l 1,18,-1
 286 142 l 1,19,-1
 214 142 l 1,16,-1
429 357 m 1,20,-1
 429 428 l 1,21,-1
 500 428 l 1,22,-1
 500 357 l 1,23,-1
 429 357 l 1,20,-1
571 500 m 1,24,-1
 571 428 l 1,25,-1
 500 428 l 1,26,-1
 500 500 l 1,27,-1
 571 500 l 1,24,-1
714 357 m 1,28,-1
 786 357 l 1,29,-1
 786 0 l 1,30,-1
 714 0 l 1,31,-1
 714 142 l 1,32,-1
 571 142 l 1,33,-1
 571 357 l 1,34,-1
 643 357 l 1,35,-1
 643 214 l 1,36,-1
 714 214 l 1,37,-1
 714 357 l 1,28,-1
643 571 m 1,38,-1
 643 500 l 1,39,-1
 571 500 l 1,40,-1
 571 571 l 1,41,-1
 643 571 l 1,38,-1
0 571 m 1,42,-1
 143 571 l 1,43,-1
 143 500 l 1,44,-1
 0 500 l 1,45,-1
 0 571 l 1,42,-1
214 500 m 1,46,-1
 214 428 l 1,47,-1
 143 428 l 1,48,-1
 143 500 l 1,49,-1
 214 500 l 1,46,-1
0 428 m 1,50,-1
 143 428 l 1,51,-1
 143 357 l 1,52,-1
 0 357 l 1,53,-1
 0 428 l 1,50,-1
214 357 m 1,54,-1
 214 285 l 1,55,-1
 143 285 l 1,56,-1
 143 357 l 1,57,-1
 214 357 l 1,54,-1
143 285 m 1,58,-1
 143 214 l 1,59,-1
 0 214 l 1,60,-1
 0 285 l 1,61,-1
 143 285 l 1,58,-1
EndSplineSet
EndChar

StartChar: questiondown
Encoding: 191 191 124
Width: 428
Flags: W
LayerCount: 2
Fore
SplineSet
214 357 m 1,0,-1
 214 286 l 1,1,-1
 143 286 l 1,2,-1
 143 357 l 1,3,-1
 214 357 l 1,0,-1
214 214 m 1,4,-1
 214 143 l 1,5,-1
 143 143 l 1,6,-1
 143 214 l 1,7,-1
 214 214 l 1,4,-1
143 143 m 1,8,-1
 143 71 l 1,9,-1
 71 71 l 1,10,-1
 71 143 l 1,11,-1
 143 143 l 1,8,-1
71 -71 m 1,12,-1
 0 -71 l 1,13,-1
 0 71 l 1,14,-1
 71 71 l 1,15,-1
 71 -71 l 1,12,-1
286 -143 m 1,16,-1
 71 -143 l 1,17,-1
 71 -71 l 1,18,-1
 286 -71 l 1,19,-1
 286 -143 l 1,16,-1
357 0 m 1,20,-1
 357 -71 l 1,21,-1
 286 -71 l 1,22,-1
 286 0 l 1,23,-1
 357 0 l 1,20,-1
EndSplineSet
EndChar

StartChar: Agrave
Encoding: 192 192 125
Width: 428
Flags: W
LayerCount: 2
Fore
SplineSet
143 643 m 1,0,-1
 214 643 l 1,1,-1
 214 571 l 1,2,-1
 143 571 l 1,3,-1
 143 643 l 1,0,-1
71 714 m 1,4,-1
 143 714 l 1,5,-1
 143 643 l 1,6,-1
 71 643 l 1,7,-1
 71 714 l 1,4,-1
286 500 m 1,8,-1
 286 429 l 1,9,-1
 71 429 l 1,10,-1
 71 500 l 1,11,-1
 286 500 l 1,8,-1
286 429 m 1,12,-1
 357 429 l 1,13,-1
 357 0 l 1,14,-1
 286 0 l 1,15,-1
 286 214 l 1,16,-1
 71 214 l 1,17,-1
 71 0 l 1,18,-1
 0 0 l 1,19,-1
 0 429 l 1,20,-1
 71 429 l 1,21,-1
 71 286 l 1,22,-1
 286 286 l 1,23,-1
 286 429 l 1,12,-1
EndSplineSet
EndChar

StartChar: Aacute
Encoding: 193 193 126
Width: 428
Flags: W
LayerCount: 2
Fore
SplineSet
214 643 m 1,0,-1
 214 571 l 1,1,-1
 143 571 l 1,2,-1
 143 643 l 1,3,-1
 214 643 l 1,4,-1
 214 643 l 1,0,-1
286 714 m 1,5,-1
 286 643 l 1,6,-1
 214 643 l 1,7,-1
 214 714 l 1,8,-1
 286 714 l 1,9,-1
 286 714 l 1,5,-1
286 500 m 1,10,-1
 71 500 l 1,11,-1
 71 429 l 1,12,-1
 286 429 l 1,13,-1
 286 500 l 1,14,-1
 286 500 l 1,10,-1
286 429 m 1,15,-1
 286 286 l 1,16,-1
 71 286 l 1,17,-1
 71 429 l 1,18,-1
 0 429 l 1,19,-1
 0 0 l 1,20,-1
 71 0 l 1,21,-1
 71 214 l 1,22,-1
 286 214 l 1,23,-1
 286 0 l 1,24,-1
 357 0 l 1,25,-1
 357 429 l 1,26,-1
 286 429 l 1,27,-1
 286 429 l 1,15,-1
EndSplineSet
EndChar

StartChar: Acircumflex
Encoding: 194 194 127
Width: 428
Flags: W
LayerCount: 2
Fore
SplineSet
71 571 m 1,0,-1
 71 643 l 1,1,-1
 143 643 l 1,2,-1
 143 571 l 1,3,-1
 71 571 l 1,0,-1
143 714 m 1,4,-1
 214 714 l 1,5,-1
 214 643 l 1,6,-1
 143 643 l 1,7,-1
 143 714 l 1,4,-1
214 643 m 1,8,-1
 286 643 l 1,9,-1
 286 571 l 1,10,-1
 214 571 l 1,11,-1
 214 643 l 1,8,-1
286 500 m 1,12,-1
 286 429 l 1,13,-1
 71 429 l 1,14,-1
 71 500 l 1,15,-1
 286 500 l 1,12,-1
286 429 m 1,16,-1
 357 429 l 1,17,-1
 357 0 l 1,18,-1
 286 0 l 1,19,-1
 286 214 l 1,20,-1
 71 214 l 1,21,-1
 71 0 l 1,22,-1
 0 0 l 1,23,-1
 0 429 l 1,24,-1
 71 429 l 1,25,-1
 71 286 l 1,26,-1
 286 286 l 1,27,-1
 286 429 l 1,16,-1
EndSplineSet
EndChar

StartChar: Atilde
Encoding: 195 195 128
Width: 428
Flags: W
LayerCount: 2
Fore
SplineSet
286 571 m 1,0,-1
 71 571 l 1,1,-1
 71 643 l 1,2,-1
 286 643 l 1,3,-1
 286 571 l 1,4,-1
 286 571 l 1,0,-1
286 500 m 1,5,-1
 71 500 l 1,6,-1
 71 429 l 1,7,-1
 286 429 l 1,8,-1
 286 500 l 1,9,-1
 286 500 l 1,5,-1
286 429 m 1,10,-1
 286 286 l 1,11,-1
 71 286 l 1,12,-1
 71 429 l 1,13,-1
 0 429 l 1,14,-1
 0 0 l 1,15,-1
 71 0 l 1,16,-1
 71 214 l 1,17,-1
 286 214 l 1,18,-1
 286 0 l 1,19,-1
 357 0 l 1,20,-1
 357 429 l 1,21,-1
 286 429 l 1,22,-1
 286 429 l 1,10,-1
EndSplineSet
EndChar

StartChar: Adieresis
Encoding: 196 196 129
Width: 428
Flags: W
LayerCount: 2
Fore
SplineSet
71 571 m 1,0,-1
 71 643 l 1,1,-1
 143 643 l 1,2,-1
 143 571 l 1,3,-1
 71 571 l 1,0,-1
214 643 m 1,4,-1
 286 643 l 1,5,-1
 286 571 l 1,6,-1
 214 571 l 1,7,-1
 214 643 l 1,4,-1
286 500 m 1,8,-1
 286 429 l 1,9,-1
 71 429 l 1,10,-1
 71 500 l 1,11,-1
 286 500 l 1,8,-1
286 429 m 1,12,-1
 357 429 l 1,13,-1
 357 0 l 1,14,-1
 286 0 l 1,15,-1
 286 214 l 1,16,-1
 71 214 l 1,17,-1
 71 0 l 1,18,-1
 0 0 l 1,19,-1
 0 429 l 1,20,-1
 71 429 l 1,21,-1
 71 286 l 1,22,-1
 286 286 l 1,23,-1
 286 429 l 1,12,-1
EndSplineSet
EndChar

StartChar: Aring
Encoding: 197 197 130
Width: 428
Flags: W
LayerCount: 2
Fore
SplineSet
143 571 m 1,0,-1
 143 643 l 1,1,-1
 214 643 l 1,2,-1
 214 571 l 1,3,-1
 143 571 l 1,0,-1
71 714 m 1,4,-1
 143 714 l 1,5,-1
 143 643 l 1,6,-1
 71 643 l 1,7,-1
 71 714 l 1,4,-1
214 786 m 1,8,-1
 214 714 l 1,9,-1
 143 714 l 1,10,-1
 143 786 l 1,11,-1
 214 786 l 1,8,-1
214 714 m 1,12,-1
 286 714 l 1,13,-1
 286 643 l 1,14,-1
 214 643 l 1,15,-1
 214 714 l 1,12,-1
286 500 m 1,16,-1
 286 429 l 1,17,-1
 71 429 l 1,18,-1
 71 500 l 1,19,-1
 286 500 l 1,16,-1
286 429 m 1,20,-1
 357 429 l 1,21,-1
 357 0 l 1,22,-1
 286 0 l 1,23,-1
 286 214 l 1,24,-1
 71 214 l 1,25,-1
 71 0 l 1,26,-1
 0 0 l 1,27,-1
 0 429 l 1,28,-1
 71 429 l 1,29,-1
 71 286 l 1,30,-1
 286 286 l 1,31,-1
 286 429 l 1,20,-1
EndSplineSet
EndChar

StartChar: AE
Encoding: 198 198 131
Width: 714
Flags: W
LayerCount: 2
Fore
SplineSet
357 500 m 1,0,-1
 643 500 l 1,1,-1
 643 429 l 1,2,-1
 357 429 l 1,3,-1
 357 500 l 1,0,-1
357 429 m 1,4,-1
 357 286 l 1,5,-1
 643 286 l 1,6,-1
 643 214 l 1,7,-1
 357 214 l 1,8,-1
 357 71 l 1,9,-1
 643 71 l 1,10,-1
 643 0 l 1,11,-1
 286 0 l 1,12,-1
 286 214 l 1,13,-1
 71 214 l 1,14,-1
 71 0 l 1,15,-1
 0 0 l 1,16,-1
 0 429 l 1,17,-1
 71 429 l 1,18,-1
 71 286 l 1,19,-1
 286 286 l 1,20,-1
 286 429 l 1,21,-1
 71 429 l 1,22,-1
 71 500 l 1,23,-1
 286 500 l 1,24,-1
 286 429 l 1,25,-1
 357 429 l 1,4,-1
EndSplineSet
EndChar

StartChar: Ccedilla
Encoding: 199 199 132
Width: 428
Flags: W
LayerCount: 2
Fore
SplineSet
357 500 m 1,0,-1
 357 429 l 1,1,-1
 71 429 l 1,2,-1
 71 500 l 1,3,-1
 357 500 l 1,0,-1
214 0 m 1,4,-1
 71 0 l 1,5,-1
 71 71 l 1,6,-1
 357 71 l 1,7,-1
 357 0 l 1,8,-1
 286 0 l 1,9,-1
 286 -71 l 1,10,-1
 214 -71 l 1,11,-1
 214 0 l 1,4,-1
0 429 m 1,12,-1
 71 429 l 1,13,-1
 71 71 l 1,14,-1
 0 71 l 1,15,-1
 0 429 l 1,12,-1
143 -143 m 1,16,-1
 143 -71 l 1,17,-1
 214 -71 l 1,18,-1
 214 -143 l 1,19,-1
 143 -143 l 1,16,-1
EndSplineSet
EndChar

StartChar: Egrave
Encoding: 200 200 133
Width: 428
Flags: W
LayerCount: 2
Fore
SplineSet
357 429 m 1,0,-1
 71 429 l 1,1,-1
 71 286 l 1,2,-1
 357 286 l 1,3,-1
 357 214 l 1,4,-1
 71 214 l 1,5,-1
 71 71 l 1,6,-1
 357 71 l 1,7,-1
 357 0 l 1,8,-1
 0 0 l 1,9,-1
 0 500 l 1,10,-1
 357 500 l 1,11,-1
 357 429 l 1,0,-1
214 643 m 1,12,-1
 214 571 l 1,13,-1
 143 571 l 1,14,-1
 143 643 l 1,15,-1
 214 643 l 1,12,-1
143 714 m 1,16,-1
 143 643 l 1,17,-1
 71 643 l 1,18,-1
 71 714 l 1,19,-1
 143 714 l 1,16,-1
EndSplineSet
EndChar

StartChar: Eacute
Encoding: 201 201 134
Width: 428
Flags: W
LayerCount: 2
Fore
SplineSet
357 429 m 1,0,-1
 357 500 l 1,1,-1
 0 500 l 1,2,-1
 0 0 l 1,3,-1
 357 0 l 1,4,-1
 357 71 l 1,5,-1
 71 71 l 1,6,-1
 71 214 l 1,7,-1
 357 214 l 1,8,-1
 357 286 l 1,9,-1
 71 286 l 1,10,-1
 71 429 l 1,11,-1
 357 429 l 1,12,-1
 357 429 l 1,0,-1
214 643 m 1,13,-1
 214 571 l 1,14,-1
 143 571 l 1,15,-1
 143 643 l 1,16,-1
 214 643 l 1,13,-1
286 714 m 1,17,-1
 286 643 l 1,18,-1
 214 643 l 1,19,-1
 214 714 l 1,20,-1
 286 714 l 1,17,-1
EndSplineSet
EndChar

StartChar: Ecircumflex
Encoding: 202 202 135
Width: 428
Flags: W
LayerCount: 2
Fore
SplineSet
357 429 m 1,0,-1
 71 429 l 1,1,-1
 71 286 l 1,2,-1
 357 286 l 1,3,-1
 357 214 l 1,4,-1
 71 214 l 1,5,-1
 71 71 l 1,6,-1
 357 71 l 1,7,-1
 357 0 l 1,8,-1
 0 0 l 1,9,-1
 0 500 l 1,10,-1
 357 500 l 1,11,-1
 357 429 l 1,0,-1
71 643 m 1,12,-1
 143 643 l 1,13,-1
 143 571 l 1,14,-1
 71 571 l 1,15,-1
 71 643 l 1,12,-1
214 714 m 1,16,-1
 214 643 l 1,17,-1
 143 643 l 1,18,-1
 143 714 l 1,19,-1
 214 714 l 1,16,-1
286 643 m 1,20,-1
 286 571 l 1,21,-1
 214 571 l 1,22,-1
 214 643 l 1,23,-1
 286 643 l 1,20,-1
EndSplineSet
EndChar

StartChar: Edieresis
Encoding: 203 203 136
Width: 428
Flags: W
LayerCount: 2
Fore
SplineSet
357 429 m 1,0,-1
 71 429 l 1,1,-1
 71 286 l 1,2,-1
 357 286 l 1,3,-1
 357 214 l 1,4,-1
 71 214 l 1,5,-1
 71 71 l 1,6,-1
 357 71 l 1,7,-1
 357 0 l 1,8,-1
 0 0 l 1,9,-1
 0 500 l 1,10,-1
 357 500 l 1,11,-1
 357 429 l 1,0,-1
71 643 m 1,12,-1
 143 643 l 1,13,-1
 143 571 l 1,14,-1
 71 571 l 1,15,-1
 71 643 l 1,12,-1
286 643 m 1,16,-1
 286 571 l 1,17,-1
 214 571 l 1,18,-1
 214 643 l 1,19,-1
 286 643 l 1,16,-1
EndSplineSet
EndChar

StartChar: Igrave
Encoding: 204 204 137
Width: 285
Flags: W
LayerCount: 2
Fore
SplineSet
71 643 m 1,0,-1
 143 643 l 1,1,-1
 143 571 l 1,2,-1
 71 571 l 1,3,-1
 71 643 l 1,0,-1
0 714 m 1,4,-1
 71 714 l 1,5,-1
 71 643 l 1,6,-1
 0 643 l 1,7,-1
 0 714 l 1,4,-1
214 429 m 1,8,-1
 143 429 l 1,9,-1
 143 71 l 1,10,-1
 214 71 l 1,11,-1
 214 0 l 1,12,-1
 0 0 l 1,13,-1
 0 71 l 1,14,-1
 71 71 l 1,15,-1
 71 429 l 1,16,-1
 0 429 l 1,17,-1
 0 500 l 1,18,-1
 214 500 l 1,19,-1
 214 429 l 1,8,-1
EndSplineSet
EndChar

StartChar: Iacute
Encoding: 205 205 138
Width: 285
Flags: W
LayerCount: 2
Fore
SplineSet
143 643 m 1,0,-1
 143 571 l 1,1,-1
 71 571 l 1,2,-1
 71 643 l 1,3,-1
 143 643 l 1,4,-1
 143 643 l 1,0,-1
214 714 m 1,5,-1
 214 643 l 1,6,-1
 143 643 l 1,7,-1
 143 714 l 1,8,-1
 214 714 l 1,9,-1
 214 714 l 1,5,-1
214 429 m 1,10,-1
 214 500 l 1,11,-1
 0 500 l 1,12,-1
 0 429 l 1,13,-1
 71 429 l 1,14,-1
 71 71 l 1,15,-1
 0 71 l 1,16,-1
 0 0 l 1,17,-1
 214 0 l 1,18,-1
 214 71 l 1,19,-1
 143 71 l 1,20,-1
 143 429 l 1,21,-1
 214 429 l 1,22,-1
 214 429 l 1,10,-1
EndSplineSet
EndChar

StartChar: Icircumflex
Encoding: 206 206 139
Width: 285
Flags: W
LayerCount: 2
Fore
SplineSet
0 571 m 1,0,-1
 0 643 l 1,1,-1
 71 643 l 1,2,-1
 71 571 l 1,3,-1
 0 571 l 1,0,-1
71 714 m 1,4,-1
 143 714 l 1,5,-1
 143 643 l 1,6,-1
 71 643 l 1,7,-1
 71 714 l 1,4,-1
143 643 m 1,8,-1
 214 643 l 1,9,-1
 214 571 l 1,10,-1
 143 571 l 1,11,-1
 143 643 l 1,8,-1
214 429 m 1,12,-1
 143 429 l 1,13,-1
 143 71 l 1,14,-1
 214 71 l 1,15,-1
 214 0 l 1,16,-1
 0 0 l 1,17,-1
 0 71 l 1,18,-1
 71 71 l 1,19,-1
 71 429 l 1,20,-1
 0 429 l 1,21,-1
 0 500 l 1,22,-1
 214 500 l 1,23,-1
 214 429 l 1,12,-1
EndSplineSet
EndChar

StartChar: Idieresis
Encoding: 207 207 140
Width: 285
Flags: W
LayerCount: 2
Fore
SplineSet
0 571 m 1,0,-1
 0 643 l 1,1,-1
 71 643 l 1,2,-1
 71 571 l 1,3,-1
 0 571 l 1,0,-1
143 643 m 1,4,-1
 214 643 l 1,5,-1
 214 571 l 1,6,-1
 143 571 l 1,7,-1
 143 643 l 1,4,-1
214 429 m 1,8,-1
 143 429 l 1,9,-1
 143 71 l 1,10,-1
 214 71 l 1,11,-1
 214 0 l 1,12,-1
 0 0 l 1,13,-1
 0 71 l 1,14,-1
 71 71 l 1,15,-1
 71 429 l 1,16,-1
 0 429 l 1,17,-1
 0 500 l 1,18,-1
 214 500 l 1,19,-1
 214 429 l 1,8,-1
EndSplineSet
EndChar

StartChar: Eth
Encoding: 208 208 141
Width: 500
Flags: W
LayerCount: 2
Fore
SplineSet
143 214 m 1,0,-1
 143 71 l 1,1,-1
 357 71 l 1,2,-1
 357 0 l 1,3,-1
 71 0 l 1,4,-1
 71 214 l 1,5,-1
 0 214 l 1,6,-1
 0 286 l 1,7,-1
 71 286 l 1,8,-1
 71 500 l 1,9,-1
 357 500 l 1,10,-1
 357 429 l 1,11,-1
 143 429 l 1,12,-1
 143 286 l 1,13,-1
 214 286 l 1,14,-1
 214 214 l 1,15,-1
 143 214 l 1,0,-1
357 429 m 1,16,-1
 429 429 l 1,17,-1
 429 71 l 1,18,-1
 357 71 l 1,19,-1
 357 429 l 1,16,-1
EndSplineSet
EndChar

StartChar: Ntilde
Encoding: 209 209 142
Width: 428
Flags: W
LayerCount: 2
Fore
SplineSet
71 357 m 1,0,-1
 143 357 l 1,1,-1
 143 286 l 1,2,-1
 71 286 l 1,3,-1
 71 0 l 1,4,-1
 0 0 l 1,5,-1
 0 500 l 1,6,-1
 71 500 l 1,7,-1
 71 357 l 1,0,-1
143 286 m 1,8,-1
 214 286 l 1,9,-1
 214 214 l 1,10,-1
 143 214 l 1,11,-1
 143 286 l 1,8,-1
286 500 m 1,12,-1
 357 500 l 1,13,-1
 357 0 l 1,14,-1
 286 0 l 1,15,-1
 286 143 l 1,16,-1
 214 143 l 1,17,-1
 214 214 l 1,18,-1
 286 214 l 1,19,-1
 286 500 l 1,12,-1
286 643 m 1,20,-1
 286 571 l 1,21,-1
 71 571 l 1,22,-1
 71 643 l 1,23,-1
 286 643 l 1,20,-1
EndSplineSet
EndChar

StartChar: Ograve
Encoding: 210 210 143
Width: 428
Flags: W
LayerCount: 2
Fore
SplineSet
214 643 m 1,0,-1
 214 571 l 1,1,-1
 143 571 l 1,2,-1
 143 643 l 1,3,-1
 214 643 l 1,0,-1
143 714 m 1,4,-1
 143 643 l 1,5,-1
 71 643 l 1,6,-1
 71 714 l 1,7,-1
 143 714 l 1,4,-1
71 0 m 1,8,-1
 71 71 l 1,9,-1
 286 71 l 1,10,-1
 286 0 l 1,11,-1
 71 0 l 1,8,-1
0 429 m 1,12,-1
 71 429 l 1,13,-1
 71 71 l 1,14,-1
 0 71 l 1,15,-1
 0 429 l 1,12,-1
286 500 m 1,16,-1
 286 429 l 1,17,-1
 71 429 l 1,18,-1
 71 500 l 1,19,-1
 286 500 l 1,16,-1
286 429 m 1,20,-1
 357 429 l 1,21,-1
 357 71 l 1,22,-1
 286 71 l 1,23,-1
 286 429 l 1,20,-1
EndSplineSet
EndChar

StartChar: Oacute
Encoding: 211 211 144
Width: 428
Flags: W
LayerCount: 2
Fore
SplineSet
214 643 m 1,0,-1
 214 571 l 1,1,-1
 143 571 l 1,2,-1
 143 643 l 1,3,-1
 214 643 l 1,0,-1
286 714 m 1,4,-1
 286 643 l 1,5,-1
 214 643 l 1,6,-1
 214 714 l 1,7,-1
 286 714 l 1,4,-1
71 0 m 1,8,-1
 286 0 l 1,9,-1
 286 71 l 1,10,-1
 71 71 l 1,11,-1
 71 0 l 1,12,-1
 71 0 l 1,8,-1
0 429 m 1,13,-1
 0 71 l 1,14,-1
 71 71 l 1,15,-1
 71 429 l 1,16,-1
 0 429 l 1,17,-1
 0 429 l 1,13,-1
286 500 m 1,18,-1
 71 500 l 1,19,-1
 71 429 l 1,20,-1
 286 429 l 1,21,-1
 286 500 l 1,22,-1
 286 500 l 1,18,-1
286 429 m 1,23,-1
 286 71 l 1,24,-1
 357 71 l 1,25,-1
 357 429 l 1,26,-1
 286 429 l 1,27,-1
 286 429 l 1,23,-1
EndSplineSet
EndChar

StartChar: Ocircumflex
Encoding: 212 212 145
Width: 428
Flags: W
LayerCount: 2
Fore
SplineSet
71 643 m 1,0,-1
 143 643 l 1,1,-1
 143 571 l 1,2,-1
 71 571 l 1,3,-1
 71 643 l 1,0,-1
214 714 m 1,4,-1
 214 643 l 1,5,-1
 143 643 l 1,6,-1
 143 714 l 1,7,-1
 214 714 l 1,4,-1
286 643 m 1,8,-1
 286 571 l 1,9,-1
 214 571 l 1,10,-1
 214 643 l 1,11,-1
 286 643 l 1,8,-1
71 0 m 1,12,-1
 71 71 l 1,13,-1
 286 71 l 1,14,-1
 286 0 l 1,15,-1
 71 0 l 1,12,-1
0 429 m 1,16,-1
 71 429 l 1,17,-1
 71 71 l 1,18,-1
 0 71 l 1,19,-1
 0 429 l 1,16,-1
286 500 m 1,20,-1
 286 429 l 1,21,-1
 71 429 l 1,22,-1
 71 500 l 1,23,-1
 286 500 l 1,20,-1
286 429 m 1,24,-1
 357 429 l 1,25,-1
 357 71 l 1,26,-1
 286 71 l 1,27,-1
 286 429 l 1,24,-1
EndSplineSet
EndChar

StartChar: Otilde
Encoding: 213 213 146
Width: 428
Flags: W
LayerCount: 2
Fore
SplineSet
286 571 m 1,0,-1
 71 571 l 1,1,-1
 71 643 l 1,2,-1
 286 643 l 1,3,-1
 286 571 l 1,0,-1
71 0 m 1,4,-1
 286 0 l 1,5,-1
 286 71 l 1,6,-1
 71 71 l 1,7,-1
 71 0 l 1,8,-1
 71 0 l 1,4,-1
0 429 m 1,9,-1
 0 71 l 1,10,-1
 71 71 l 1,11,-1
 71 429 l 1,12,-1
 0 429 l 1,13,-1
 0 429 l 1,9,-1
286 500 m 1,14,-1
 71 500 l 1,15,-1
 71 429 l 1,16,-1
 286 429 l 1,17,-1
 286 500 l 1,18,-1
 286 500 l 1,14,-1
286 429 m 1,19,-1
 286 71 l 1,20,-1
 357 71 l 1,21,-1
 357 429 l 1,22,-1
 286 429 l 1,23,-1
 286 429 l 1,19,-1
EndSplineSet
EndChar

StartChar: Odieresis
Encoding: 214 214 147
Width: 428
Flags: W
LayerCount: 2
Fore
SplineSet
71 643 m 1,0,-1
 143 643 l 1,1,-1
 143 571 l 1,2,-1
 71 571 l 1,3,-1
 71 643 l 1,0,-1
286 643 m 1,4,-1
 286 571 l 1,5,-1
 214 571 l 1,6,-1
 214 643 l 1,7,-1
 286 643 l 1,4,-1
71 0 m 1,8,-1
 71 71 l 1,9,-1
 286 71 l 1,10,-1
 286 0 l 1,11,-1
 71 0 l 1,8,-1
0 429 m 1,12,-1
 71 429 l 1,13,-1
 71 71 l 1,14,-1
 0 71 l 1,15,-1
 0 429 l 1,12,-1
286 500 m 1,16,-1
 286 429 l 1,17,-1
 71 429 l 1,18,-1
 71 500 l 1,19,-1
 286 500 l 1,16,-1
286 429 m 1,20,-1
 357 429 l 1,21,-1
 357 71 l 1,22,-1
 286 71 l 1,23,-1
 286 429 l 1,20,-1
EndSplineSet
EndChar

StartChar: multiply
Encoding: 215 215 148
Width: 428
Flags: W
LayerCount: 2
Fore
SplineSet
0 0 m 1,0,-1
 0 71 l 1,1,-1
 71 71 l 1,2,-1
 71 0 l 1,3,-1
 0 0 l 1,0,-1
71 71 m 1,4,-1
 71 143 l 1,5,-1
 143 143 l 1,6,-1
 143 71 l 1,7,-1
 71 71 l 1,4,-1
143 214 m 1,8,-1
 214 214 l 1,9,-1
 214 143 l 1,10,-1
 143 143 l 1,11,-1
 143 214 l 1,8,-1
286 71 m 1,12,-1
 214 71 l 1,13,-1
 214 143 l 1,14,-1
 286 143 l 1,15,-1
 286 71 l 1,12,-1
357 0 m 1,16,-1
 286 0 l 1,17,-1
 286 71 l 1,18,-1
 357 71 l 1,19,-1
 357 0 l 1,16,-1
71 286 m 1,20,-1
 143 286 l 1,21,-1
 143 214 l 1,22,-1
 71 214 l 1,23,-1
 71 286 l 1,20,-1
0 357 m 1,24,-1
 71 357 l 1,25,-1
 71 286 l 1,26,-1
 0 286 l 1,27,-1
 0 357 l 1,24,-1
286 286 m 1,28,-1
 286 214 l 1,29,-1
 214 214 l 1,30,-1
 214 286 l 1,31,-1
 286 286 l 1,28,-1
357 357 m 1,32,-1
 357 286 l 1,33,-1
 286 286 l 1,34,-1
 286 357 l 1,35,-1
 357 357 l 1,32,-1
EndSplineSet
EndChar

StartChar: Oslash
Encoding: 216 216 149
Width: 428
Flags: W
LayerCount: 2
Fore
SplineSet
71 0 m 1,0,-1
 71 71 l 1,1,-1
 286 71 l 1,2,-1
 286 0 l 1,3,-1
 71 0 l 1,0,-1
286 500 m 1,4,-1
 286 429 l 1,5,-1
 71 429 l 1,6,-1
 71 500 l 1,7,-1
 286 500 l 1,4,-1
286 429 m 1,8,-1
 357 429 l 1,9,-1
 357 71 l 1,10,-1
 286 71 l 1,11,-1
 286 286 l 1,12,-1
 214 286 l 1,13,-1
 214 357 l 1,14,-1
 286 357 l 1,15,-1
 286 429 l 1,8,-1
143 143 m 1,16,-1
 71 143 l 1,17,-1
 71 71 l 1,18,-1
 0 71 l 1,19,-1
 0 429 l 1,20,-1
 71 429 l 1,21,-1
 71 214 l 1,22,-1
 143 214 l 1,23,-1
 143 143 l 1,16,-1
143 214 m 1,24,-1
 143 286 l 1,25,-1
 214 286 l 1,26,-1
 214 214 l 1,27,-1
 143 214 l 1,24,-1
EndSplineSet
EndChar

StartChar: Ugrave
Encoding: 217 217 150
Width: 428
Flags: W
LayerCount: 2
Fore
SplineSet
214 643 m 1,0,-1
 214 571 l 1,1,-1
 143 571 l 1,2,-1
 143 643 l 1,3,-1
 214 643 l 1,0,-1
143 714 m 1,4,-1
 143 643 l 1,5,-1
 71 643 l 1,6,-1
 71 714 l 1,7,-1
 143 714 l 1,4,-1
71 0 m 1,8,-1
 71 71 l 1,9,-1
 286 71 l 1,10,-1
 286 0 l 1,11,-1
 71 0 l 1,8,-1
0 500 m 1,12,-1
 71 500 l 1,13,-1
 71 71 l 1,14,-1
 0 71 l 1,15,-1
 0 500 l 1,12,-1
286 500 m 1,16,-1
 357 500 l 1,17,-1
 357 71 l 1,18,-1
 286 71 l 1,19,-1
 286 500 l 1,16,-1
EndSplineSet
EndChar

StartChar: Uacute
Encoding: 218 218 151
Width: 428
Flags: W
LayerCount: 2
Fore
SplineSet
214 643 m 1,0,-1
 214 571 l 1,1,-1
 143 571 l 1,2,-1
 143 643 l 1,3,-1
 214 643 l 1,0,-1
286 714 m 1,4,-1
 286 643 l 1,5,-1
 214 643 l 1,6,-1
 214 714 l 1,7,-1
 286 714 l 1,4,-1
71 0 m 1,8,-1
 286 0 l 1,9,-1
 286 71 l 1,10,-1
 71 71 l 1,11,-1
 71 0 l 1,12,-1
 71 0 l 1,8,-1
0 500 m 1,13,-1
 0 71 l 1,14,-1
 71 71 l 1,15,-1
 71 500 l 1,16,-1
 0 500 l 1,17,-1
 0 500 l 1,13,-1
286 500 m 1,18,-1
 286 71 l 1,19,-1
 357 71 l 1,20,-1
 357 500 l 1,21,-1
 286 500 l 1,22,-1
 286 500 l 1,18,-1
EndSplineSet
EndChar

StartChar: Ucircumflex
Encoding: 219 219 152
Width: 428
Flags: W
LayerCount: 2
Fore
SplineSet
71 643 m 1,0,-1
 143 643 l 1,1,-1
 143 571 l 1,2,-1
 71 571 l 1,3,-1
 71 643 l 1,0,-1
214 714 m 1,4,-1
 214 643 l 1,5,-1
 143 643 l 1,6,-1
 143 714 l 1,7,-1
 214 714 l 1,4,-1
286 643 m 1,8,-1
 286 571 l 1,9,-1
 214 571 l 1,10,-1
 214 643 l 1,11,-1
 286 643 l 1,8,-1
71 0 m 1,12,-1
 71 71 l 1,13,-1
 286 71 l 1,14,-1
 286 0 l 1,15,-1
 71 0 l 1,12,-1
0 500 m 1,16,-1
 71 500 l 1,17,-1
 71 71 l 1,18,-1
 0 71 l 1,19,-1
 0 500 l 1,16,-1
286 500 m 1,20,-1
 357 500 l 1,21,-1
 357 71 l 1,22,-1
 286 71 l 1,23,-1
 286 500 l 1,20,-1
EndSplineSet
EndChar

StartChar: Udieresis
Encoding: 220 220 153
Width: 428
Flags: W
LayerCount: 2
Fore
SplineSet
71 643 m 1,0,-1
 143 643 l 1,1,-1
 143 571 l 1,2,-1
 71 571 l 1,3,-1
 71 643 l 1,0,-1
286 643 m 1,4,-1
 286 571 l 1,5,-1
 214 571 l 1,6,-1
 214 643 l 1,7,-1
 286 643 l 1,4,-1
71 0 m 1,8,-1
 71 71 l 1,9,-1
 286 71 l 1,10,-1
 286 0 l 1,11,-1
 71 0 l 1,8,-1
0 500 m 1,12,-1
 71 500 l 1,13,-1
 71 71 l 1,14,-1
 0 71 l 1,15,-1
 0 500 l 1,12,-1
286 500 m 1,16,-1
 357 500 l 1,17,-1
 357 71 l 1,18,-1
 286 71 l 1,19,-1
 286 500 l 1,16,-1
EndSplineSet
EndChar

StartChar: Yacute
Encoding: 221 221 154
Width: 428
Flags: W
LayerCount: 2
Fore
SplineSet
143 0 m 1,0,-1
 214 0 l 1,1,-1
 214 214 l 1,2,-1
 143 214 l 1,3,-1
 143 0 l 1,0,-1
71 286 m 1,4,-1
 71 214 l 1,5,-1
 143 214 l 1,6,-1
 143 286 l 1,7,-1
 71 286 l 1,4,-1
0 500 m 1,8,-1
 0 286 l 1,9,-1
 71 286 l 1,10,-1
 71 500 l 1,11,-1
 0 500 l 1,8,-1
214 214 m 1,12,-1
 286 214 l 1,13,-1
 286 286 l 1,14,-1
 214 286 l 1,15,-1
 214 214 l 1,12,-1
286 500 m 1,16,-1
 286 286 l 1,17,-1
 357 286 l 1,18,-1
 357 500 l 1,19,-1
 286 500 l 1,16,-1
214 643 m 1,20,-1
 214 571 l 1,21,-1
 143 571 l 1,22,-1
 143 643 l 1,23,-1
 214 643 l 1,20,-1
286 714 m 1,24,-1
 286 643 l 1,25,-1
 214 643 l 1,26,-1
 214 714 l 1,27,-1
 286 714 l 1,24,-1
EndSplineSet
EndChar

StartChar: Thorn
Encoding: 222 222 155
Width: 428
Flags: W
LayerCount: 2
Fore
SplineSet
71 357 m 1,0,-1
 71 143 l 1,1,-1
 286 143 l 1,2,-1
 286 71 l 1,3,-1
 71 71 l 1,4,-1
 71 0 l 1,5,-1
 0 0 l 1,6,-1
 0 500 l 1,7,-1
 71 500 l 1,8,-1
 71 429 l 1,9,-1
 286 429 l 1,10,-1
 286 357 l 1,11,-1
 71 357 l 1,0,-1
286 357 m 1,12,-1
 357 357 l 1,13,-1
 357 143 l 1,14,-1
 286 143 l 1,15,-1
 286 357 l 1,12,-1
EndSplineSet
EndChar

StartChar: germandbls
Encoding: 223 223 156
Width: 428
Flags: W
LayerCount: 2
Fore
SplineSet
0 -71 m 1,0,-1
 0 357 l 1,1,-1
 71 357 l 1,2,-1
 71 -71 l 1,3,-1
 0 -71 l 1,0,-1
71 429 m 1,4,-1
 286 429 l 1,5,-1
 286 357 l 1,6,-1
 71 357 l 1,7,-1
 71 429 l 1,4,-1
357 357 m 1,8,-1
 357 286 l 1,9,-1
 286 286 l 1,10,-1
 286 357 l 1,11,-1
 357 357 l 1,8,-1
143 286 m 1,12,-1
 286 286 l 1,13,-1
 286 214 l 1,14,-1
 143 214 l 1,15,-1
 143 286 l 1,12,-1
357 71 m 1,16,-1
 286 71 l 1,17,-1
 286 214 l 1,18,-1
 357 214 l 1,19,-1
 357 71 l 1,16,-1
143 0 m 1,20,-1
 143 71 l 1,21,-1
 286 71 l 1,22,-1
 286 0 l 1,23,-1
 143 0 l 1,20,-1
EndSplineSet
EndChar

StartChar: agrave
Encoding: 224 224 157
Width: 428
Flags: W
LayerCount: 2
Fore
SplineSet
143 500 m 1,0,-1
 214 500 l 1,1,-1
 214 429 l 1,2,-1
 143 429 l 1,3,-1
 143 500 l 1,0,-1
71 571 m 1,4,-1
 143 571 l 1,5,-1
 143 500 l 1,6,-1
 71 500 l 1,7,-1
 71 571 l 1,4,-1
0 143 m 1,8,-1
 71 143 l 1,9,-1
 71 71 l 1,10,-1
 0 71 l 1,11,-1
 0 143 l 1,8,-1
286 286 m 1,12,-1
 357 286 l 1,13,-1
 357 0 l 1,14,-1
 71 0 l 1,15,-1
 71 71 l 1,16,-1
 286 71 l 1,17,-1
 286 143 l 1,18,-1
 71 143 l 1,19,-1
 71 214 l 1,20,-1
 286 214 l 1,21,-1
 286 286 l 1,12,-1
71 357 m 1,22,-1
 286 357 l 1,23,-1
 286 286 l 1,24,-1
 71 286 l 1,25,-1
 71 357 l 1,22,-1
EndSplineSet
EndChar

StartChar: aacute
Encoding: 225 225 158
Width: 428
Flags: W
LayerCount: 2
Fore
SplineSet
214 500 m 1,0,-1
 214 429 l 1,1,-1
 143 429 l 1,2,-1
 143 500 l 1,3,-1
 214 500 l 1,4,-1
 214 500 l 1,0,-1
286 571 m 1,5,-1
 286 500 l 1,6,-1
 214 500 l 1,7,-1
 214 571 l 1,8,-1
 286 571 l 1,9,-1
 286 571 l 1,5,-1
0 143 m 1,10,-1
 0 71 l 1,11,-1
 71 71 l 1,12,-1
 71 143 l 1,13,-1
 0 143 l 1,14,-1
 0 143 l 1,10,-1
286 286 m 1,15,-1
 286 214 l 1,16,-1
 71 214 l 1,17,-1
 71 143 l 1,18,-1
 286 143 l 1,19,-1
 286 71 l 1,20,-1
 71 71 l 1,21,-1
 71 0 l 1,22,-1
 357 0 l 1,23,-1
 357 286 l 1,24,-1
 286 286 l 1,25,-1
 286 286 l 1,15,-1
71 357 m 1,26,-1
 71 286 l 1,27,-1
 286 286 l 1,28,-1
 286 357 l 1,29,-1
 71 357 l 1,30,-1
 71 357 l 1,26,-1
EndSplineSet
EndChar

StartChar: acircumflex
Encoding: 226 226 159
Width: 428
Flags: W
LayerCount: 2
Fore
SplineSet
71 429 m 1,0,-1
 71 500 l 1,1,-1
 143 500 l 1,2,-1
 143 429 l 1,3,-1
 71 429 l 1,0,-1
143 571 m 1,4,-1
 214 571 l 1,5,-1
 214 500 l 1,6,-1
 143 500 l 1,7,-1
 143 571 l 1,4,-1
214 500 m 1,8,-1
 286 500 l 1,9,-1
 286 429 l 1,10,-1
 214 429 l 1,11,-1
 214 500 l 1,8,-1
0 143 m 1,12,-1
 71 143 l 1,13,-1
 71 71 l 1,14,-1
 0 71 l 1,15,-1
 0 143 l 1,12,-1
286 286 m 1,16,-1
 357 286 l 1,17,-1
 357 0 l 1,18,-1
 71 0 l 1,19,-1
 71 71 l 1,20,-1
 286 71 l 1,21,-1
 286 143 l 1,22,-1
 71 143 l 1,23,-1
 71 214 l 1,24,-1
 286 214 l 1,25,-1
 286 286 l 1,16,-1
71 357 m 1,26,-1
 286 357 l 1,27,-1
 286 286 l 1,28,-1
 71 286 l 1,29,-1
 71 357 l 1,26,-1
EndSplineSet
EndChar

StartChar: atilde
Encoding: 227 227 160
Width: 428
Flags: W
LayerCount: 2
Fore
SplineSet
286 429 m 1,0,-1
 71 429 l 1,1,-1
 71 500 l 1,2,-1
 286 500 l 1,3,-1
 286 429 l 1,4,-1
 286 429 l 1,0,-1
0 143 m 1,5,-1
 0 71 l 1,6,-1
 71 71 l 1,7,-1
 71 143 l 1,8,-1
 0 143 l 1,9,-1
 0 143 l 1,5,-1
286 286 m 1,10,-1
 286 214 l 1,11,-1
 71 214 l 1,12,-1
 71 143 l 1,13,-1
 286 143 l 1,14,-1
 286 71 l 1,15,-1
 71 71 l 1,16,-1
 71 0 l 1,17,-1
 357 0 l 1,18,-1
 357 286 l 1,19,-1
 286 286 l 1,20,-1
 286 286 l 1,10,-1
71 357 m 1,21,-1
 71 286 l 1,22,-1
 286 286 l 1,23,-1
 286 357 l 1,24,-1
 71 357 l 1,25,-1
 71 357 l 1,21,-1
EndSplineSet
EndChar

StartChar: adieresis
Encoding: 228 228 161
Width: 428
Flags: W
LayerCount: 2
Fore
SplineSet
71 429 m 1,0,-1
 71 500 l 1,1,-1
 143 500 l 1,2,-1
 143 429 l 1,3,-1
 71 429 l 1,0,-1
214 500 m 1,4,-1
 286 500 l 1,5,-1
 286 429 l 1,6,-1
 214 429 l 1,7,-1
 214 500 l 1,4,-1
0 143 m 1,8,-1
 71 143 l 1,9,-1
 71 71 l 1,10,-1
 0 71 l 1,11,-1
 0 143 l 1,8,-1
286 286 m 1,12,-1
 357 286 l 1,13,-1
 357 0 l 1,14,-1
 71 0 l 1,15,-1
 71 71 l 1,16,-1
 286 71 l 1,17,-1
 286 143 l 1,18,-1
 71 143 l 1,19,-1
 71 214 l 1,20,-1
 286 214 l 1,21,-1
 286 286 l 1,12,-1
71 357 m 1,22,-1
 286 357 l 1,23,-1
 286 286 l 1,24,-1
 71 286 l 1,25,-1
 71 357 l 1,22,-1
EndSplineSet
EndChar

StartChar: aring
Encoding: 229 229 162
Width: 428
Flags: W
LayerCount: 2
Fore
SplineSet
143 429 m 1,0,-1
 143 500 l 1,1,-1
 214 500 l 1,2,-1
 214 429 l 1,3,-1
 143 429 l 1,0,-1
71 571 m 1,4,-1
 143 571 l 1,5,-1
 143 500 l 1,6,-1
 71 500 l 1,7,-1
 71 571 l 1,4,-1
214 643 m 1,8,-1
 214 571 l 1,9,-1
 143 571 l 1,10,-1
 143 643 l 1,11,-1
 214 643 l 1,8,-1
214 571 m 1,12,-1
 286 571 l 1,13,-1
 286 500 l 1,14,-1
 214 500 l 1,15,-1
 214 571 l 1,12,-1
0 143 m 1,16,-1
 71 143 l 1,17,-1
 71 71 l 1,18,-1
 0 71 l 1,19,-1
 0 143 l 1,16,-1
286 286 m 1,20,-1
 357 286 l 1,21,-1
 357 0 l 1,22,-1
 71 0 l 1,23,-1
 71 71 l 1,24,-1
 286 71 l 1,25,-1
 286 143 l 1,26,-1
 71 143 l 1,27,-1
 71 214 l 1,28,-1
 286 214 l 1,29,-1
 286 286 l 1,20,-1
71 357 m 1,30,-1
 286 357 l 1,31,-1
 286 286 l 1,32,-1
 71 286 l 1,33,-1
 71 357 l 1,30,-1
EndSplineSet
EndChar

StartChar: ae
Encoding: 230 230 163
Width: 714
Flags: W
LayerCount: 2
Fore
SplineSet
0 143 m 1,0,-1
 71 143 l 1,1,-1
 71 71 l 1,2,-1
 0 71 l 1,3,-1
 0 143 l 1,0,-1
643 143 m 1,4,-1
 357 143 l 1,5,-1
 357 71 l 1,6,-1
 643 71 l 1,7,-1
 643 0 l 1,8,-1
 71 0 l 1,9,-1
 71 71 l 1,10,-1
 286 71 l 1,11,-1
 286 143 l 1,12,-1
 71 143 l 1,13,-1
 71 214 l 1,14,-1
 286 214 l 1,15,-1
 286 286 l 1,16,-1
 357 286 l 1,17,-1
 357 357 l 1,18,-1
 571 357 l 1,19,-1
 571 286 l 1,20,-1
 357 286 l 1,21,-1
 357 214 l 1,22,-1
 571 214 l 1,23,-1
 571 286 l 1,24,-1
 643 286 l 1,25,-1
 643 143 l 1,4,-1
71 357 m 1,26,-1
 286 357 l 1,27,-1
 286 286 l 1,28,-1
 71 286 l 1,29,-1
 71 357 l 1,26,-1
EndSplineSet
EndChar

StartChar: ccedilla
Encoding: 231 231 164
Width: 428
Flags: W
LayerCount: 2
Fore
SplineSet
357 357 m 1,0,-1
 357 286 l 1,1,-1
 71 286 l 1,2,-1
 71 357 l 1,3,-1
 357 357 l 1,0,-1
214 0 m 1,4,-1
 71 0 l 1,5,-1
 71 71 l 1,6,-1
 357 71 l 1,7,-1
 357 0 l 1,8,-1
 286 0 l 1,9,-1
 286 -71 l 1,10,-1
 214 -71 l 1,11,-1
 214 0 l 1,4,-1
0 286 m 1,12,-1
 71 286 l 1,13,-1
 71 71 l 1,14,-1
 0 71 l 1,15,-1
 0 286 l 1,12,-1
143 -143 m 1,16,-1
 143 -71 l 1,17,-1
 214 -71 l 1,18,-1
 214 -143 l 1,19,-1
 143 -143 l 1,16,-1
EndSplineSet
EndChar

StartChar: egrave
Encoding: 232 232 165
Width: 428
Flags: W
LayerCount: 2
Fore
SplineSet
286 357 m 1,0,-1
 286 286 l 1,1,-1
 71 286 l 1,2,-1
 71 357 l 1,3,-1
 286 357 l 1,0,-1
286 286 m 1,4,-1
 357 286 l 1,5,-1
 357 143 l 1,6,-1
 71 143 l 1,7,-1
 71 71 l 1,8,-1
 0 71 l 1,9,-1
 0 286 l 1,10,-1
 71 286 l 1,11,-1
 71 214 l 1,12,-1
 286 214 l 1,13,-1
 286 286 l 1,4,-1
357 0 m 1,14,-1
 71 0 l 1,15,-1
 71 71 l 1,16,-1
 357 71 l 1,17,-1
 357 0 l 1,14,-1
214 500 m 1,18,-1
 214 429 l 1,19,-1
 143 429 l 1,20,-1
 143 500 l 1,21,-1
 214 500 l 1,18,-1
143 571 m 1,22,-1
 143 500 l 1,23,-1
 71 500 l 1,24,-1
 71 571 l 1,25,-1
 143 571 l 1,22,-1
EndSplineSet
EndChar

StartChar: eacute
Encoding: 233 233 166
Width: 428
Flags: W
LayerCount: 2
Fore
SplineSet
286 357 m 1,0,-1
 71 357 l 1,1,-1
 71 286 l 1,2,-1
 286 286 l 1,3,-1
 286 357 l 1,4,-1
 286 357 l 1,0,-1
286 286 m 1,5,-1
 286 214 l 1,6,-1
 71 214 l 1,7,-1
 71 286 l 1,8,-1
 0 286 l 1,9,-1
 0 71 l 1,10,-1
 71 71 l 1,11,-1
 71 143 l 1,12,-1
 357 143 l 1,13,-1
 357 286 l 1,14,-1
 286 286 l 1,15,-1
 286 286 l 1,5,-1
357 0 m 1,16,-1
 357 71 l 1,17,-1
 71 71 l 1,18,-1
 71 0 l 1,19,-1
 357 0 l 1,20,-1
 357 0 l 1,16,-1
214 500 m 1,21,-1
 214 429 l 1,22,-1
 143 429 l 1,23,-1
 143 500 l 1,24,-1
 214 500 l 1,21,-1
286 571 m 1,25,-1
 286 500 l 1,26,-1
 214 500 l 1,27,-1
 214 571 l 1,28,-1
 286 571 l 1,25,-1
EndSplineSet
EndChar

StartChar: ecircumflex
Encoding: 234 234 167
Width: 428
Flags: W
LayerCount: 2
Fore
SplineSet
286 357 m 1,0,-1
 286 286 l 1,1,-1
 71 286 l 1,2,-1
 71 357 l 1,3,-1
 286 357 l 1,0,-1
286 286 m 1,4,-1
 357 286 l 1,5,-1
 357 143 l 1,6,-1
 71 143 l 1,7,-1
 71 71 l 1,8,-1
 0 71 l 1,9,-1
 0 286 l 1,10,-1
 71 286 l 1,11,-1
 71 214 l 1,12,-1
 286 214 l 1,13,-1
 286 286 l 1,4,-1
357 0 m 1,14,-1
 71 0 l 1,15,-1
 71 71 l 1,16,-1
 357 71 l 1,17,-1
 357 0 l 1,14,-1
71 500 m 1,18,-1
 143 500 l 1,19,-1
 143 429 l 1,20,-1
 71 429 l 1,21,-1
 71 500 l 1,18,-1
214 571 m 1,22,-1
 214 500 l 1,23,-1
 143 500 l 1,24,-1
 143 571 l 1,25,-1
 214 571 l 1,22,-1
286 500 m 1,26,-1
 286 429 l 1,27,-1
 214 429 l 1,28,-1
 214 500 l 1,29,-1
 286 500 l 1,26,-1
EndSplineSet
EndChar

StartChar: edieresis
Encoding: 235 235 168
Width: 428
Flags: W
LayerCount: 2
Fore
SplineSet
286 357 m 1,0,-1
 286 286 l 1,1,-1
 71 286 l 1,2,-1
 71 357 l 1,3,-1
 286 357 l 1,0,-1
286 286 m 1,4,-1
 357 286 l 1,5,-1
 357 143 l 1,6,-1
 71 143 l 1,7,-1
 71 71 l 1,8,-1
 0 71 l 1,9,-1
 0 286 l 1,10,-1
 71 286 l 1,11,-1
 71 214 l 1,12,-1
 286 214 l 1,13,-1
 286 286 l 1,4,-1
357 0 m 1,14,-1
 71 0 l 1,15,-1
 71 71 l 1,16,-1
 357 71 l 1,17,-1
 357 0 l 1,14,-1
71 500 m 1,18,-1
 143 500 l 1,19,-1
 143 429 l 1,20,-1
 71 429 l 1,21,-1
 71 500 l 1,18,-1
286 500 m 1,22,-1
 286 429 l 1,23,-1
 214 429 l 1,24,-1
 214 500 l 1,25,-1
 286 500 l 1,22,-1
EndSplineSet
EndChar

StartChar: igrave
Encoding: 236 236 169
Width: 214
Flags: W
LayerCount: 2
Fore
SplineSet
71 500 m 1,0,-1
 143 500 l 1,1,-1
 143 429 l 1,2,-1
 71 429 l 1,3,-1
 71 500 l 1,0,-1
0 571 m 1,4,-1
 71 571 l 1,5,-1
 71 500 l 1,6,-1
 0 500 l 1,7,-1
 0 571 l 1,4,-1
71 0 m 1,8,-1
 71 357 l 1,9,-1
 143 357 l 1,10,-1
 143 0 l 1,11,-1
 71 0 l 1,8,-1
EndSplineSet
EndChar

StartChar: iacute
Encoding: 237 237 170
Width: 214
Flags: W
LayerCount: 2
Fore
SplineSet
71 500 m 1,0,-1
 71 429 l 1,1,-1
 0 429 l 1,2,-1
 0 500 l 1,3,-1
 71 500 l 1,4,-1
 71 500 l 1,0,-1
143 571 m 1,5,-1
 143 500 l 1,6,-1
 71 500 l 1,7,-1
 71 571 l 1,8,-1
 143 571 l 1,9,-1
 143 571 l 1,5,-1
0 0 m 1,10,-1
 71 0 l 1,11,-1
 71 357 l 1,12,-1
 0 357 l 1,13,-1
 0 0 l 1,14,-1
 0 0 l 1,10,-1
EndSplineSet
EndChar

StartChar: icircumflex
Encoding: 238 238 171
Width: 285
Flags: W
LayerCount: 2
Fore
SplineSet
0 429 m 1,0,-1
 0 500 l 1,1,-1
 71 500 l 1,2,-1
 71 429 l 1,3,-1
 0 429 l 1,0,-1
71 571 m 1,4,-1
 143 571 l 1,5,-1
 143 500 l 1,6,-1
 71 500 l 1,7,-1
 71 571 l 1,4,-1
143 500 m 1,8,-1
 214 500 l 1,9,-1
 214 429 l 1,10,-1
 143 429 l 1,11,-1
 143 500 l 1,8,-1
71 0 m 1,12,-1
 71 357 l 1,13,-1
 143 357 l 1,14,-1
 143 0 l 1,15,-1
 71 0 l 1,12,-1
EndSplineSet
EndChar

StartChar: idieresis
Encoding: 239 239 172
Width: 285
Flags: W
LayerCount: 2
Fore
SplineSet
0 429 m 1,0,-1
 0 500 l 1,1,-1
 71 500 l 1,2,-1
 71 429 l 1,3,-1
 0 429 l 1,0,-1
143 500 m 1,4,-1
 214 500 l 1,5,-1
 214 429 l 1,6,-1
 143 429 l 1,7,-1
 143 500 l 1,4,-1
71 0 m 1,8,-1
 71 357 l 1,9,-1
 143 357 l 1,10,-1
 143 0 l 1,11,-1
 71 0 l 1,8,-1
EndSplineSet
EndChar

StartChar: eth
Encoding: 240 240 173
Width: 428
Flags: W
LayerCount: 2
Fore
SplineSet
0 214 m 1,0,-1
 71 214 l 1,1,-1
 71 71 l 1,2,-1
 0 71 l 1,3,-1
 0 214 l 1,0,-1
71 0 m 1,4,-1
 71 71 l 1,5,-1
 286 71 l 1,6,-1
 286 0 l 1,7,-1
 71 0 l 1,4,-1
214 286 m 1,8,-1
 286 286 l 1,9,-1
 286 357 l 1,10,-1
 357 357 l 1,11,-1
 357 71 l 1,12,-1
 286 71 l 1,13,-1
 286 214 l 1,14,-1
 71 214 l 1,15,-1
 71 286 l 1,16,-1
 143 286 l 1,17,-1
 143 357 l 1,18,-1
 214 357 l 1,19,-1
 214 286 l 1,8,-1
214 429 m 1,20,-1
 286 429 l 1,21,-1
 286 357 l 1,22,-1
 214 357 l 1,23,-1
 214 429 l 1,20,-1
143 500 m 1,24,-1
 214 500 l 1,25,-1
 214 429 l 1,26,-1
 143 429 l 1,27,-1
 143 500 l 1,24,-1
357 500 m 1,28,-1
 357 429 l 1,29,-1
 286 429 l 1,30,-1
 286 500 l 1,31,-1
 357 500 l 1,28,-1
EndSplineSet
EndChar

StartChar: ntilde
Encoding: 241 241 174
Width: 428
Flags: W
LayerCount: 2
Fore
SplineSet
0 357 m 1,0,-1
 286 357 l 1,1,-1
 286 286 l 1,2,-1
 71 286 l 1,3,-1
 71 0 l 1,4,-1
 0 0 l 1,5,-1
 0 357 l 1,0,-1
286 286 m 1,6,-1
 357 286 l 1,7,-1
 357 0 l 1,8,-1
 286 0 l 1,9,-1
 286 286 l 1,6,-1
286 500 m 1,10,-1
 286 429 l 1,11,-1
 71 429 l 1,12,-1
 71 500 l 1,13,-1
 286 500 l 1,10,-1
EndSplineSet
EndChar

StartChar: ograve
Encoding: 242 242 175
Width: 428
Flags: W
LayerCount: 2
Fore
SplineSet
214 500 m 1,0,-1
 214 429 l 1,1,-1
 143 429 l 1,2,-1
 143 500 l 1,3,-1
 214 500 l 1,0,-1
143 571 m 1,4,-1
 143 500 l 1,5,-1
 71 500 l 1,6,-1
 71 571 l 1,7,-1
 143 571 l 1,4,-1
0 286 m 1,8,-1
 71 286 l 1,9,-1
 71 71 l 1,10,-1
 0 71 l 1,11,-1
 0 286 l 1,8,-1
71 0 m 1,12,-1
 71 71 l 1,13,-1
 286 71 l 1,14,-1
 286 0 l 1,15,-1
 71 0 l 1,12,-1
286 286 m 1,16,-1
 357 286 l 1,17,-1
 357 71 l 1,18,-1
 286 71 l 1,19,-1
 286 286 l 1,16,-1
286 357 m 1,20,-1
 286 286 l 1,21,-1
 71 286 l 1,22,-1
 71 357 l 1,23,-1
 286 357 l 1,20,-1
EndSplineSet
EndChar

StartChar: oacute
Encoding: 243 243 176
Width: 428
Flags: W
LayerCount: 2
Fore
SplineSet
214 500 m 1,0,-1
 214 429 l 1,1,-1
 143 429 l 1,2,-1
 143 500 l 1,3,-1
 214 500 l 1,0,-1
286 571 m 1,4,-1
 286 500 l 1,5,-1
 214 500 l 1,6,-1
 214 571 l 1,7,-1
 286 571 l 1,4,-1
0 286 m 1,8,-1
 0 71 l 1,9,-1
 71 71 l 1,10,-1
 71 286 l 1,11,-1
 0 286 l 1,12,-1
 0 286 l 1,8,-1
71 0 m 1,13,-1
 286 0 l 1,14,-1
 286 71 l 1,15,-1
 71 71 l 1,16,-1
 71 0 l 1,17,-1
 71 0 l 1,13,-1
286 286 m 1,18,-1
 286 71 l 1,19,-1
 357 71 l 1,20,-1
 357 286 l 1,21,-1
 286 286 l 1,22,-1
 286 286 l 1,18,-1
286 357 m 1,23,-1
 71 357 l 1,24,-1
 71 286 l 1,25,-1
 286 286 l 1,26,-1
 286 357 l 1,27,-1
 286 357 l 1,23,-1
EndSplineSet
EndChar

StartChar: ocircumflex
Encoding: 244 244 177
Width: 428
Flags: W
LayerCount: 2
Fore
SplineSet
71 500 m 1,0,-1
 143 500 l 1,1,-1
 143 429 l 1,2,-1
 71 429 l 1,3,-1
 71 500 l 1,0,-1
214 571 m 1,4,-1
 214 500 l 1,5,-1
 143 500 l 1,6,-1
 143 571 l 1,7,-1
 214 571 l 1,4,-1
286 500 m 1,8,-1
 286 429 l 1,9,-1
 214 429 l 1,10,-1
 214 500 l 1,11,-1
 286 500 l 1,8,-1
0 286 m 1,12,-1
 71 286 l 1,13,-1
 71 71 l 1,14,-1
 0 71 l 1,15,-1
 0 286 l 1,12,-1
71 0 m 1,16,-1
 71 71 l 1,17,-1
 286 71 l 1,18,-1
 286 0 l 1,19,-1
 71 0 l 1,16,-1
286 286 m 1,20,-1
 357 286 l 1,21,-1
 357 71 l 1,22,-1
 286 71 l 1,23,-1
 286 286 l 1,20,-1
286 357 m 1,24,-1
 286 286 l 1,25,-1
 71 286 l 1,26,-1
 71 357 l 1,27,-1
 286 357 l 1,24,-1
EndSplineSet
EndChar

StartChar: otilde
Encoding: 245 245 178
Width: 428
Flags: W
LayerCount: 2
Fore
SplineSet
286 429 m 1,0,-1
 71 429 l 1,1,-1
 71 500 l 1,2,-1
 286 500 l 1,3,-1
 286 429 l 1,0,-1
0 286 m 1,4,-1
 0 71 l 1,5,-1
 71 71 l 1,6,-1
 71 286 l 1,7,-1
 0 286 l 1,8,-1
 0 286 l 1,4,-1
71 0 m 1,9,-1
 286 0 l 1,10,-1
 286 71 l 1,11,-1
 71 71 l 1,12,-1
 71 0 l 1,13,-1
 71 0 l 1,9,-1
286 286 m 1,14,-1
 286 71 l 1,15,-1
 357 71 l 1,16,-1
 357 286 l 1,17,-1
 286 286 l 1,18,-1
 286 286 l 1,14,-1
286 357 m 1,19,-1
 71 357 l 1,20,-1
 71 286 l 1,21,-1
 286 286 l 1,22,-1
 286 357 l 1,23,-1
 286 357 l 1,19,-1
EndSplineSet
EndChar

StartChar: odieresis
Encoding: 246 246 179
Width: 428
Flags: W
LayerCount: 2
Fore
SplineSet
71 500 m 1,0,-1
 143 500 l 1,1,-1
 143 429 l 1,2,-1
 71 429 l 1,3,-1
 71 500 l 1,0,-1
286 500 m 1,4,-1
 286 429 l 1,5,-1
 214 429 l 1,6,-1
 214 500 l 1,7,-1
 286 500 l 1,4,-1
0 286 m 1,8,-1
 71 286 l 1,9,-1
 71 71 l 1,10,-1
 0 71 l 1,11,-1
 0 286 l 1,8,-1
71 0 m 1,12,-1
 71 71 l 1,13,-1
 286 71 l 1,14,-1
 286 0 l 1,15,-1
 71 0 l 1,12,-1
286 286 m 1,16,-1
 357 286 l 1,17,-1
 357 71 l 1,18,-1
 286 71 l 1,19,-1
 286 286 l 1,16,-1
286 357 m 1,20,-1
 286 286 l 1,21,-1
 71 286 l 1,22,-1
 71 357 l 1,23,-1
 286 357 l 1,20,-1
EndSplineSet
EndChar

StartChar: divide
Encoding: 247 247 180
Width: 428
Flags: W
LayerCount: 2
Fore
SplineSet
0 214 m 1,0,-1
 357 214 l 1,1,-1
 357 143 l 1,2,-1
 0 143 l 1,3,-1
 0 214 l 1,0,-1
214 357 m 1,4,-1
 214 286 l 1,5,-1
 143 286 l 1,6,-1
 143 357 l 1,7,-1
 214 357 l 1,4,-1
143 0 m 1,8,-1
 143 71 l 1,9,-1
 214 71 l 1,10,-1
 214 0 l 1,11,-1
 143 0 l 1,8,-1
EndSplineSet
EndChar

StartChar: oslash
Encoding: 248 248 181
Width: 428
Flags: W
LayerCount: 2
Fore
SplineSet
286 286 m 1,0,-1
 357 286 l 1,1,-1
 357 71 l 1,2,-1
 286 71 l 1,3,-1
 286 214 l 1,4,-1
 214 214 l 1,5,-1
 214 143 l 1,6,-1
 143 143 l 1,7,-1
 143 214 l 1,8,-1
 214 214 l 1,9,-1
 214 286 l 1,10,-1
 71 286 l 1,11,-1
 71 357 l 1,12,-1
 286 357 l 1,13,-1
 286 286 l 1,0,-1
143 143 m 1,14,-1
 143 71 l 1,15,-1
 286 71 l 1,16,-1
 286 0 l 1,17,-1
 71 0 l 1,18,-1
 71 71 l 1,19,-1
 0 71 l 1,20,-1
 0 286 l 1,21,-1
 71 286 l 1,22,-1
 71 143 l 1,23,-1
 143 143 l 1,14,-1
EndSplineSet
EndChar

StartChar: ugrave
Encoding: 249 249 182
Width: 428
Flags: W
LayerCount: 2
Fore
SplineSet
214 500 m 1,0,-1
 214 429 l 1,1,-1
 143 429 l 1,2,-1
 143 500 l 1,3,-1
 214 500 l 1,0,-1
143 571 m 1,4,-1
 143 500 l 1,5,-1
 71 500 l 1,6,-1
 71 571 l 1,7,-1
 143 571 l 1,4,-1
0 357 m 1,8,-1
 71 357 l 1,9,-1
 71 71 l 1,10,-1
 0 71 l 1,11,-1
 0 357 l 1,8,-1
71 0 m 1,12,-1
 71 71 l 1,13,-1
 286 71 l 1,14,-1
 286 0 l 1,15,-1
 71 0 l 1,12,-1
286 357 m 1,16,-1
 357 357 l 1,17,-1
 357 71 l 1,18,-1
 286 71 l 1,19,-1
 286 357 l 1,16,-1
EndSplineSet
EndChar

StartChar: uacute
Encoding: 250 250 183
Width: 428
Flags: W
LayerCount: 2
Fore
SplineSet
214 500 m 1,0,-1
 214 429 l 1,1,-1
 143 429 l 1,2,-1
 143 500 l 1,3,-1
 214 500 l 1,0,-1
286 571 m 1,4,-1
 286 500 l 1,5,-1
 214 500 l 1,6,-1
 214 571 l 1,7,-1
 286 571 l 1,4,-1
0 357 m 1,8,-1
 0 71 l 1,9,-1
 71 71 l 1,10,-1
 71 357 l 1,11,-1
 0 357 l 1,12,-1
 0 357 l 1,8,-1
71 0 m 1,13,-1
 286 0 l 1,14,-1
 286 71 l 1,15,-1
 71 71 l 1,16,-1
 71 0 l 1,17,-1
 71 0 l 1,13,-1
286 357 m 1,18,-1
 286 71 l 1,19,-1
 357 71 l 1,20,-1
 357 357 l 1,21,-1
 286 357 l 1,22,-1
 286 357 l 1,18,-1
EndSplineSet
EndChar

StartChar: ucircumflex
Encoding: 251 251 184
Width: 428
Flags: W
LayerCount: 2
Fore
SplineSet
71 500 m 1,0,-1
 143 500 l 1,1,-1
 143 429 l 1,2,-1
 71 429 l 1,3,-1
 71 500 l 1,0,-1
214 571 m 1,4,-1
 214 500 l 1,5,-1
 143 500 l 1,6,-1
 143 571 l 1,7,-1
 214 571 l 1,4,-1
286 500 m 1,8,-1
 286 429 l 1,9,-1
 214 429 l 1,10,-1
 214 500 l 1,11,-1
 286 500 l 1,8,-1
0 357 m 1,12,-1
 71 357 l 1,13,-1
 71 71 l 1,14,-1
 0 71 l 1,15,-1
 0 357 l 1,12,-1
71 0 m 1,16,-1
 71 71 l 1,17,-1
 286 71 l 1,18,-1
 286 0 l 1,19,-1
 71 0 l 1,16,-1
286 357 m 1,20,-1
 357 357 l 1,21,-1
 357 71 l 1,22,-1
 286 71 l 1,23,-1
 286 357 l 1,20,-1
EndSplineSet
EndChar

StartChar: udieresis
Encoding: 252 252 185
Width: 428
Flags: W
LayerCount: 2
Fore
SplineSet
71 500 m 1,0,-1
 143 500 l 1,1,-1
 143 429 l 1,2,-1
 71 429 l 1,3,-1
 71 500 l 1,0,-1
286 500 m 1,4,-1
 286 429 l 1,5,-1
 214 429 l 1,6,-1
 214 500 l 1,7,-1
 286 500 l 1,4,-1
0 357 m 1,8,-1
 71 357 l 1,9,-1
 71 71 l 1,10,-1
 0 71 l 1,11,-1
 0 357 l 1,8,-1
71 0 m 1,12,-1
 71 71 l 1,13,-1
 286 71 l 1,14,-1
 286 0 l 1,15,-1
 71 0 l 1,12,-1
286 357 m 1,16,-1
 357 357 l 1,17,-1
 357 71 l 1,18,-1
 286 71 l 1,19,-1
 286 357 l 1,16,-1
EndSplineSet
EndChar

StartChar: yacute
Encoding: 253 253 186
Width: 428
Flags: W
LayerCount: 2
Fore
SplineSet
0 357 m 1,0,-1
 0 71 l 1,1,-1
 71 71 l 1,2,-1
 71 357 l 1,3,-1
 0 357 l 1,0,-1
286 357 m 1,4,-1
 286 71 l 1,5,-1
 71 71 l 1,6,-1
 71 0 l 1,7,-1
 286 0 l 1,8,-1
 286 -71 l 1,9,-1
 357 -71 l 1,10,-1
 357 357 l 1,11,-1
 286 357 l 1,4,-1
71 -143 m 1,12,-1
 286 -143 l 1,13,-1
 286 -71 l 1,14,-1
 71 -71 l 1,15,-1
 71 -143 l 1,12,-1
214 500 m 1,16,-1
 214 429 l 1,17,-1
 143 429 l 1,18,-1
 143 500 l 1,19,-1
 214 500 l 1,16,-1
286 571 m 1,20,-1
 286 500 l 1,21,-1
 214 500 l 1,22,-1
 214 571 l 1,23,-1
 286 571 l 1,20,-1
EndSplineSet
EndChar

StartChar: thorn
Encoding: 254 254 187
Width: 428
Flags: W
LayerCount: 2
Fore
SplineSet
71 286 m 1,0,-1
 71 214 l 1,1,-1
 286 214 l 1,2,-1
 286 143 l 1,3,-1
 71 143 l 1,4,-1
 71 0 l 1,5,-1
 0 0 l 1,6,-1
 0 500 l 1,7,-1
 71 500 l 1,8,-1
 71 357 l 1,9,-1
 286 357 l 1,10,-1
 286 286 l 1,11,-1
 71 286 l 1,0,-1
286 286 m 1,12,-1
 357 286 l 1,13,-1
 357 214 l 1,14,-1
 286 214 l 1,15,-1
 286 286 l 1,12,-1
EndSplineSet
EndChar

StartChar: ydieresis
Encoding: 255 255 188
Width: 428
Flags: W
LayerCount: 2
Fore
SplineSet
71 500 m 1,0,-1
 143 500 l 1,1,-1
 143 429 l 1,2,-1
 71 429 l 1,3,-1
 71 500 l 1,0,-1
286 500 m 1,4,-1
 286 429 l 1,5,-1
 214 429 l 1,6,-1
 214 500 l 1,7,-1
 286 500 l 1,4,-1
71 357 m 1,8,-1
 71 71 l 1,9,-1
 0 71 l 1,10,-1
 0 357 l 1,11,-1
 71 357 l 1,8,-1
357 357 m 1,12,-1
 357 -71 l 1,13,-1
 286 -71 l 1,14,-1
 286 0 l 1,15,-1
 71 0 l 1,16,-1
 71 71 l 1,17,-1
 286 71 l 1,18,-1
 286 357 l 1,19,-1
 357 357 l 1,12,-1
71 -71 m 1,20,-1
 286 -71 l 1,21,-1
 286 -143 l 1,22,-1
 71 -143 l 1,23,-1
 71 -71 l 1,20,-1
EndSplineSet
EndChar

StartChar: dotlessi
Encoding: 305 305 189
Width: 142
Flags: W
LayerCount: 2
Fore
SplineSet
0 0 m 1,0,-1
 0 357 l 1,1,-1
 71 357 l 1,2,-1
 71 0 l 1,3,-1
 0 0 l 1,4,-1
 0 0 l 1,0,-1
EndSplineSet
EndChar

StartChar: OE
Encoding: 338 338 190
Width: 714
Flags: W
LayerCount: 2
Fore
SplineSet
286 500 m 1,0,-1
 286 429 l 1,1,-1
 71 429 l 1,2,-1
 71 500 l 1,3,-1
 286 500 l 1,0,-1
643 0 m 1,4,-1
 357 0 l 1,5,-1
 357 71 l 1,6,-1
 643 71 l 1,7,-1
 643 0 l 1,4,-1
71 429 m 1,8,-1
 71 71 l 1,9,-1
 286 71 l 1,10,-1
 286 0 l 1,11,-1
 71 0 l 1,12,-1
 71 71 l 1,13,-1
 0 71 l 1,14,-1
 0 429 l 1,15,-1
 71 429 l 1,8,-1
643 500 m 1,16,-1
 643 429 l 1,17,-1
 357 429 l 1,18,-1
 357 500 l 1,19,-1
 643 500 l 1,16,-1
286 429 m 1,20,-1
 357 429 l 1,21,-1
 357 286 l 1,22,-1
 643 286 l 1,23,-1
 643 214 l 1,24,-1
 357 214 l 1,25,-1
 357 71 l 1,26,-1
 286 71 l 1,27,-1
 286 429 l 1,20,-1
EndSplineSet
EndChar

StartChar: oe
Encoding: 339 339 191
Width: 714
Flags: W
LayerCount: 2
Fore
SplineSet
71 0 m 1,0,-1
 71 71 l 1,1,-1
 286 71 l 1,2,-1
 286 0 l 1,3,-1
 71 0 l 1,0,-1
0 286 m 1,4,-1
 71 286 l 1,5,-1
 71 71 l 1,6,-1
 0 71 l 1,7,-1
 0 286 l 1,4,-1
286 357 m 1,8,-1
 286 286 l 1,9,-1
 71 286 l 1,10,-1
 71 357 l 1,11,-1
 286 357 l 1,8,-1
643 143 m 1,12,-1
 357 143 l 1,13,-1
 357 71 l 1,14,-1
 643 71 l 1,15,-1
 643 0 l 1,16,-1
 357 0 l 1,17,-1
 357 71 l 1,18,-1
 286 71 l 1,19,-1
 286 286 l 1,20,-1
 357 286 l 1,21,-1
 357 357 l 1,22,-1
 571 357 l 1,23,-1
 571 286 l 1,24,-1
 357 286 l 1,25,-1
 357 214 l 1,26,-1
 571 214 l 1,27,-1
 571 286 l 1,28,-1
 643 286 l 1,29,-1
 643 143 l 1,12,-1
EndSplineSet
EndChar

StartChar: Scaron
Encoding: 352 352 192
Width: 428
Flags: W
LayerCount: 2
Fore
SplineSet
143 714 m 1,0,-1
 143 643 l 1,1,-1
 71 643 l 1,2,-1
 71 714 l 1,3,-1
 143 714 l 1,0,-1
143 643 m 1,4,-1
 214 643 l 1,5,-1
 214 571 l 1,6,-1
 143 571 l 1,7,-1
 143 643 l 1,4,-1
286 714 m 1,8,-1
 286 643 l 1,9,-1
 214 643 l 1,10,-1
 214 714 l 1,11,-1
 286 714 l 1,8,-1
0 71 m 1,12,-1
 286 71 l 1,13,-1
 286 0 l 1,14,-1
 0 0 l 1,15,-1
 0 71 l 1,12,-1
286 71 m 1,16,-1
 286 214 l 1,17,-1
 357 214 l 1,18,-1
 357 71 l 1,19,-1
 286 71 l 1,16,-1
71 214 m 1,20,-1
 71 286 l 1,21,-1
 286 286 l 1,22,-1
 286 214 l 1,23,-1
 71 214 l 1,20,-1
71 429 m 1,24,-1
 71 286 l 1,25,-1
 0 286 l 1,26,-1
 0 429 l 1,27,-1
 71 429 l 1,24,-1
357 429 m 1,28,-1
 71 429 l 1,29,-1
 71 500 l 1,30,-1
 357 500 l 1,31,-1
 357 429 l 1,28,-1
EndSplineSet
EndChar

StartChar: scaron
Encoding: 353 353 193
Width: 428
Flags: W
LayerCount: 2
Fore
SplineSet
71 571 m 1,0,-1
 143 571 l 1,1,-1
 143 500 l 1,2,-1
 71 500 l 1,3,-1
 71 571 l 1,0,-1
143 429 m 1,4,-1
 143 500 l 1,5,-1
 214 500 l 1,6,-1
 214 429 l 1,7,-1
 143 429 l 1,4,-1
214 571 m 1,8,-1
 286 571 l 1,9,-1
 286 500 l 1,10,-1
 214 500 l 1,11,-1
 214 571 l 1,8,-1
0 0 m 1,12,-1
 0 71 l 1,13,-1
 286 71 l 1,14,-1
 286 0 l 1,15,-1
 0 0 l 1,12,-1
357 71 m 1,16,-1
 286 71 l 1,17,-1
 286 143 l 1,18,-1
 357 143 l 1,19,-1
 357 71 l 1,16,-1
286 143 m 1,20,-1
 71 143 l 1,21,-1
 71 214 l 1,22,-1
 286 214 l 1,23,-1
 286 143 l 1,20,-1
0 286 m 1,24,-1
 71 286 l 1,25,-1
 71 214 l 1,26,-1
 0 214 l 1,27,-1
 0 286 l 1,24,-1
357 357 m 1,28,-1
 357 286 l 1,29,-1
 71 286 l 1,30,-1
 71 357 l 1,31,-1
 357 357 l 1,28,-1
EndSplineSet
EndChar

StartChar: Ydieresis
Encoding: 376 376 194
Width: 428
Flags: W
LayerCount: 2
Fore
SplineSet
71 643 m 1,0,-1
 143 643 l 1,1,-1
 143 571 l 1,2,-1
 71 571 l 1,3,-1
 71 643 l 1,0,-1
286 643 m 1,4,-1
 286 571 l 1,5,-1
 214 571 l 1,6,-1
 214 643 l 1,7,-1
 286 643 l 1,4,-1
143 0 m 1,8,-1
 143 214 l 1,9,-1
 214 214 l 1,10,-1
 214 0 l 1,11,-1
 143 0 l 1,8,-1
71 286 m 1,12,-1
 143 286 l 1,13,-1
 143 214 l 1,14,-1
 71 214 l 1,15,-1
 71 286 l 1,12,-1
0 500 m 1,16,-1
 71 500 l 1,17,-1
 71 286 l 1,18,-1
 0 286 l 1,19,-1
 0 500 l 1,16,-1
214 214 m 1,20,-1
 214 286 l 1,21,-1
 286 286 l 1,22,-1
 286 214 l 1,23,-1
 214 214 l 1,20,-1
286 500 m 1,24,-1
 357 500 l 1,25,-1
 357 286 l 1,26,-1
 286 286 l 1,27,-1
 286 500 l 1,24,-1
EndSplineSet
EndChar

StartChar: Zcaron
Encoding: 381 381 195
Width: 428
Flags: W
LayerCount: 2
Fore
SplineSet
0 0 m 1,0,-1
 0 143 l 1,1,-1
 71 143 l 1,2,-1
 71 71 l 1,3,-1
 357 71 l 1,4,-1
 357 0 l 1,5,-1
 0 0 l 1,0,-1
71 143 m 1,6,-1
 71 214 l 1,7,-1
 143 214 l 1,8,-1
 143 143 l 1,9,-1
 71 143 l 1,6,-1
143 214 m 1,10,-1
 143 286 l 1,11,-1
 214 286 l 1,12,-1
 214 214 l 1,13,-1
 143 214 l 1,10,-1
214 286 m 1,14,-1
 214 357 l 1,15,-1
 286 357 l 1,16,-1
 286 286 l 1,17,-1
 214 286 l 1,14,-1
0 500 m 1,18,-1
 357 500 l 1,19,-1
 357 357 l 1,20,-1
 286 357 l 1,21,-1
 286 429 l 1,22,-1
 0 429 l 1,23,-1
 0 500 l 1,18,-1
71 714 m 1,24,-1
 143 714 l 1,25,-1
 143 643 l 1,26,-1
 71 643 l 1,27,-1
 71 714 l 1,24,-1
143 571 m 1,28,-1
 143 643 l 1,29,-1
 214 643 l 1,30,-1
 214 571 l 1,31,-1
 143 571 l 1,28,-1
214 714 m 1,32,-1
 286 714 l 1,33,-1
 286 643 l 1,34,-1
 214 643 l 1,35,-1
 214 714 l 1,32,-1
EndSplineSet
EndChar

StartChar: zcaron
Encoding: 382 382 196
Width: 428
Flags: W
LayerCount: 2
Fore
SplineSet
71 571 m 1,0,-1
 143 571 l 1,1,-1
 143 500 l 1,2,-1
 71 500 l 1,3,-1
 71 571 l 1,0,-1
143 429 m 1,4,-1
 143 500 l 1,5,-1
 214 500 l 1,6,-1
 214 429 l 1,7,-1
 143 429 l 1,4,-1
214 571 m 1,8,-1
 286 571 l 1,9,-1
 286 500 l 1,10,-1
 214 500 l 1,11,-1
 214 571 l 1,8,-1
71 143 m 1,12,-1
 143 143 l 1,13,-1
 143 71 l 1,14,-1
 357 71 l 1,15,-1
 357 0 l 1,16,-1
 0 0 l 1,17,-1
 0 71 l 1,18,-1
 71 71 l 1,19,-1
 71 143 l 1,12,-1
214 214 m 1,20,-1
 214 143 l 1,21,-1
 143 143 l 1,22,-1
 143 214 l 1,23,-1
 214 214 l 1,20,-1
286 286 m 1,24,-1
 286 214 l 1,25,-1
 214 214 l 1,26,-1
 214 286 l 1,27,-1
 0 286 l 1,28,-1
 0 357 l 1,29,-1
 357 357 l 1,30,-1
 357 286 l 1,31,-1
 286 286 l 1,24,-1
EndSplineSet
EndChar

StartChar: florin
Encoding: 402 402 197
Width: 428
Flags: W
LayerCount: 2
Fore
SplineSet
71 0 m 1,0,-1
 71 429 l 1,1,-1
 143 429 l 1,2,-1
 143 286 l 1,3,-1
 286 286 l 1,4,-1
 286 214 l 1,5,-1
 143 214 l 1,6,-1
 143 0 l 1,7,-1
 71 0 l 1,8,-1
 71 -71 l 1,9,-1
 0 -71 l 1,10,-1
 0 0 l 1,11,-1
 71 0 l 1,0,-1
286 429 m 1,12,-1
 357 429 l 1,13,-1
 357 357 l 1,14,-1
 286 357 l 1,15,-1
 286 429 l 1,12,-1
143 500 m 1,16,-1
 286 500 l 1,17,-1
 286 429 l 1,18,-1
 143 429 l 1,19,-1
 143 500 l 1,16,-1
EndSplineSet
EndChar

StartChar: circumflex
Encoding: 710 710 198
Width: 285
Flags: W
LayerCount: 2
Fore
SplineSet
0 571 m 1,0,-1
 0 643 l 1,1,-1
 71 643 l 1,2,-1
 71 571 l 1,3,-1
 0 571 l 1,0,-1
71 714 m 1,4,-1
 143 714 l 1,5,-1
 143 643 l 1,6,-1
 71 643 l 1,7,-1
 71 714 l 1,4,-1
143 643 m 1,8,-1
 214 643 l 1,9,-1
 214 571 l 1,10,-1
 143 571 l 1,11,-1
 143 643 l 1,8,-1
EndSplineSet
EndChar

StartChar: tilde
Encoding: 732 732 199
Width: 285
Flags: W
LayerCount: 2
Fore
SplineSet
214 571 m 1,0,-1
 0 571 l 1,1,-1
 0 643 l 1,2,-1
 214 643 l 1,3,-1
 214 571 l 1,4,-1
 214 571 l 1,0,-1
EndSplineSet
EndChar

StartChar: endash
Encoding: 8211 8211 200
Width: 285
Flags: W
LayerCount: 2
Fore
SplineSet
214 143 m 1,0,-1
 0 143 l 1,1,-1
 0 214 l 1,2,-1
 214 214 l 1,3,-1
 214 143 l 1,4,-1
 214 143 l 1,0,-1
EndSplineSet
EndChar

StartChar: emdash
Encoding: 8212 8212 201
Width: 428
Flags: W
LayerCount: 2
Fore
SplineSet
357 143 m 1,0,-1
 0 143 l 1,1,-1
 0 214 l 1,2,-1
 357 214 l 1,3,-1
 357 143 l 1,4,-1
 357 143 l 1,0,-1
EndSplineSet
EndChar

StartChar: quoteleft
Encoding: 8216 8216 202
Width: 214
Flags: W
LayerCount: 2
Fore
SplineSet
71 500 m 1,0,-1
 143 500 l 1,1,-1
 143 429 l 1,2,-1
 71 429 l 1,3,-1
 71 357 l 1,4,-1
 0 357 l 1,5,-1
 0 429 l 1,6,-1
 71 429 l 1,7,-1
 71 500 l 1,8,-1
 71 500 l 1,0,-1
EndSplineSet
EndChar

StartChar: quoteright
Encoding: 8217 8217 203
Width: 214
Flags: W
LayerCount: 2
Fore
SplineSet
71 500 m 1,0,-1
 143 500 l 1,1,-1
 143 429 l 1,2,-1
 71 429 l 1,3,-1
 71 357 l 1,4,-1
 0 357 l 1,5,-1
 0 429 l 1,6,-1
 71 429 l 1,7,-1
 71 500 l 1,8,-1
 71 500 l 1,0,-1
EndSplineSet
EndChar

StartChar: quotesinglbase
Encoding: 8218 8218 204
Width: 214
Flags: W
LayerCount: 2
Fore
SplineSet
71 143 m 1,0,-1
 143 143 l 1,1,-1
 143 71 l 1,2,-1
 71 71 l 1,3,-1
 71 0 l 1,4,-1
 0 0 l 1,5,-1
 0 71 l 1,6,-1
 71 71 l 1,7,-1
 71 143 l 1,8,-1
 71 143 l 1,0,-1
EndSplineSet
EndChar

StartChar: quotedblleft
Encoding: 8220 8220 205
Width: 357
Flags: W
LayerCount: 2
Fore
SplineSet
143 500 m 1,0,-1
 143 429 l 1,1,-1
 214 429 l 1,2,-1
 214 357 l 1,3,-1
 143 357 l 1,4,-1
 143 429 l 1,5,-1
 71 429 l 1,6,-1
 71 500 l 1,7,-1
 143 500 l 1,0,-1
0 357 m 1,8,-1
 0 429 l 1,9,-1
 71 429 l 1,10,-1
 71 357 l 1,11,-1
 0 357 l 1,8,-1
214 500 m 1,12,-1
 286 500 l 1,13,-1
 286 429 l 1,14,-1
 214 429 l 1,15,-1
 214 500 l 1,12,-1
EndSplineSet
EndChar

StartChar: quotedblright
Encoding: 8221 8221 206
Width: 357
Flags: W
LayerCount: 2
Fore
SplineSet
143 500 m 1,0,-1
 143 429 l 1,1,-1
 214 429 l 1,2,-1
 214 357 l 1,3,-1
 143 357 l 1,4,-1
 143 429 l 1,5,-1
 71 429 l 1,6,-1
 71 500 l 1,7,-1
 143 500 l 1,0,-1
0 357 m 1,8,-1
 0 429 l 1,9,-1
 71 429 l 1,10,-1
 71 357 l 1,11,-1
 0 357 l 1,8,-1
214 500 m 1,12,-1
 286 500 l 1,13,-1
 286 429 l 1,14,-1
 214 429 l 1,15,-1
 214 500 l 1,12,-1
EndSplineSet
EndChar

StartChar: quotedblbase
Encoding: 8222 8222 207
Width: 357
Flags: W
LayerCount: 2
Fore
SplineSet
143 143 m 1,0,-1
 143 71 l 1,1,-1
 214 71 l 1,2,-1
 214 0 l 1,3,-1
 143 0 l 1,4,-1
 143 71 l 1,5,-1
 71 71 l 1,6,-1
 71 143 l 1,7,-1
 143 143 l 1,0,-1
0 0 m 1,8,-1
 0 71 l 1,9,-1
 71 71 l 1,10,-1
 71 0 l 1,11,-1
 0 0 l 1,8,-1
214 143 m 1,12,-1
 286 143 l 1,13,-1
 286 71 l 1,14,-1
 214 71 l 1,15,-1
 214 143 l 1,12,-1
EndSplineSet
EndChar

StartChar: dagger
Encoding: 8224 8224 208
Width: 285
Flags: W
LayerCount: 2
Fore
SplineSet
214 286 m 1,0,-1
 143 286 l 1,1,-1
 143 -143 l 1,2,-1
 71 -143 l 1,3,-1
 71 286 l 1,4,-1
 0 286 l 1,5,-1
 0 357 l 1,6,-1
 71 357 l 1,7,-1
 71 500 l 1,8,-1
 143 500 l 1,9,-1
 143 357 l 1,10,-1
 214 357 l 1,11,-1
 214 286 l 1,12,-1
 214 286 l 1,0,-1
EndSplineSet
EndChar

StartChar: daggerdbl
Encoding: 8225 8225 209
Width: 285
Flags: W
LayerCount: 2
Fore
SplineSet
214 286 m 1,0,-1
 143 286 l 1,1,-1
 143 71 l 1,2,-1
 214 71 l 1,3,-1
 214 0 l 1,4,-1
 143 0 l 1,5,-1
 143 -143 l 1,6,-1
 71 -143 l 1,7,-1
 71 0 l 1,8,-1
 0 0 l 1,9,-1
 0 71 l 1,10,-1
 71 71 l 1,11,-1
 71 286 l 1,12,-1
 0 286 l 1,13,-1
 0 357 l 1,14,-1
 71 357 l 1,15,-1
 71 500 l 1,16,-1
 143 500 l 1,17,-1
 143 357 l 1,18,-1
 214 357 l 1,19,-1
 214 286 l 1,20,-1
 214 286 l 1,0,-1
EndSplineSet
EndChar

StartChar: bullet
Encoding: 8226 8226 210
Width: 285
Flags: W
LayerCount: 2
Fore
SplineSet
214 71 m 1,0,-1
 0 71 l 1,1,-1
 0 286 l 1,2,-1
 214 286 l 1,3,-1
 214 71 l 1,4,-1
 214 71 l 1,0,-1
EndSplineSet
EndChar

StartChar: ellipsis
Encoding: 8230 8230 211
Width: 428
Flags: W
LayerCount: 2
Fore
SplineSet
0 0 m 1,0,-1
 0 71 l 1,1,-1
 71 71 l 1,2,-1
 71 0 l 1,3,-1
 0 0 l 1,0,-1
143 0 m 1,4,-1
 143 71 l 1,5,-1
 214 71 l 1,6,-1
 214 0 l 1,7,-1
 143 0 l 1,4,-1
286 71 m 1,8,-1
 357 71 l 1,9,-1
 357 0 l 1,10,-1
 286 0 l 1,11,-1
 286 71 l 1,8,-1
EndSplineSet
EndChar

StartChar: perthousand
Encoding: 8240 8240 212
Width: 1142
Flags: W
LayerCount: 2
Fore
SplineSet
643 571 m 1,0,-1
 643 500 l 1,1,-1
 571 500 l 1,2,-1
 571 571 l 1,3,-1
 643 571 l 1,0,-1
286 214 m 1,4,-1
 286 286 l 1,5,-1
 357 286 l 1,6,-1
 357 214 l 1,7,-1
 286 214 l 1,4,-1
143 71 m 1,8,-1
 143 143 l 1,9,-1
 214 143 l 1,10,-1
 214 71 l 1,11,-1
 143 71 l 1,8,-1
214 143 m 1,12,-1
 214 214 l 1,13,-1
 286 214 l 1,14,-1
 286 143 l 1,15,-1
 214 143 l 1,12,-1
71 0 m 1,16,-1
 71 71 l 1,17,-1
 143 71 l 1,18,-1
 143 0 l 1,19,-1
 71 0 l 1,16,-1
214 571 m 1,20,-1
 214 500 l 1,21,-1
 71 500 l 1,22,-1
 71 571 l 1,23,-1
 214 571 l 1,20,-1
286 357 m 1,24,-1
 214 357 l 1,25,-1
 214 500 l 1,26,-1
 286 500 l 1,27,-1
 286 357 l 1,24,-1
71 286 m 1,28,-1
 71 357 l 1,29,-1
 214 357 l 1,30,-1
 214 286 l 1,31,-1
 71 286 l 1,28,-1
71 500 m 1,32,-1
 71 357 l 1,33,-1
 0 357 l 1,34,-1
 0 500 l 1,35,-1
 71 500 l 1,32,-1
429 214 m 1,36,-1
 500 214 l 1,37,-1
 500 71 l 1,38,-1
 429 71 l 1,39,-1
 429 214 l 1,36,-1
643 286 m 1,40,-1
 643 214 l 1,41,-1
 500 214 l 1,42,-1
 500 286 l 1,43,-1
 643 286 l 1,40,-1
643 71 m 1,44,-1
 643 214 l 1,45,-1
 714 214 l 1,46,-1
 714 71 l 1,47,-1
 643 71 l 1,44,-1
571 500 m 1,48,-1
 571 429 l 1,49,-1
 500 429 l 1,50,-1
 500 500 l 1,51,-1
 571 500 l 1,48,-1
500 0 m 1,52,-1
 500 71 l 1,53,-1
 643 71 l 1,54,-1
 643 0 l 1,55,-1
 500 0 l 1,52,-1
500 429 m 1,56,-1
 500 357 l 1,57,-1
 429 357 l 1,58,-1
 429 429 l 1,59,-1
 500 429 l 1,56,-1
429 357 m 1,60,-1
 429 286 l 1,61,-1
 357 286 l 1,62,-1
 357 357 l 1,63,-1
 429 357 l 1,60,-1
786 214 m 1,64,-1
 857 214 l 1,65,-1
 857 71 l 1,66,-1
 786 71 l 1,67,-1
 786 214 l 1,64,-1
857 0 m 1,68,-1
 857 71 l 1,69,-1
 1000 71 l 1,70,-1
 1000 0 l 1,71,-1
 857 0 l 1,68,-1
1000 214 m 1,72,-1
 1071 214 l 1,73,-1
 1071 71 l 1,74,-1
 1000 71 l 1,75,-1
 1000 214 l 1,72,-1
1000 286 m 1,76,-1
 1000 214 l 1,77,-1
 857 214 l 1,78,-1
 857 286 l 1,79,-1
 1000 286 l 1,76,-1
EndSplineSet
EndChar

StartChar: guilsinglleft
Encoding: 8249 8249 213
Width: 285
Flags: W
LayerCount: 2
Fore
SplineSet
214 71 m 1,0,-1
 143 71 l 1,1,-1
 143 143 l 1,2,-1
 214 143 l 1,3,-1
 214 71 l 1,0,-1
143 143 m 1,4,-1
 71 143 l 1,5,-1
 71 214 l 1,6,-1
 143 214 l 1,7,-1
 143 143 l 1,4,-1
0 286 m 1,8,-1
 71 286 l 1,9,-1
 71 214 l 1,10,-1
 0 214 l 1,11,-1
 0 286 l 1,8,-1
143 357 m 1,12,-1
 143 286 l 1,13,-1
 71 286 l 1,14,-1
 71 357 l 1,15,-1
 143 357 l 1,12,-1
214 429 m 1,16,-1
 214 357 l 1,17,-1
 143 357 l 1,18,-1
 143 429 l 1,19,-1
 214 429 l 1,16,-1
EndSplineSet
EndChar

StartChar: guilsinglright
Encoding: 8250 8250 214
Width: 285
Flags: W
LayerCount: 2
Fore
SplineSet
0 429 m 1,0,-1
 71 429 l 1,1,-1
 71 357 l 1,2,-1
 0 357 l 1,3,-1
 0 429 l 1,0,-1
71 357 m 1,4,-1
 143 357 l 1,5,-1
 143 286 l 1,6,-1
 71 286 l 1,7,-1
 71 357 l 1,4,-1
214 214 m 1,8,-1
 143 214 l 1,9,-1
 143 286 l 1,10,-1
 214 286 l 1,11,-1
 214 214 l 1,8,-1
71 143 m 1,12,-1
 71 214 l 1,13,-1
 143 214 l 1,14,-1
 143 143 l 1,15,-1
 71 143 l 1,12,-1
0 71 m 1,16,-1
 0 143 l 1,17,-1
 71 143 l 1,18,-1
 71 71 l 1,19,-1
 0 71 l 1,16,-1
EndSplineSet
EndChar

StartChar: Euro
Encoding: 8364 8364 215
Width: 500
Flags: W
LayerCount: 2
Fore
SplineSet
71 429 m 1,0,-1
 143 429 l 1,1,-1
 143 357 l 1,2,-1
 286 357 l 1,3,-1
 286 286 l 1,4,-1
 143 286 l 1,5,-1
 143 214 l 1,6,-1
 286 214 l 1,7,-1
 286 143 l 1,8,-1
 143 143 l 1,9,-1
 143 71 l 1,10,-1
 71 71 l 1,11,-1
 71 143 l 1,12,-1
 0 143 l 1,13,-1
 0 214 l 1,14,-1
 71 214 l 1,15,-1
 71 286 l 1,16,-1
 0 286 l 1,17,-1
 0 357 l 1,18,-1
 71 357 l 1,19,-1
 71 429 l 1,0,-1
429 500 m 1,20,-1
 429 429 l 1,21,-1
 143 429 l 1,22,-1
 143 500 l 1,23,-1
 429 500 l 1,20,-1
429 0 m 1,24,-1
 143 0 l 1,25,-1
 143 71 l 1,26,-1
 429 71 l 1,27,-1
 429 0 l 1,24,-1
EndSplineSet
EndChar

StartChar: trademark
Encoding: 8482 8482 216
Width: 857
Flags: W
LayerCount: 2
Fore
SplineSet
0 500 m 1,0,-1
 357 500 l 1,1,-1
 357 429 l 1,2,-1
 214 429 l 1,3,-1
 214 214 l 1,4,-1
 143 214 l 1,5,-1
 143 429 l 1,6,-1
 0 429 l 1,7,-1
 0 500 l 1,0,-1
500 429 m 1,8,-1
 571 429 l 1,9,-1
 571 357 l 1,10,-1
 500 357 l 1,11,-1
 500 214 l 1,12,-1
 429 214 l 1,13,-1
 429 500 l 1,14,-1
 500 500 l 1,15,-1
 500 429 l 1,8,-1
571 286 m 1,16,-1
 571 357 l 1,17,-1
 643 357 l 1,18,-1
 643 286 l 1,19,-1
 571 286 l 1,16,-1
714 500 m 1,20,-1
 786 500 l 1,21,-1
 786 214 l 1,22,-1
 714 214 l 1,23,-1
 714 357 l 1,24,-1
 643 357 l 1,25,-1
 643 429 l 1,26,-1
 714 429 l 1,27,-1
 714 500 l 1,20,-1
EndSplineSet
EndChar

StartChar: numbersign
Encoding: 35 35 217
Width: 428
Flags: W
LayerCount: 2
Fore
SplineSet
357 286 m 1,0,-1
 286 286 l 1,1,-1
 286 214 l 1,2,-1
 357 214 l 1,3,-1
 357 143 l 1,4,-1
 286 143 l 1,5,-1
 286 71 l 1,6,-1
 214 71 l 1,7,-1
 214 143 l 1,8,-1
 143 143 l 1,9,-1
 143 71 l 1,10,-1
 71 71 l 1,11,-1
 71 143 l 1,12,-1
 0 143 l 1,13,-1
 0 214 l 1,14,-1
 71 214 l 1,15,-1
 71 286 l 1,16,-1
 0 286 l 1,17,-1
 0 357 l 1,18,-1
 71 357 l 1,19,-1
 71 429 l 1,20,-1
 143 429 l 1,21,-1
 143 357 l 1,22,-1
 214 357 l 1,23,-1
 214 429 l 1,24,-1
 286 429 l 1,25,-1
 286 357 l 1,26,-1
 357 357 l 1,27,-1
 357 286 l 1,0,-1
214 214 m 1,28,-1
 214 286 l 1,29,-1
 143 286 l 1,30,-1
 143 214 l 1,31,-1
 214 214 l 1,28,-1
EndSplineSet
EndChar

StartChar: exclam
Encoding: 33 33 218
Width: 142
Flags: W
LayerCount: 2
Fore
SplineSet
0 499 m 1,0,-1
 71 499 l 1,1,-1
 71 142 l 1,2,-1
 0 142 l 1,3,-1
 0 499 l 1,0,-1
0 -1 m 1,4,-1
 0 71 l 1,5,-1
 71 71 l 1,6,-1
 71 -1 l 1,7,-1
 0 -1 l 1,4,-1
EndSplineSet
EndChar

StartChar: quotedbl
Encoding: 34 34 219
Width: 285
Flags: W
LayerCount: 2
Fore
SplineSet
0 357 m 1,0,-1
 0 500 l 1,1,-1
 71 500 l 1,2,-1
 71 357 l 1,3,-1
 0 357 l 1,0,-1
143 500 m 1,4,-1
 214 500 l 1,5,-1
 214 357 l 1,6,-1
 143 357 l 1,7,-1
 143 500 l 1,4,-1
EndSplineSet
EndChar

StartChar: uni21E8
Encoding: 8680 8680 220
Width: 1000
Flags: W
LayerCount: 2
Fore
SplineSet
400 0 m 1,0,-1
 750 300 l 5,1,-1
 400 600 l 1,2,-1
 400 0 l 1,0,-1
EndSplineSet
EndChar

StartChar: uni21E6
Encoding: 8678 8678 221
Width: 1000
LayerCount: 2
Fore
SplineSet
750 0 m 1,0,-1
 750 600 l 1,1,-1
 400 300 l 1,2,-1
 750 0 l 1,0,-1
EndSplineSet
EndChar
